*
*
G04 PADS 9.5 Build Number: 522968 generated Gerber (RS-274-X) file*
G04 PC Version=2.1*
*
%IN "Pi-Program-Iss1.1.pcb"*%
*
%MOIN*%
*
%FSLAX35Y35*%
*
*
*
*
G04 PC Standard Apertures*
*
*
G04 Thermal Relief Aperture macro.*
%AMTER*
1,1,$1,0,0*
1,0,$1-$2,0,0*
21,0,$3,$4,0,0,45*
21,0,$3,$4,0,0,135*
%
*
*
G04 Annular Aperture macro.*
%AMANN*
1,1,$1,0,0*
1,0,$2,0,0*
%
*
*
G04 Odd Aperture macro.*
%AMODD*
1,1,$1,0,0*
1,0,$1-0.005,0,0*
%
*
*
G04 PC Custom Aperture Macros*
*
*
*
*
*
*
G04 PC Aperture Table*
*
%ADD010C,0.001*%
%ADD027C,0.01*%
%ADD049C,0.005*%
%ADD064C,0.00787*%
%ADD135C,0.00394*%
*
*
*
*
G04 PC Circuitry*
G04 Layer Name Pi-Program-Iss1.1.pcb - circuitry*
%LPD*%
*
*
G04 PC Custom Flashes*
G04 Layer Name Pi-Program-Iss1.1.pcb - flashes*
%LPD*%
*
*
G04 PC Circuitry*
G04 Layer Name Pi-Program-Iss1.1.pcb - circuitry*
%LPD*%
*
G54D10*
G54D27*
G01X521337Y436870D02*
X439841D01*
Y712067*
X537676*
X521337D02*
X544172D01*
Y691004*
X485510*
Y457540*
X543778*
Y436870*
X520944*
X580077Y436949D02*
Y712146D01*
X560201Y738072D02*
Y739372D01*
X505901Y748772D02*
X504601D01*
X427351Y434272D02*
X435401D01*
Y448272*
X427351*
X419851Y434272D02*
X411801D01*
Y448272*
X419851*
X427351Y463272D02*
X435401D01*
Y477272*
X427351*
X419851Y463272D02*
X411801D01*
Y477272*
X419851*
X427351Y448272D02*
X435401D01*
Y462272*
X427351*
X419851Y448272D02*
X411801D01*
Y462272*
X419851*
X493583Y651480D02*
Y650180D01*
Y636480D02*
Y635180D01*
X521201Y792022D02*
Y783972D01*
X531201*
Y792022*
X521201Y799522D02*
Y807572D01*
X531201*
Y799522*
X534001Y798272D02*
X535301D01*
X566451Y776272D02*
X574501D01*
Y786272*
X566451*
X558951Y776272D02*
X550901D01*
Y786272*
X558951*
X560201Y788572D02*
Y789872D01*
X509301Y798772D02*
X508001D01*
X521181Y742502D02*
Y734452D01*
X531181*
Y742502*
X521181Y750002D02*
Y758052D01*
X531181*
Y750002*
X534221Y748850D02*
X535521D01*
X566451Y725272D02*
X574501D01*
Y735272*
X566451*
X558951Y725272D02*
X550901D01*
Y735272*
X558951*
X466416Y824169D02*
Y826807D01*
X436219*
Y824169*
X468266Y812280D02*
Y801256D01*
X433778*
Y812043*
X490699Y814465D02*
Y801118D01*
X485542*
Y814465*
X490699*
X486447D02*
Y816173D01*
X490050*
Y814465*
X486447*
X493583Y592464D02*
Y591164D01*
X574901Y761272D02*
X576201D01*
X487401Y791772D02*
X488701D01*
X493583Y493487D02*
Y492187D01*
X417601Y491972D02*
Y490672D01*
Y497472D02*
Y496172D01*
X499801Y729272D02*
X498501D01*
X493583Y486576D02*
Y487876D01*
Y572087D02*
Y573387D01*
X513901Y798772D02*
X515201D01*
X575001Y797772D02*
X576301D01*
X575001Y810272D02*
X576301D01*
X493583Y662464D02*
Y661164D01*
Y668487D02*
Y667187D01*
X510901Y748772D02*
X512201D01*
X574891Y748260D02*
X576191D01*
X493583Y586952D02*
Y585652D01*
X568168Y792681D02*
Y813941D01*
X539270*
Y792681*
X568168*
Y795791D02*
X570550Y798173D01*
Y793783*
X570382Y793616*
X568286Y795713*
X568798Y795673D02*
X570077Y796953D01*
Y794650*
X568945Y795781*
X569546Y795280D02*
Y796264D01*
X568268Y743181D02*
Y764441D01*
X539370*
Y743181*
X568268*
Y746291D02*
X570650Y748673D01*
Y744283*
X570482Y744116*
X568386Y746213*
X568898Y746173D02*
X570177Y747453D01*
Y745150*
X569045Y746281*
X569646Y745780D02*
Y746764D01*
X493583Y579568D02*
Y580868D01*
X258981Y726716D02*
Y721716D01*
X258754Y720779*
X258527Y720466*
X258072Y720154*
X257618*
X257163Y720466*
X256936Y720779*
X256709Y721716*
Y722341*
X261027Y726716D02*
Y720154D01*
X263754*
X269209Y725154D02*
X268981Y725779D01*
X268527Y726404*
X268072Y726716*
X267163*
X266709Y726404*
X266254Y725779*
X266027Y725154*
X265800Y724216*
Y722654*
X266027Y721716*
X266254Y721091*
X266709Y720466*
X267163Y720154*
X268072*
X268527Y720466*
X268981Y721091*
X269209Y721716*
X271709Y726716D02*
X274209D01*
X272845Y724216*
X273527*
X273981Y723904*
X274209Y723591*
X274436Y722654*
Y722029*
X274209Y721091*
X273754Y720466*
X273072Y720154*
X272390*
X271709Y720466*
X271481Y720779*
X271254Y721404*
X276936Y726716D02*
X279436D01*
X278072Y724216*
X278754*
X279209Y723904*
X279436Y723591*
X279663Y722654*
Y722029*
X279436Y721091*
X278981Y720466*
X278300Y720154*
X277618*
X276936Y720466*
X276709Y720779*
X276481Y721404*
X281709Y725466D02*
X282163Y725779D01*
X282845Y726716*
Y720154*
X285345Y726716D02*
X287845D01*
X286481Y724216*
X287163*
X287618Y723904*
X287845Y723591*
X288072Y722654*
Y722029*
X287845Y721091*
X287390Y720466*
X286709Y720154*
X286027*
X285345Y720466*
X285118Y720779*
X284890Y721404*
X303754Y725779D02*
X303300Y726404D01*
X302618Y726716*
X301709*
X301027Y726404*
X300572Y725779*
Y725154*
X300800Y724529*
X301027Y724216*
X301481Y723904*
X302845Y723279*
X303300Y722966*
X303527Y722654*
X303754Y722029*
Y721091*
X303300Y720466*
X302618Y720154*
X301709*
X301027Y720466*
X300572Y721091*
X306481Y726716D02*
Y721404D01*
X306709Y720466*
X307163Y720154*
X307618*
X305800Y724529D02*
X307390D01*
X312390D02*
Y720154D01*
Y723591D02*
X311936Y724216D01*
X311481Y724529*
X310800*
X310345Y724216*
X309890Y723591*
X309663Y722654*
Y722029*
X309890Y721091*
X310345Y720466*
X310800Y720154*
X311481*
X311936Y720466*
X312390Y721091*
X317163Y723591D02*
X316709Y724216D01*
X316254Y724529*
X315572*
X315118Y724216*
X314663Y723591*
X314436Y722654*
Y722029*
X314663Y721091*
X315118Y720466*
X315572Y720154*
X316254*
X316709Y720466*
X317163Y721091*
X319209Y726716D02*
Y720154D01*
X321481Y724529D02*
X319209Y721404D01*
X320118Y722654D02*
X321709Y720154D01*
X323754Y724529D02*
Y721404D01*
X323981Y720466*
X324436Y720154*
X325118*
X325572Y720466*
X326254Y721404*
Y724529D02*
Y720154D01*
X328300Y724529D02*
Y717966D01*
Y723591D02*
X328754Y724216D01*
X329209Y724529*
X329890*
X330345Y724216*
X330800Y723591*
X331027Y722654*
Y722029*
X330800Y721091*
X330345Y720466*
X329890Y720154*
X329209*
X328754Y720466*
X328300Y721091*
X260390Y712716D02*
X258118D01*
X257890Y709904*
X258118Y710216*
X258800Y710529*
X259481*
X260163Y710216*
X260618Y709591*
X260845Y708654*
X260618Y708029*
X260390Y707091*
X259936Y706466*
X259254Y706154*
X258572*
X257890Y706466*
X257663Y706779*
X257436Y707404*
X263118Y706779D02*
X262890Y706466D01*
X263118Y706154*
X263345Y706466*
X263118Y706779*
X268345Y710529D02*
X268118Y709591D01*
X267663Y708966*
X266981Y708654*
X266754*
X266072Y708966*
X265618Y709591*
X265390Y710529*
Y710841*
X265618Y711779*
X266072Y712404*
X266754Y712716*
X266981*
X267663Y712404*
X268118Y711779*
X268345Y710529*
Y708966*
X268118Y707404*
X267663Y706466*
X266981Y706154*
X266527*
X265845Y706466*
X265618Y707091*
X273345Y712716D02*
X271072D01*
X270845Y709904*
X271072Y710216*
X271754Y710529*
X272436*
X273118Y710216*
X273572Y709591*
X273800Y708654*
X273572Y708029*
X273345Y707091*
X272890Y706466*
X272209Y706154*
X271527*
X270845Y706466*
X270618Y706779*
X270390Y707404*
X275845Y710529D02*
Y706154D01*
Y709279D02*
X276527Y710216D01*
X276981Y710529*
X277663*
X278118Y710216*
X278345Y709279*
Y706154*
Y709279D02*
X279027Y710216D01*
X279481Y710529*
X280163*
X280618Y710216*
X280845Y709279*
Y706154*
X282890Y712716D02*
X283118Y712404D01*
X283345Y712716*
X283118Y713029*
X282890Y712716*
X283118Y710529D02*
Y706154D01*
X285390Y712716D02*
Y706154D01*
X292663Y713966D02*
Y703966D01*
X303118Y712716D02*
X300845Y706154D01*
X299936Y712716D02*
X303118D01*
X305163Y710529D02*
Y706154D01*
Y709279D02*
X305845Y710216D01*
X306300Y710529*
X306981*
X307436Y710216*
X307663Y709279*
Y706154*
Y709279D02*
X308345Y710216D01*
X308800Y710529*
X309481*
X309936Y710216*
X310163Y709279*
Y706154*
X312209Y712716D02*
X312436Y712404D01*
X312663Y712716*
X312436Y713029*
X312209Y712716*
X312436Y710529D02*
Y706154D01*
X314709Y712716D02*
Y706154D01*
X321981Y709904D02*
X326072D01*
X321981Y708029D02*
X326072D01*
X336300Y710529D02*
X336072Y709591D01*
X335618Y708966*
X334936Y708654*
X334709*
X334027Y708966*
X333572Y709591*
X333345Y710529*
Y710841*
X333572Y711779*
X334027Y712404*
X334709Y712716*
X334936*
X335618Y712404*
X336072Y711779*
X336300Y710529*
Y708966*
X336072Y707404*
X335618Y706466*
X334936Y706154*
X334481*
X333800Y706466*
X333572Y707091*
X339709Y712716D02*
X339027Y712404D01*
X338572Y711466*
X338345Y709904*
Y708966*
X338572Y707404*
X339027Y706466*
X339709Y706154*
X340163*
X340845Y706466*
X341300Y707404*
X341527Y708966*
Y709904*
X341300Y711466*
X340845Y712404*
X340163Y712716*
X339709*
X343572D02*
Y706154D01*
Y712716D02*
X345618D01*
X346300Y712404*
X346527Y712091*
X346754Y711466*
Y710841*
X346527Y710216*
X346300Y709904*
X345618Y709591*
X343572*
X345163D02*
X346754Y706154D01*
X354027Y712716D02*
Y706154D01*
Y712716D02*
X356981D01*
X354027Y709591D02*
X355845D01*
X354027Y706154D02*
X356981D01*
X362436Y711154D02*
X362209Y711779D01*
X361754Y712404*
X361300Y712716*
X360390*
X359936Y712404*
X359481Y711779*
X359254Y711154*
X359027Y710216*
Y708654*
X359254Y707716*
X359481Y707091*
X359936Y706466*
X360390Y706154*
X361300*
X361754Y706466*
X362209Y707091*
X362436Y707716*
X369709Y712716D02*
Y708029D01*
X369936Y707091*
X370390Y706466*
X371072Y706154*
X371527*
X372209Y706466*
X372663Y707091*
X372890Y708029*
Y712716*
X378118Y711779D02*
X377663Y712404D01*
X376981Y712716*
X376072*
X375390Y712404*
X374936Y711779*
Y711154*
X375163Y710529*
X375390Y710216*
X375845Y709904*
X377209Y709279*
X377663Y708966*
X377890Y708654*
X378118Y708029*
Y707091*
X377663Y706466*
X376981Y706154*
X376072*
X375390Y706466*
X374936Y707091*
X380163Y712716D02*
Y706154D01*
Y712716D02*
X382209D01*
X382890Y712404*
X383118Y712091*
X383345Y711466*
Y710841*
X383118Y710216*
X382890Y709904*
X382209Y709591*
X380163D02*
X382209D01*
X382890Y709279*
X383118Y708966*
X383345Y708341*
Y707404*
X383118Y706779*
X382890Y706466*
X382209Y706154*
X380163*
X393701Y826772D02*
X614173D01*
Y393701*
X393701*
Y826772*
X423235Y807087D02*
G75*
G03X423235I-9849J0D01*
G01X604338Y413386D02*
G03X604338I-9850J0D01*
G01X423235D02*
G03X423235I-9849J0D01*
G01X604338Y807087D02*
G03X604338I-9850J0D01*
G01X333799Y700581D02*
X365689Y668691D01*
X414902*
X415020Y672924D02*
Y664636D01*
X419213Y668829*
X415118Y672924*
G54D49*
X444337Y434482D02*
Y431982D01*
X444224Y431513*
X444110Y431357*
X443883Y431201*
X443655*
X443428Y431357*
X443314Y431513*
X443201Y431982*
Y432295*
X445360Y433857D02*
X445587Y434013D01*
X445928Y434482*
Y431201*
X568905Y739772D02*
X568792Y740084D01*
X568564Y740397*
X568337Y740553*
X567883*
X567655Y740397*
X567428Y740084*
X567314Y739772*
X567201Y739303*
Y738522*
X567314Y738053*
X567428Y737740*
X567655Y737428*
X567883Y737272*
X568337*
X568564Y737428*
X568792Y737740*
X568905Y738053*
X569928Y739928D02*
X570155Y740084D01*
X570496Y740553*
Y737272*
X572201Y740553D02*
X571860Y740397D01*
X571633Y739928*
X571519Y739147*
Y738678*
X571633Y737897*
X571860Y737428*
X572201Y737272*
X572428*
X572769Y737428*
X572996Y737897*
X573110Y738678*
Y739147*
X572996Y739928*
X572769Y740397*
X572428Y740553*
X572201*
X503799Y757531D02*
X503487Y757418D01*
X503174Y757190*
X503018Y756963*
Y756509*
X503174Y756281*
X503487Y756054*
X503799Y755940*
X504268Y755827*
X505049*
X505518Y755940*
X505830Y756054*
X506143Y756281*
X506299Y756509*
Y756963*
X506143Y757190*
X505830Y757418*
X505518Y757531*
X503643Y758554D02*
X503487Y758781D01*
X503018Y759122*
X506299*
X503643Y760145D02*
X503487Y760372D01*
X503018Y760713*
X506299*
X408201Y439976D02*
X407888Y439863D01*
X407576Y439635*
X407420Y439408*
Y438953*
X407576Y438726*
X407888Y438499*
X408201Y438385*
X408670Y438272*
X409451*
X409920Y438385*
X410232Y438499*
X410545Y438726*
X410701Y438953*
Y439408*
X410545Y439635*
X410232Y439863*
X409920Y439976*
X408045Y440999D02*
X407888Y441226D01*
X407420Y441567*
X410701*
X407420Y442817D02*
Y444067D01*
X408670Y443385*
Y443726*
X408826Y443953*
X408982Y444067*
X409451Y444181*
X409763*
X410232Y444067*
X410545Y443840*
X410701Y443499*
Y443158*
X410545Y442817*
X410388Y442703*
X410076Y442590*
X408201Y469976D02*
X407888Y469863D01*
X407576Y469635*
X407420Y469408*
Y468953*
X407576Y468726*
X407888Y468499*
X408201Y468385*
X408670Y468272*
X409451*
X409920Y468385*
X410232Y468499*
X410545Y468726*
X410701Y468953*
Y469408*
X410545Y469635*
X410232Y469863*
X409920Y469976*
X408045Y470999D02*
X407888Y471226D01*
X407420Y471567*
X410701*
X407420Y473726D02*
X409607Y472590D01*
Y474294*
X407420Y473726D02*
X410701D01*
X408201Y453976D02*
X407888Y453863D01*
X407576Y453635*
X407420Y453408*
Y452953*
X407576Y452726*
X407888Y452499*
X408201Y452385*
X408670Y452272*
X409451*
X409920Y452385*
X410232Y452499*
X410545Y452726*
X410701Y452953*
Y453408*
X410545Y453635*
X410232Y453863*
X409920Y453976*
X408045Y454999D02*
X407888Y455226D01*
X407420Y455567*
X410701*
X407420Y458067D02*
Y456931D01*
X408826Y456817*
X408670Y456931*
X408513Y457272*
Y457613*
X408670Y457953*
X408982Y458181*
X409451Y458294*
X409763Y458181*
X410232Y458067*
X410545Y457840*
X410701Y457499*
Y457158*
X410545Y456817*
X410388Y456703*
X410076Y456590*
X503787Y651280D02*
X503674Y651592D01*
X503446Y651905*
X503219Y652061*
X502764*
X502537Y651905*
X502310Y651592*
X502196Y651280*
X502083Y650811*
Y650030*
X502196Y649561*
X502310Y649248*
X502537Y648936*
X502764Y648780*
X503219*
X503446Y648936*
X503674Y649248*
X503787Y649561*
X504810Y651436D02*
X505037Y651592D01*
X505378Y652061*
Y648780*
X507764Y651592D02*
X507651Y651905D01*
X507310Y652061*
X507083*
X506742Y651905*
X506514Y651436*
X506401Y650655*
Y649873*
X506514Y649248*
X506742Y648936*
X507083Y648780*
X507196*
X507537Y648936*
X507764Y649248*
X507878Y649717*
Y649873*
X507764Y650342*
X507537Y650655*
X507196Y650811*
X507083*
X506742Y650655*
X506514Y650342*
X506401Y649873*
X503787Y636780D02*
X503674Y637092D01*
X503446Y637405*
X503219Y637561*
X502764*
X502537Y637405*
X502310Y637092*
X502196Y636780*
X502083Y636311*
Y635530*
X502196Y635061*
X502310Y634748*
X502537Y634436*
X502764Y634280*
X503219*
X503446Y634436*
X503674Y634748*
X503787Y635061*
X504810Y636936D02*
X505037Y637092D01*
X505378Y637561*
Y634280*
X507992Y637561D02*
X506855Y634280D01*
X506401Y637561D02*
X507992D01*
X525799Y812020D02*
X525685Y812332D01*
X525458Y812645*
X525231Y812801*
X524776*
X524549Y812645*
X524322Y812332*
X524208Y812020*
X524094Y811551*
Y810770*
X524208Y810301*
X524322Y809988*
X524549Y809676*
X524776Y809520*
X525231*
X525458Y809676*
X525685Y809988*
X525799Y810301*
X526935Y812020D02*
Y812176D01*
X527049Y812488*
X527163Y812645*
X527390Y812801*
X527844*
X528072Y812645*
X528185Y812488*
X528299Y812176*
Y811863*
X528185Y811551*
X527958Y811082*
X526822Y809520*
X528413*
X534579Y807650D02*
X534465Y807962D01*
X534238Y808275*
X534010Y808431*
X533556*
X533329Y808275*
X533101Y807962*
X532988Y807650*
X532874Y807181*
Y806400*
X532988Y805931*
X533101Y805618*
X533329Y805306*
X533556Y805150*
X534010*
X534238Y805306*
X534465Y805618*
X534579Y805931*
X535829Y808431D02*
X537079D01*
X536397Y807181*
X536738*
X536965Y807025*
X537079Y806868*
X537192Y806400*
Y806087*
X537079Y805618*
X536851Y805306*
X536510Y805150*
X536169*
X535829Y805306*
X535715Y805462*
X535601Y805775*
X570327Y773791D02*
X570213Y774104D01*
X569986Y774416*
X569758Y774573*
X569304*
X569077Y774416*
X568849Y774104*
X568736Y773791*
X568622Y773323*
Y772541*
X568736Y772073*
X568849Y771760*
X569077Y771448*
X569304Y771291*
X569758*
X569986Y771448*
X570213Y771760*
X570327Y772073*
X572486Y774573D02*
X571349Y772385D01*
X573054*
X572486Y774573D02*
Y771291D01*
X568405Y790272D02*
X568292Y790584D01*
X568064Y790897*
X567837Y791053*
X567383*
X567155Y790897*
X566928Y790584*
X566814Y790272*
X566701Y789803*
Y789022*
X566814Y788553*
X566928Y788240*
X567155Y787928*
X567383Y787772*
X567837*
X568064Y787928*
X568292Y788240*
X568405Y788553*
X570905Y791053D02*
X569769D01*
X569655Y789647*
X569769Y789803*
X570110Y789959*
X570451*
X570792Y789803*
X571019Y789490*
X571133Y789022*
X571019Y788709*
X570905Y788240*
X570678Y787928*
X570337Y787772*
X569996*
X569655Y787928*
X569542Y788084*
X569428Y788397*
X507201Y807905D02*
X506888Y807792D01*
X506576Y807564*
X506420Y807337*
Y806883*
X506576Y806655*
X506888Y806428*
X507201Y806314*
X507670Y806201*
X508451*
X508920Y806314*
X509232Y806428*
X509545Y806655*
X509701Y806883*
Y807337*
X509545Y807564*
X509232Y807792*
X508920Y807905*
X506888Y810292D02*
X506576Y810178D01*
X506420Y809837*
Y809610*
X506576Y809269*
X507045Y809042*
X507826Y808928*
X508607*
X509232Y809042*
X509545Y809269*
X509701Y809610*
Y809724*
X509545Y810064*
X509232Y810292*
X508763Y810405*
X508607*
X508138Y810292*
X507826Y810064*
X507670Y809724*
Y809610*
X507826Y809269*
X508138Y809042*
X508607Y808928*
X525169Y763004D02*
X525055Y763316D01*
X524828Y763629*
X524601Y763785*
X524146*
X523919Y763629*
X523692Y763316*
X523578Y763004*
X523465Y762535*
Y761754*
X523578Y761285*
X523692Y760973*
X523919Y760660*
X524146Y760504*
X524601*
X524828Y760660*
X525055Y760973*
X525169Y761285*
X527783Y763785D02*
X526646Y760504D01*
X526192Y763785D02*
X527783D01*
X534815Y758201D02*
X534701Y758513D01*
X534474Y758826*
X534247Y758982*
X533792*
X533565Y758826*
X533338Y758513*
X533224Y758201*
X533110Y757732*
Y756951*
X533224Y756482*
X533338Y756170*
X533565Y755857*
X533792Y755701*
X534247*
X534474Y755857*
X534701Y756170*
X534815Y756482*
X536406Y758982D02*
X536065Y758826D01*
X535951Y758513*
Y758201*
X536065Y757888*
X536292Y757732*
X536747Y757576*
X537088Y757420*
X537315Y757107*
X537428Y756795*
Y756326*
X537315Y756013*
X537201Y755857*
X536860Y755701*
X536406*
X536065Y755857*
X535951Y756013*
X535838Y756326*
Y756795*
X535951Y757107*
X536178Y757420*
X536519Y757576*
X536974Y757732*
X537201Y757888*
X537315Y758201*
Y758513*
X537201Y758826*
X536860Y758982*
X536406*
X578405Y730772D02*
X578292Y731084D01*
X578064Y731397*
X577837Y731553*
X577383*
X577155Y731397*
X576928Y731084*
X576814Y730772*
X576701Y730303*
Y729522*
X576814Y729053*
X576928Y728740*
X577155Y728428*
X577383Y728272*
X577837*
X578064Y728428*
X578292Y728740*
X578405Y729053*
X580905Y730459D02*
X580792Y729990D01*
X580564Y729678*
X580224Y729522*
X580110*
X579769Y729678*
X579542Y729990*
X579428Y730459*
Y730615*
X579542Y731084*
X579769Y731397*
X580110Y731553*
X580224*
X580564Y731397*
X580792Y731084*
X580905Y730459*
Y729678*
X580792Y728897*
X580564Y728428*
X580224Y728272*
X579996*
X579655Y728428*
X579542Y728740*
X480123Y804189D02*
X483404D01*
Y805553*
X480123Y806576D02*
X483404D01*
X480123D02*
Y808053D01*
X481685Y806576D02*
Y807485D01*
X483404Y806576D02*
Y808053D01*
X480123Y809076D02*
X483404D01*
X480123D02*
Y809871D01*
X480279Y810212*
X480591Y810439*
X480904Y810553*
X481373Y810667*
X482154*
X482623Y810553*
X482935Y810439*
X483248Y810212*
X483404Y809871*
Y809076*
X480748Y811689D02*
X480591Y811917D01*
X480123Y812258*
X483404*
X504683Y593045D02*
Y589764D01*
Y593045D02*
X505705D01*
X506046Y592889*
X506160Y592733*
X506274Y592420*
Y592108*
X506160Y591795*
X506046Y591639*
X505705Y591483*
X504683*
X505478D02*
X506274Y589764D01*
X507296Y592420D02*
X507524Y592576D01*
X507864Y593045*
Y589764*
X509569Y593045D02*
X509228Y592889D01*
X509001Y592420*
X508887Y591639*
Y591170*
X509001Y590389*
X509228Y589920*
X509569Y589764*
X509796*
X510137Y589920*
X510364Y590389*
X510478Y591170*
Y591639*
X510364Y592420*
X510137Y592889*
X509796Y593045*
X509569*
X579081Y759087D02*
X582362D01*
X579081D02*
Y760109D01*
X579237Y760450*
X579393Y760564*
X579706Y760678*
X580018*
X580331Y760564*
X580487Y760450*
X580643Y760109*
Y759087*
Y759882D02*
X582362Y760678D01*
X579706Y761700D02*
X579550Y761928D01*
X579081Y762268*
X582362*
X579706Y763291D02*
X579550Y763518D01*
X579081Y763859*
X582362*
X480920Y789201D02*
X484201D01*
X480920D02*
Y790224D01*
X481076Y790564*
X481232Y790678*
X481545Y790792*
X481857*
X482170Y790678*
X482326Y790564*
X482482Y790224*
Y789201*
Y789996D02*
X484201Y790792D01*
X481545Y791814D02*
X481388Y792042D01*
X480920Y792383*
X484201*
X481701Y793519D02*
X481545D01*
X481232Y793633*
X481076Y793746*
X480920Y793974*
Y794428*
X481076Y794655*
X481232Y794769*
X481545Y794883*
X481857*
X482170Y794769*
X482638Y794542*
X484201Y793405*
Y794996*
X504431Y494683D02*
Y491402D01*
Y494683D02*
X505453D01*
X505794Y494527*
X505908Y494370*
X506022Y494058*
Y493745*
X505908Y493433*
X505794Y493277*
X505453Y493120*
X504431*
X505226D02*
X506022Y491402D01*
X507044Y494058D02*
X507272Y494214D01*
X507613Y494683*
Y491402*
X508863Y494683D02*
X510113D01*
X509431Y493433*
X509772*
X509999Y493277*
X510113Y493120*
X510226Y492652*
Y492339*
X510113Y491870*
X509885Y491558*
X509544Y491402*
X509203*
X508863Y491558*
X508749Y491714*
X508635Y492027*
X404601Y493053D02*
Y489772D01*
Y493053D02*
X405624D01*
X405964Y492897*
X406078Y492740*
X406192Y492428*
Y492115*
X406078Y491803*
X405964Y491647*
X405624Y491490*
X404601*
X405396D02*
X406192Y489772D01*
X407214Y492428D02*
X407442Y492584D01*
X407783Y493053*
Y489772*
X409942Y493053D02*
X408805Y490865D01*
X410510*
X409942Y493053D02*
Y489772D01*
X404601Y499553D02*
Y496272D01*
Y499553D02*
X405624D01*
X405964Y499397*
X406078Y499240*
X406192Y498928*
Y498615*
X406078Y498303*
X405964Y498147*
X405624Y497990*
X404601*
X405396D02*
X406192Y496272D01*
X407214Y498928D02*
X407442Y499084D01*
X407783Y499553*
Y496272*
X410283Y499553D02*
X409146D01*
X409033Y498147*
X409146Y498303*
X409487Y498459*
X409828*
X410169Y498303*
X410396Y497990*
X410510Y497522*
X410396Y497209*
X410283Y496740*
X410055Y496428*
X409714Y496272*
X409374*
X409033Y496428*
X408919Y496584*
X408805Y496897*
X500882Y720272D02*
X497601D01*
X500882D02*
Y719249D01*
X500726Y718908*
X500570Y718794*
X500257Y718681*
X499945*
X499632Y718794*
X499476Y718908*
X499320Y719249*
Y720272*
Y719476D02*
X497601Y718681D01*
X500257Y717658D02*
X500413Y717431D01*
X500882Y717090*
X497601*
X500413Y714703D02*
X500726Y714817D01*
X500882Y715158*
Y715385*
X500726Y715726*
X500257Y715953*
X499476Y716067*
X498695*
X498070Y715953*
X497757Y715726*
X497601Y715385*
Y715272*
X497757Y714931*
X498070Y714703*
X498538Y714590*
X498695*
X499163Y714703*
X499476Y714931*
X499632Y715272*
Y715385*
X499476Y715726*
X499163Y715953*
X498695Y716067*
X504431Y488671D02*
Y485390D01*
Y488671D02*
X505453D01*
X505794Y488515*
X505908Y488359*
X506022Y488046*
Y487734*
X505908Y487421*
X505794Y487265*
X505453Y487109*
X504431*
X505226D02*
X506022Y485390D01*
X507044Y488046D02*
X507272Y488202D01*
X507613Y488671*
Y485390*
X510226Y488671D02*
X509090Y485390D01*
X508635Y488671D02*
X510226D01*
X504183Y574069D02*
Y570787D01*
Y574069D02*
X505205D01*
X505546Y573912*
X505660Y573756*
X505774Y573444*
Y573131*
X505660Y572819*
X505546Y572662*
X505205Y572506*
X504183*
X504978D02*
X505774Y570787D01*
X506796Y573444D02*
X507024Y573600D01*
X507364Y574069*
Y570787*
X508955Y574069D02*
X508614Y573912D01*
X508501Y573600*
Y573287*
X508614Y572975*
X508842Y572819*
X509296Y572662*
X509637Y572506*
X509864Y572194*
X509978Y571881*
Y571412*
X509864Y571100*
X509751Y570944*
X509410Y570787*
X508955*
X508614Y570944*
X508501Y571100*
X508387Y571412*
Y571881*
X508501Y572194*
X508728Y572506*
X509069Y572662*
X509524Y572819*
X509751Y572975*
X509864Y573287*
Y573600*
X509751Y573912*
X509410Y574069*
X508955*
X512920Y806201D02*
X516201D01*
X512920D02*
Y807224D01*
X513076Y807564*
X513232Y807678*
X513545Y807792*
X513857*
X514170Y807678*
X514326Y807564*
X514482Y807224*
Y806201*
Y806996D02*
X516201Y807792D01*
X513701Y808928D02*
X513545D01*
X513232Y809042*
X513076Y809155*
X512920Y809383*
Y809837*
X513076Y810064*
X513232Y810178*
X513545Y810292*
X513857*
X514170Y810178*
X514638Y809951*
X516201Y808814*
Y810405*
X578766Y795661D02*
X582047D01*
X578766D02*
Y796684D01*
X578922Y797025*
X579078Y797139*
X579391Y797252*
X579703*
X580016Y797139*
X580172Y797025*
X580328Y796684*
Y795661*
Y796457D02*
X582047Y797252D01*
X578766Y798502D02*
Y799752D01*
X580016Y799071*
Y799411*
X580172Y799639*
X580328Y799752*
X580797Y799866*
X581110*
X581578Y799752*
X581891Y799525*
X582047Y799184*
Y798843*
X581891Y798502*
X581735Y798389*
X581422Y798275*
X578805Y808457D02*
X582087D01*
X578805D02*
Y809479D01*
X578962Y809820*
X579118Y809934*
X579430Y810048*
X579743*
X580055Y809934*
X580212Y809820*
X580368Y809479*
Y808457*
Y809252D02*
X582087Y810048D01*
X578805Y812207D02*
X580993Y811070D01*
Y812775*
X578805Y812207D02*
X582087D01*
X502083Y664545D02*
Y661264D01*
Y664545D02*
X503105D01*
X503446Y664389*
X503560Y664233*
X503674Y663920*
Y663608*
X503560Y663295*
X503446Y663139*
X503105Y662983*
X502083*
X502878D02*
X503674Y661264D01*
X506174Y664545D02*
X505037D01*
X504924Y663139*
X505037Y663295*
X505378Y663451*
X505719*
X506060Y663295*
X506287Y662983*
X506401Y662514*
X506287Y662201*
X506174Y661733*
X505946Y661420*
X505605Y661264*
X505264*
X504924Y661420*
X504810Y661576*
X504696Y661889*
X502083Y670069D02*
Y666787D01*
Y670069D02*
X503105D01*
X503446Y669912*
X503560Y669756*
X503674Y669444*
Y669131*
X503560Y668819*
X503446Y668662*
X503105Y668506*
X502083*
X502878D02*
X503674Y666787D01*
X506060Y669600D02*
X505946Y669912D01*
X505605Y670069*
X505378*
X505037Y669912*
X504810Y669444*
X504696Y668662*
Y667881*
X504810Y667256*
X505037Y666944*
X505378Y666787*
X505492*
X505833Y666944*
X506060Y667256*
X506174Y667725*
Y667881*
X506060Y668350*
X505833Y668662*
X505492Y668819*
X505378*
X505037Y668662*
X504810Y668350*
X504696Y667881*
X510380Y756535D02*
X513661D01*
X510380D02*
Y757558D01*
X510536Y757899*
X510693Y758013*
X511005Y758126*
X511318*
X511630Y758013*
X511786Y757899*
X511943Y757558*
Y756535*
Y757331D02*
X513661Y758126D01*
X510380Y760740D02*
X513661Y759604D01*
X510380Y759149D02*
Y760740D01*
X578283Y746161D02*
X581565D01*
X578283D02*
Y747184D01*
X578440Y747525*
X578596Y747639*
X578908Y747752*
X579221*
X579533Y747639*
X579690Y747525*
X579846Y747184*
Y746161*
Y746957D02*
X581565Y747752D01*
X578283Y749343D02*
X578440Y749002D01*
X578752Y748889*
X579065*
X579377Y749002*
X579533Y749230*
X579690Y749684*
X579846Y750025*
X580158Y750252*
X580471Y750366*
X580940*
X581252Y750252*
X581408Y750139*
X581565Y749798*
Y749343*
X581408Y749002*
X581252Y748889*
X580940Y748775*
X580471*
X580158Y748889*
X579846Y749116*
X579690Y749457*
X579533Y749911*
X579377Y750139*
X579065Y750252*
X578752*
X578440Y750139*
X578283Y749798*
Y749343*
X504683Y586533D02*
Y583252D01*
Y586533D02*
X505705D01*
X506046Y586377*
X506160Y586221*
X506274Y585908*
Y585596*
X506160Y585283*
X506046Y585127*
X505705Y584971*
X504683*
X505478D02*
X506274Y583252D01*
X508774Y585439D02*
X508660Y584971D01*
X508433Y584658*
X508092Y584502*
X507978*
X507637Y584658*
X507410Y584971*
X507296Y585439*
Y585596*
X507410Y586064*
X507637Y586377*
X507978Y586533*
X508092*
X508433Y586377*
X508660Y586064*
X508774Y585439*
Y584658*
X508660Y583877*
X508433Y583408*
X508092Y583252*
X507864*
X507524Y583408*
X507410Y583721*
X542201Y818982D02*
Y816638D01*
X542314Y816170*
X542542Y815857*
X542883Y815701*
X543110*
X543451Y815857*
X543678Y816170*
X543792Y816638*
Y818982*
X544814Y818357D02*
X545042Y818513D01*
X545383Y818982*
Y815701*
X541201Y769482D02*
Y767138D01*
X541314Y766670*
X541542Y766357*
X541883Y766201*
X542110*
X542451Y766357*
X542678Y766670*
X542792Y767138*
Y769482*
X543928Y768701D02*
Y768857D01*
X544042Y769170*
X544155Y769326*
X544383Y769482*
X544837*
X545064Y769326*
X545178Y769170*
X545292Y768857*
Y768545*
X545178Y768232*
X544951Y767763*
X543814Y766201*
X545405*
X476390Y723628D02*
X476163Y723471D01*
X475936Y723159*
X475822Y722846*
X475709Y722378*
Y721596*
X475822Y721128*
X475936Y720815*
X476163Y720503*
X476390Y720346*
X476845*
X477072Y720503*
X477300Y720815*
X477413Y721128*
X477527Y721596*
Y722378*
X477413Y722846*
X477300Y723159*
X477072Y723471*
X476845Y723628*
X476390*
X476731Y720971D02*
X477413Y720034D01*
X478550Y723003D02*
X478777Y723159D01*
X479118Y723628*
Y720346*
X485131Y723628D02*
X484903Y723471D01*
X484676Y723159*
X484562Y722846*
X484449Y722378*
Y721596*
X484562Y721128*
X484676Y720815*
X484903Y720503*
X485131Y720346*
X485585*
X485812Y720503*
X486040Y720815*
X486153Y721128*
X486267Y721596*
Y722378*
X486153Y722846*
X486040Y723159*
X485812Y723471*
X485585Y723628*
X485131*
X485472Y720971D02*
X486153Y720034D01*
X487403Y722846D02*
Y723003D01*
X487517Y723315*
X487631Y723471*
X487858Y723628*
X488312*
X488540Y723471*
X488653Y723315*
X488767Y723003*
Y722690*
X488653Y722378*
X488426Y721909*
X487290Y720346*
X488881*
X504683Y581049D02*
Y577768D01*
Y581049D02*
X505705D01*
X506046Y580893*
X506160Y580736*
X506274Y580424*
Y580111*
X506160Y579799*
X506046Y579643*
X505705Y579486*
X504683*
X505478D02*
X506274Y577768D01*
X507296Y580424D02*
X507524Y580580D01*
X507864Y581049*
Y577768*
X509569Y581049D02*
X509228Y580893D01*
X509001Y580424*
X508887Y579643*
Y579174*
X509001Y578393*
X509228Y577924*
X509569Y577768*
X509796*
X510137Y577924*
X510364Y578393*
X510478Y579174*
Y579643*
X510364Y580424*
X510137Y580893*
X509796Y581049*
X509569*
X512183D02*
X511842Y580893D01*
X511614Y580424*
X511501Y579643*
Y579174*
X511614Y578393*
X511842Y577924*
X512183Y577768*
X512410*
X512751Y577924*
X512978Y578393*
X513092Y579174*
Y579643*
X512978Y580424*
X512751Y580893*
X512410Y581049*
X512183*
G54D64*
X480841Y735193D02*
Y731650D01*
X482861Y725350D02*
Y728894D01*
G54D135*
X480250Y731846D02*
Y728697D01*
X473951*
Y731846*
X480250*
X478282D02*
X480250Y729878D01*
X483451Y728697D02*
Y731846D01*
X489750*
Y728697*
X483451*
X485420D02*
X483451Y730665D01*
G74*
X0Y0D02*
M02*
