*
*
G04 PADS 9.5 Build Number: 522968 generated Gerber (RS-274-X) file*
G04 PC Version=2.1*
*
%IN "Pi-Program-Iss1.pcb"*%
*
%MOIN*%
*
%FSLAX35Y35*%
*
*
*
*
G04 PC Standard Apertures*
*
*
G04 Thermal Relief Aperture macro.*
%AMTER*
1,1,$1,0,0*
1,0,$1-$2,0,0*
21,0,$3,$4,0,0,45*
21,0,$3,$4,0,0,135*
%
*
*
G04 Annular Aperture macro.*
%AMANN*
1,1,$1,0,0*
1,0,$2,0,0*
%
*
*
G04 Odd Aperture macro.*
%AMODD*
1,1,$1,0,0*
1,0,$1-0.005,0,0*
%
*
*
G04 PC Custom Aperture Macros*
*
*
*
*
*
*
G04 PC Aperture Table*
*
%ADD010C,0.001*%
%ADD026C,0.024*%
%ADD027C,0.01*%
%ADD119C,0.04*%
*
*
*
*
G04 PC Circuitry*
G04 Layer Name Pi-Program-Iss1.pcb - circuitry*
%LPD*%
*
*
G04 PC Custom Flashes*
G04 Layer Name Pi-Program-Iss1.pcb - flashes*
%LPD*%
*
*
G04 PC Circuitry*
G04 Layer Name Pi-Program-Iss1.pcb - circuitry*
%LPD*%
*
G54D10*
G54D26*
G01X418031Y448299D03*
X411772Y460110D03*
Y454244D03*
X411732Y448299D03*
Y442591D03*
Y437551D03*
X411614Y466213D03*
X483601Y463248D03*
X483101Y453800D03*
X451101Y454981D03*
Y464429D03*
X411693Y474323D03*
X411732Y470268D03*
X439101Y492772D03*
Y485772D03*
X471181Y484520D03*
Y491606D03*
Y505780D03*
X451101Y506949D03*
Y499863D03*
X483601Y470335D03*
X451101Y471516D03*
X500601Y487272D03*
X471181Y512866D03*
Y527039D03*
Y519953D03*
Y541213D03*
X451101Y542382D03*
Y535296D03*
Y528209D03*
Y521122D03*
Y514036D03*
X471181Y548299D03*
Y555268D03*
Y562472D03*
Y569559D03*
Y576646D03*
Y583732D03*
X451101Y584902D03*
Y577815D03*
Y570729D03*
Y563642D03*
Y556555D03*
Y549469D03*
X500601Y586272D03*
X471181Y590819D03*
Y597906D03*
Y604992D03*
Y612079D03*
Y619165D03*
Y626252D03*
X451101Y627422D03*
Y620335D03*
Y613248D03*
Y606162D03*
Y599075D03*
Y591989D03*
X500601Y591772D03*
X438101Y655772D03*
X471181Y633260D03*
Y661685D03*
X451102Y662866D03*
X484101Y654587D03*
X451101Y634508D03*
X496683Y632272D03*
Y647272D03*
X496701Y658272D03*
X471201Y689772D03*
X471181Y668772D03*
Y675858D03*
Y682945D03*
X451102Y698299D03*
Y691213D03*
Y677039D03*
Y684126D03*
Y669953D03*
X496701Y671272D03*
X505201Y741488D03*
X503101Y726172D03*
X492101Y727272D03*
X552701Y738772D03*
X557201Y720772D03*
X521142Y751646D03*
X531201Y751701D03*
X571614Y764362D03*
X438306Y802772D03*
X445983Y802272D03*
Y812772D03*
X463701Y802772D03*
X508601Y791803D03*
X521024Y801528D03*
X531201Y801372D03*
X552701Y789272D03*
X572087Y813299D03*
G54D27*
X600688Y413386D02*
G75*
G03X600688I-6200J0D01*
G01Y807087D02*
G03X600688I-6200J0D01*
G01X585786Y777984D02*
G03X585786I-2400J0D01*
G01Y783614D02*
G03X585786I-2400J0D01*
G01X580707Y777984D02*
G03X580707I-2400J0D01*
G01Y783614D02*
G03X580707I-2400J0D01*
G01X573101Y714272D02*
G03X573101I-2400J0D01*
G01Y720272D02*
G03X573101I-2400J0D01*
G01X567601Y714272D02*
G03X567601I-2400J0D01*
G01Y720272D02*
G03X567601I-2400J0D01*
G01X540101Y784272D02*
G03X540101I-2400J0D01*
G01Y789244D02*
G03X540101I-2400J0D01*
G01X533601Y745701D02*
G03X533601I-2400J0D01*
G01X535101Y784272D02*
G03X535101I-2400J0D01*
G01Y789272D02*
G03X535101I-2400J0D01*
G01X533601Y795172D02*
G03X533601I-2400J0D01*
G01X523581Y746370D02*
G03X523581I-2400J0D01*
G01X523620Y795346D02*
G03X523620I-2400J0D01*
G01X514001Y741449D02*
G03X514001I-2400J0D01*
G01X517001Y791724D02*
G03X517001I-2400J0D01*
G01X503001Y492772D02*
G03X503001I-2400J0D01*
G01X503601Y572772D02*
G03X503601I-2400J0D01*
G01X503501Y580272D02*
G03X503501I-2400J0D01*
G01X505501Y732372D02*
G03X505501I-2400J0D01*
G01X501501Y737772D02*
G03X501501I-2400J0D01*
G01X492883Y632272D02*
G03X492883I-2400J0D01*
G01Y647272D02*
G03X492883I-2400J0D01*
G01X487501Y774772D02*
G03X487501I-2400J0D01*
G01X481469Y737772D02*
G03X481469I-2400J0D01*
G01X464901Y442382D02*
G03X464901I-3800J0D01*
G01X465901Y705178D02*
G03X465901I-4800J0D01*
G01X460001Y801390D02*
G03X460001I-2400J0D01*
G01X445411Y810154D02*
G03X445411I-2184J0D01*
G01X440001Y636870D02*
G03X440001I-2400J0D01*
G01X433601Y448201D02*
G03X433601I-2400J0D01*
G01X427601Y435701D02*
G03X427601I-2400J0D01*
G01Y441201D02*
G03X427601I-2400J0D01*
G01Y446201D02*
G03X427601I-2400J0D01*
G01Y452201D02*
G03X427601I-2400J0D01*
G01Y458201D02*
G03X427601I-2400J0D01*
G01X419586Y413386D02*
G03X419586I-6200J0D01*
G01X416901Y501055D02*
G03X416901I-2400J0D01*
G01X419586Y807087D02*
G03X419586I-6200J0D01*
G01X607768Y400106D02*
Y820366D01*
X400106*
Y400106*
X607768*
X600688Y413386D02*
G03X600688I-6200J0D01*
G01Y807087D02*
G03X600688I-6200J0D01*
G01X585786Y777984D02*
G03X585786I-2400J0D01*
G01Y783614D02*
G03X585786I-2400J0D01*
G01X580707Y777984D02*
G03X580707I-2400J0D01*
G01Y783614D02*
G03X580707I-2400J0D01*
G01X573101Y714272D02*
G03X573101I-2400J0D01*
G01Y720272D02*
G03X573101I-2400J0D01*
G01X567601Y714272D02*
G03X567601I-2400J0D01*
G01Y720272D02*
G03X567601I-2400J0D01*
G01X538053Y737146D02*
G03X537348I-352J2374D01*
X538053I353J-2374*
G01X540101Y784272D02*
G03X540101I-2400J0D01*
G01Y789244D02*
G03X540101I-2400J0D01*
G01X533053Y737146D02*
G03X532348I-352J2374D01*
X533053I353J-2374*
G01X533601Y745701D02*
G03X533601I-2400J0D01*
G01X535101Y784272D02*
G03X535101I-2400J0D01*
G01Y789272D02*
G03X535101I-2400J0D01*
G01X533601Y795172D02*
G03X533601I-2400J0D01*
G01X523581Y746370D02*
G03X523581I-2400J0D01*
G01X523620Y795346D02*
G03X523620I-2400J0D01*
G01X514001Y741449D02*
G03X514001I-2400J0D01*
G01X517001Y791724D02*
G03X517001I-2400J0D01*
G01X503001Y492772D02*
G03X503001I-2400J0D01*
G01X503601Y572772D02*
G03X503601I-2400J0D01*
G01X503501Y580272D02*
G03X503501I-2400J0D01*
G01X505501Y732372D02*
G03X505501I-2400J0D01*
G01X501501Y737772D02*
G03X501501I-2400J0D01*
G01X492883Y632272D02*
G03X492883I-2400J0D01*
G01Y647272D02*
G03X492883I-2400J0D01*
G01X487501Y774772D02*
G03X487501I-2400J0D01*
G01X481469Y737772D02*
G03X481469I-2400J0D01*
G01X464901Y442382D02*
G03X464901I-3800J0D01*
G01X465901Y705178D02*
G03X465901I-4800J0D01*
G01X460001Y801390D02*
G03X460001I-2400J0D01*
G01X456810Y810446D02*
G03X458572Y812300I2165J-292D01*
X456810Y810446I-2353J472*
G01X445411Y810154D02*
G03X445411I-2184J0D01*
G01X440001Y636870D02*
G03X440001I-2400J0D01*
G01X433601Y448201D02*
G03X433601I-2400J0D01*
G01X427601Y435701D02*
G03X427601I-2400J0D01*
G01Y441201D02*
G03X427601I-2400J0D01*
G01Y446201D02*
G03X427601I-2400J0D01*
G01Y452201D02*
G03X427601I-2400J0D01*
G01Y458201D02*
G03X427601I-2400J0D01*
G01X426536Y472951D02*
G03X424866I-835J2250D01*
G01X426626Y468486D02*
G03X426536Y472951I-925J2215D01*
G01X424776Y468486D02*
G03X426626I925J-2214D01*
G01X424866Y472951D02*
G03X424776Y468486I835J-2250D01*
G01X419586Y413386D02*
G03X419586I-6200J0D01*
G01X416901Y501055D02*
G03X416901I-2400J0D01*
G01X419586Y807087D02*
G03X419586I-6200J0D01*
G01X400106Y819505D02*
X607768D01*
X400106Y818605D02*
X607768D01*
X400106Y817705D02*
X607768D01*
X400106Y816805D02*
X607768D01*
X400106Y815905D02*
X607768D01*
X457098Y815005D02*
X607768D01*
X458214Y814105D02*
X607768D01*
X595491Y813205D02*
X607768D01*
X597836Y812305D02*
X607768D01*
X598937Y811405D02*
X607768D01*
X599661Y810505D02*
X607768D01*
X600154Y809605D02*
X607768D01*
X600473Y808705D02*
X607768D01*
X600646Y807805D02*
X607768D01*
X600686Y806905D02*
X607768D01*
X600593Y806005D02*
X607768D01*
X600363Y805105D02*
X607768D01*
X599978Y804205D02*
X607768D01*
X599401Y803305D02*
X607768D01*
X598553Y802405D02*
X607768D01*
X597187Y801505D02*
X607768D01*
X459869Y800605D02*
X607768D01*
X459310Y799705D02*
X607768D01*
X400106Y798805D02*
X607768D01*
X400106Y797905D02*
X607768D01*
X532750Y797005D02*
X607768D01*
X533412Y796105D02*
X607768D01*
X533601Y795205D02*
X607768D01*
X533439Y794305D02*
X607768D01*
X532825Y793405D02*
X607768D01*
X516870Y792505D02*
X607768D01*
X538132Y791605D02*
X607768D01*
X539605Y790705D02*
X607768D01*
X540034Y789805D02*
X607768D01*
X540077Y788905D02*
X607768D01*
X539756Y788005D02*
X607768D01*
X538789Y787105D02*
X607768D01*
X539123Y786205D02*
X607768D01*
X585089Y785305D02*
X607768D01*
X585652Y784405D02*
X607768D01*
X585783Y783505D02*
X607768D01*
X585563Y782605D02*
X607768D01*
X584840Y781705D02*
X607768D01*
X400106Y780805D02*
X607768D01*
X584825Y779905D02*
X607768D01*
X585558Y779005D02*
X607768D01*
X585783Y778105D02*
X607768D01*
X585656Y777205D02*
X607768D01*
X585101Y776305D02*
X607768D01*
X487416Y775405D02*
X607768D01*
X487486Y774505D02*
X607768D01*
X487198Y773605D02*
X607768D01*
X486321Y772705D02*
X607768D01*
X400106Y771805D02*
X607768D01*
X400106Y770905D02*
X607768D01*
X400106Y770005D02*
X607768D01*
X400106Y769105D02*
X607768D01*
X400106Y768205D02*
X607768D01*
X400106Y767305D02*
X607768D01*
X400106Y766405D02*
X607768D01*
X400106Y765505D02*
X607768D01*
X400106Y764605D02*
X607768D01*
X400106Y763705D02*
X607768D01*
X400106Y762805D02*
X607768D01*
X400106Y761905D02*
X607768D01*
X400106Y761005D02*
X607768D01*
X400106Y760105D02*
X607768D01*
X400106Y759205D02*
X607768D01*
X400106Y758305D02*
X607768D01*
X400106Y757405D02*
X607768D01*
X400106Y756505D02*
X607768D01*
X400106Y755605D02*
X607768D01*
X400106Y754705D02*
X607768D01*
X400106Y753805D02*
X607768D01*
X400106Y752905D02*
X607768D01*
X400106Y752005D02*
X607768D01*
X400106Y751105D02*
X607768D01*
X400106Y750205D02*
X607768D01*
X400106Y749305D02*
X607768D01*
X522454Y748405D02*
X607768D01*
X532783Y747505D02*
X607768D01*
X533424Y746605D02*
X607768D01*
X533601Y745705D02*
X607768D01*
X533427Y744805D02*
X607768D01*
X532793Y743905D02*
X607768D01*
X513428Y743005D02*
X607768D01*
X513909Y742105D02*
X607768D01*
X539410Y741205D02*
X607768D01*
X539969Y740305D02*
X607768D01*
X540098Y739405D02*
X607768D01*
X539876Y738505D02*
X607768D01*
X539148Y737605D02*
X607768D01*
X539123Y736705D02*
X607768D01*
X539867Y735805D02*
X607768D01*
X540097Y734905D02*
X607768D01*
X539975Y734005D02*
X607768D01*
X539428Y733105D02*
X607768D01*
X505495Y732205D02*
X607768D01*
X505251Y731305D02*
X607768D01*
X504476Y730405D02*
X607768D01*
X400106Y729505D02*
X607768D01*
X400106Y728605D02*
X607768D01*
X400106Y727705D02*
X607768D01*
X400106Y726805D02*
X607768D01*
X400106Y725905D02*
X607768D01*
X400106Y725005D02*
X607768D01*
X400106Y724105D02*
X607768D01*
X400106Y723205D02*
X607768D01*
X571976Y722305D02*
X607768D01*
X572816Y721405D02*
X607768D01*
X573089Y720505D02*
X607768D01*
X573006Y719605D02*
X607768D01*
X572519Y718705D02*
X607768D01*
X400106Y717805D02*
X607768D01*
X400106Y716905D02*
X607768D01*
X572361Y716005D02*
X607768D01*
X572951Y715105D02*
X607768D01*
X573100Y714205D02*
X607768D01*
X572898Y713305D02*
X607768D01*
X572209Y712405D02*
X607768D01*
X400106Y711505D02*
X607768D01*
X400106Y710605D02*
X607768D01*
X462696Y709705D02*
X607768D01*
X464244Y708805D02*
X607768D01*
X465051Y707905D02*
X607768D01*
X465539Y707005D02*
X607768D01*
X465810Y706105D02*
X607768D01*
X465901Y705205D02*
X607768D01*
X465821Y704305D02*
X607768D01*
X465561Y703405D02*
X607768D01*
X465088Y702505D02*
X607768D01*
X464306Y701605D02*
X607768D01*
X462843Y700705D02*
X607768D01*
X400106Y699805D02*
X607768D01*
X400106Y698905D02*
X607768D01*
X400106Y698005D02*
X607768D01*
X400106Y697105D02*
X607768D01*
X400106Y696205D02*
X607768D01*
X400106Y695305D02*
X607768D01*
X400106Y694405D02*
X607768D01*
X400106Y693505D02*
X607768D01*
X400106Y692605D02*
X607768D01*
X400106Y691705D02*
X607768D01*
X400106Y690805D02*
X607768D01*
X400106Y689905D02*
X607768D01*
X400106Y689005D02*
X607768D01*
X400106Y688105D02*
X607768D01*
X400106Y687205D02*
X607768D01*
X400106Y686305D02*
X607768D01*
X400106Y685405D02*
X607768D01*
X400106Y684505D02*
X607768D01*
X400106Y683605D02*
X607768D01*
X400106Y682705D02*
X607768D01*
X400106Y681805D02*
X607768D01*
X400106Y680905D02*
X607768D01*
X400106Y680005D02*
X607768D01*
X400106Y679105D02*
X607768D01*
X400106Y678205D02*
X607768D01*
X400106Y677305D02*
X607768D01*
X400106Y676405D02*
X607768D01*
X400106Y675505D02*
X607768D01*
X400106Y674605D02*
X607768D01*
X400106Y673705D02*
X607768D01*
X400106Y672805D02*
X607768D01*
X400106Y671905D02*
X607768D01*
X400106Y671005D02*
X607768D01*
X400106Y670105D02*
X607768D01*
X400106Y669205D02*
X607768D01*
X400106Y668305D02*
X607768D01*
X400106Y667405D02*
X607768D01*
X400106Y666505D02*
X607768D01*
X400106Y665605D02*
X607768D01*
X400106Y664705D02*
X607768D01*
X400106Y663805D02*
X607768D01*
X400106Y662905D02*
X607768D01*
X400106Y662005D02*
X607768D01*
X400106Y661105D02*
X607768D01*
X400106Y660205D02*
X607768D01*
X400106Y659305D02*
X607768D01*
X400106Y658405D02*
X607768D01*
X400106Y657505D02*
X607768D01*
X400106Y656605D02*
X607768D01*
X400106Y655705D02*
X607768D01*
X400106Y654805D02*
X607768D01*
X400106Y653905D02*
X607768D01*
X400106Y653005D02*
X607768D01*
X400106Y652105D02*
X607768D01*
X400106Y651205D02*
X607768D01*
X400106Y650305D02*
X607768D01*
X491582Y649405D02*
X607768D01*
X492542Y648505D02*
X607768D01*
X492859Y647605D02*
X607768D01*
X492815Y646705D02*
X607768D01*
X492382Y645805D02*
X607768D01*
X490881Y644905D02*
X607768D01*
X400106Y644005D02*
X607768D01*
X400106Y643105D02*
X607768D01*
X400106Y642205D02*
X607768D01*
X400106Y641305D02*
X607768D01*
X400106Y640405D02*
X607768D01*
X400106Y639505D02*
X607768D01*
X439259Y638605D02*
X607768D01*
X439851Y637705D02*
X607768D01*
X440000Y636805D02*
X607768D01*
X439798Y635905D02*
X607768D01*
X439112Y635005D02*
X607768D01*
X492032Y634105D02*
X607768D01*
X492694Y633205D02*
X607768D01*
X492882Y632305D02*
X607768D01*
X492721Y631405D02*
X607768D01*
X492107Y630505D02*
X607768D01*
X400106Y629605D02*
X607768D01*
X400106Y628705D02*
X607768D01*
X400106Y627805D02*
X607768D01*
X400106Y626905D02*
X607768D01*
X400106Y626005D02*
X607768D01*
X400106Y625105D02*
X607768D01*
X400106Y624205D02*
X607768D01*
X400106Y623305D02*
X607768D01*
X400106Y622405D02*
X607768D01*
X400106Y621505D02*
X607768D01*
X400106Y620605D02*
X607768D01*
X400106Y619705D02*
X607768D01*
X400106Y618805D02*
X607768D01*
X400106Y617905D02*
X607768D01*
X400106Y617005D02*
X607768D01*
X400106Y616105D02*
X607768D01*
X400106Y615205D02*
X607768D01*
X400106Y614305D02*
X607768D01*
X400106Y613405D02*
X607768D01*
X400106Y612505D02*
X607768D01*
X400106Y611605D02*
X607768D01*
X400106Y610705D02*
X607768D01*
X400106Y609805D02*
X607768D01*
X400106Y608905D02*
X607768D01*
X400106Y608005D02*
X607768D01*
X400106Y607105D02*
X607768D01*
X400106Y606205D02*
X607768D01*
X400106Y605305D02*
X607768D01*
X400106Y604405D02*
X607768D01*
X400106Y603505D02*
X607768D01*
X400106Y602605D02*
X607768D01*
X400106Y601705D02*
X607768D01*
X400106Y600805D02*
X607768D01*
X400106Y599905D02*
X607768D01*
X400106Y599005D02*
X607768D01*
X400106Y598105D02*
X607768D01*
X400106Y597205D02*
X607768D01*
X400106Y596305D02*
X607768D01*
X400106Y595405D02*
X607768D01*
X400106Y594505D02*
X607768D01*
X400106Y593605D02*
X607768D01*
X400106Y592705D02*
X607768D01*
X400106Y591805D02*
X607768D01*
X400106Y590905D02*
X607768D01*
X400106Y590005D02*
X607768D01*
X400106Y589105D02*
X607768D01*
X400106Y588205D02*
X607768D01*
X400106Y587305D02*
X607768D01*
X400106Y586405D02*
X607768D01*
X400106Y585505D02*
X607768D01*
X400106Y584605D02*
X607768D01*
X400106Y583705D02*
X607768D01*
X400106Y582805D02*
X607768D01*
X502859Y581905D02*
X607768D01*
X503386Y581005D02*
X607768D01*
X503495Y580105D02*
X607768D01*
X503251Y579205D02*
X607768D01*
X502476Y578305D02*
X607768D01*
X400106Y577405D02*
X607768D01*
X400106Y576505D02*
X607768D01*
X400106Y575605D02*
X607768D01*
X502623Y574705D02*
X607768D01*
X503367Y573805D02*
X607768D01*
X503597Y572905D02*
X607768D01*
X503475Y572005D02*
X607768D01*
X502928Y571105D02*
X607768D01*
X400106Y570205D02*
X607768D01*
X400106Y569305D02*
X607768D01*
X400106Y568405D02*
X607768D01*
X400106Y567505D02*
X607768D01*
X400106Y566605D02*
X607768D01*
X400106Y565705D02*
X607768D01*
X400106Y564805D02*
X607768D01*
X400106Y563905D02*
X607768D01*
X400106Y563005D02*
X607768D01*
X400106Y562105D02*
X607768D01*
X400106Y561205D02*
X607768D01*
X400106Y560305D02*
X607768D01*
X400106Y559405D02*
X607768D01*
X400106Y558505D02*
X607768D01*
X400106Y557605D02*
X607768D01*
X400106Y556705D02*
X607768D01*
X400106Y555805D02*
X607768D01*
X400106Y554905D02*
X607768D01*
X400106Y554005D02*
X607768D01*
X400106Y553105D02*
X607768D01*
X400106Y552205D02*
X607768D01*
X400106Y551305D02*
X607768D01*
X400106Y550405D02*
X607768D01*
X400106Y549505D02*
X607768D01*
X400106Y548605D02*
X607768D01*
X400106Y547705D02*
X607768D01*
X400106Y546805D02*
X607768D01*
X400106Y545905D02*
X607768D01*
X400106Y545005D02*
X607768D01*
X400106Y544105D02*
X607768D01*
X400106Y543205D02*
X607768D01*
X400106Y542305D02*
X607768D01*
X400106Y541405D02*
X607768D01*
X400106Y540505D02*
X607768D01*
X400106Y539605D02*
X607768D01*
X400106Y538705D02*
X607768D01*
X400106Y537805D02*
X607768D01*
X400106Y536905D02*
X607768D01*
X400106Y536005D02*
X607768D01*
X400106Y535105D02*
X607768D01*
X400106Y534205D02*
X607768D01*
X400106Y533305D02*
X607768D01*
X400106Y532405D02*
X607768D01*
X400106Y531505D02*
X607768D01*
X400106Y530605D02*
X607768D01*
X400106Y529705D02*
X607768D01*
X400106Y528805D02*
X607768D01*
X400106Y527905D02*
X607768D01*
X400106Y527005D02*
X607768D01*
X400106Y526105D02*
X607768D01*
X400106Y525205D02*
X607768D01*
X400106Y524305D02*
X607768D01*
X400106Y523405D02*
X607768D01*
X400106Y522505D02*
X607768D01*
X400106Y521605D02*
X607768D01*
X400106Y520705D02*
X607768D01*
X400106Y519805D02*
X607768D01*
X400106Y518905D02*
X607768D01*
X400106Y518005D02*
X607768D01*
X400106Y517105D02*
X607768D01*
X400106Y516205D02*
X607768D01*
X400106Y515305D02*
X607768D01*
X400106Y514405D02*
X607768D01*
X400106Y513505D02*
X607768D01*
X400106Y512605D02*
X607768D01*
X400106Y511705D02*
X607768D01*
X400106Y510805D02*
X607768D01*
X400106Y509905D02*
X607768D01*
X400106Y509005D02*
X607768D01*
X400106Y508105D02*
X607768D01*
X400106Y507205D02*
X607768D01*
X400106Y506305D02*
X607768D01*
X400106Y505405D02*
X607768D01*
X400106Y504505D02*
X607768D01*
X400106Y503605D02*
X607768D01*
X416244Y502705D02*
X607768D01*
X416781Y501805D02*
X607768D01*
X416896Y500905D02*
X607768D01*
X416659Y500005D02*
X607768D01*
X415900Y499105D02*
X607768D01*
X400106Y498205D02*
X607768D01*
X400106Y497305D02*
X607768D01*
X400106Y496405D02*
X607768D01*
X400106Y495505D02*
X607768D01*
X502150Y494605D02*
X607768D01*
X502812Y493705D02*
X607768D01*
X503001Y492805D02*
X607768D01*
X502839Y491905D02*
X607768D01*
X502225Y491005D02*
X607768D01*
X400106Y490105D02*
X607768D01*
X400106Y489205D02*
X607768D01*
X400106Y488305D02*
X607768D01*
X400106Y487405D02*
X607768D01*
X400106Y486505D02*
X607768D01*
X400106Y485605D02*
X607768D01*
X400106Y484705D02*
X607768D01*
X400106Y483805D02*
X607768D01*
X400106Y482905D02*
X607768D01*
X400106Y482005D02*
X607768D01*
X400106Y481105D02*
X607768D01*
X400106Y480205D02*
X607768D01*
X400106Y479305D02*
X607768D01*
X400106Y478405D02*
X607768D01*
X426372Y477505D02*
X607768D01*
X427647Y476605D02*
X607768D01*
X428047Y475705D02*
X607768D01*
X428068Y474805D02*
X607768D01*
X427721Y473905D02*
X607768D01*
X426670Y473005D02*
X607768D01*
X427647Y472105D02*
X607768D01*
X428047Y471205D02*
X607768D01*
X428068Y470305D02*
X607768D01*
X427721Y469405D02*
X607768D01*
X426670Y468505D02*
X607768D01*
X427696Y467605D02*
X607768D01*
X428061Y466705D02*
X607768D01*
X428055Y465805D02*
X607768D01*
X427674Y464905D02*
X607768D01*
X426490Y464005D02*
X607768D01*
X400106Y463105D02*
X607768D01*
X400106Y462205D02*
X607768D01*
X400106Y461305D02*
X607768D01*
X426150Y460405D02*
X607768D01*
X427216Y459505D02*
X607768D01*
X427567Y458605D02*
X607768D01*
X427549Y457705D02*
X607768D01*
X427153Y456805D02*
X607768D01*
X425900Y455905D02*
X607768D01*
X400106Y455005D02*
X607768D01*
X426662Y454105D02*
X607768D01*
X427381Y453205D02*
X607768D01*
X427599Y452305D02*
X607768D01*
X427465Y451405D02*
X607768D01*
X431872Y450505D02*
X607768D01*
X433147Y449605D02*
X607768D01*
X433547Y448705D02*
X607768D01*
X433568Y447805D02*
X607768D01*
X433221Y446905D02*
X607768D01*
X462246Y446005D02*
X607768D01*
X463751Y445105D02*
X607768D01*
X464435Y444205D02*
X607768D01*
X464787Y443305D02*
X607768D01*
X464901Y442405D02*
X607768D01*
X464798Y441505D02*
X607768D01*
X464460Y440605D02*
X607768D01*
X463798Y439705D02*
X607768D01*
X462384Y438805D02*
X607768D01*
X426150Y437905D02*
X607768D01*
X427216Y437005D02*
X607768D01*
X427567Y436105D02*
X607768D01*
X427549Y435205D02*
X607768D01*
X427153Y434305D02*
X607768D01*
X425900Y433405D02*
X607768D01*
X400106Y432505D02*
X607768D01*
X400106Y431605D02*
X607768D01*
X400106Y430705D02*
X607768D01*
X400106Y429805D02*
X607768D01*
X400106Y428905D02*
X607768D01*
X400106Y428005D02*
X607768D01*
X400106Y427105D02*
X607768D01*
X400106Y426205D02*
X607768D01*
X400106Y425305D02*
X607768D01*
X400106Y424405D02*
X607768D01*
X400106Y423505D02*
X607768D01*
X400106Y422605D02*
X607768D01*
X400106Y421705D02*
X607768D01*
X400106Y420805D02*
X607768D01*
X400106Y419905D02*
X607768D01*
X597108Y419005D02*
X607768D01*
X598509Y418105D02*
X607768D01*
X599372Y417205D02*
X607768D01*
X599958Y416305D02*
X607768D01*
X600350Y415405D02*
X607768D01*
X600586Y414505D02*
X607768D01*
X600684Y413605D02*
X607768D01*
X600651Y412705D02*
X607768D01*
X600483Y411805D02*
X607768D01*
X600170Y410905D02*
X607768D01*
X599685Y410005D02*
X607768D01*
X598973Y409105D02*
X607768D01*
X597894Y408205D02*
X607768D01*
X595698Y407305D02*
X607768D01*
X400106Y406405D02*
X607768D01*
X400106Y405505D02*
X607768D01*
X400106Y404605D02*
X607768D01*
X400106Y403705D02*
X607768D01*
X400106Y402805D02*
X607768D01*
X400106Y401905D02*
X607768D01*
X400106Y401005D02*
X607768D01*
X458579Y813205D02*
X593485D01*
X414596Y407305D02*
X593278D01*
X416006Y419005D02*
X591868D01*
X459998Y801505D02*
X591789D01*
X459352Y812305D02*
X591140D01*
X416792Y408205D02*
X591082D01*
X417407Y418105D02*
X590467D01*
X459776Y802405D02*
X590423D01*
X460765Y811405D02*
X590039D01*
X417871Y409105D02*
X590003D01*
X418270Y417205D02*
X589604D01*
X459047Y803305D02*
X589575D01*
X461131Y810505D02*
X589316D01*
X418583Y410005D02*
X589291D01*
X418856Y416305D02*
X589018D01*
X418875Y804205D02*
X588999D01*
X461089Y809605D02*
X588823D01*
X419068Y410905D02*
X588806D01*
X419248Y415405D02*
X588626D01*
X419261Y805105D02*
X588613D01*
X460610Y808705D02*
X588503D01*
X419381Y411805D02*
X588493D01*
X419484Y414505D02*
X588390D01*
X419491Y806005D02*
X588383D01*
X419544Y807805D02*
X588330D01*
X419548Y412705D02*
X588326D01*
X419582Y413605D02*
X588292D01*
X419583Y806905D02*
X588291D01*
X579746Y779905D02*
X581947D01*
X579761Y781705D02*
X581931D01*
X580010Y785305D02*
X581683D01*
X580022Y776305D02*
X581671D01*
X580479Y779005D02*
X581214D01*
X580485Y782605D02*
X581208D01*
X580573Y784405D02*
X581120D01*
X580577Y777205D02*
X581116D01*
X580704Y778105D02*
X580989D01*
X580705Y783505D02*
X580988D01*
X400106Y779905D02*
X576868D01*
X400106Y781705D02*
X576853D01*
X539867Y785305D02*
X576604D01*
X486947Y776305D02*
X576592D01*
X400106Y779005D02*
X576135D01*
X539428Y782605D02*
X576130D01*
X540097Y784405D02*
X576041D01*
X400106Y777205D02*
X576037D01*
X400106Y778105D02*
X575910D01*
X539975Y783505D02*
X575910D01*
X566476Y722305D02*
X569426D01*
X566709Y712405D02*
X569192D01*
X566861Y716005D02*
X569041D01*
X567019Y718705D02*
X568883D01*
X567316Y721405D02*
X568585D01*
X567398Y713305D02*
X568504D01*
X567451Y715105D02*
X568450D01*
X567506Y719605D02*
X568395D01*
X567589Y720505D02*
X568312D01*
X567600Y714205D02*
X568302D01*
X400106Y722305D02*
X563926D01*
X400106Y712405D02*
X563692D01*
X400106Y716005D02*
X563541D01*
X400106Y718705D02*
X563383D01*
X400106Y721405D02*
X563085D01*
X400106Y713305D02*
X563004D01*
X400106Y715105D02*
X562950D01*
X400106Y719605D02*
X562895D01*
X400106Y720505D02*
X562812D01*
X400106Y714205D02*
X562802D01*
X533263Y791605D02*
X537269D01*
X533733Y787105D02*
X536613D01*
X534123Y786205D02*
X536279D01*
X534123Y736705D02*
X536279D01*
X534148Y737605D02*
X536254D01*
X534410Y741205D02*
X535992D01*
X534428Y782605D02*
X535974D01*
X534428Y733105D02*
X535974D01*
X534626Y790705D02*
X535797D01*
X534739Y788005D02*
X535645D01*
X534867Y785305D02*
X535535D01*
X534867Y735805D02*
X535535D01*
X534876Y738505D02*
X535526D01*
X534969Y740305D02*
X535433D01*
X534975Y783505D02*
X535427D01*
X534975Y734005D02*
X535427D01*
X535041Y789805D02*
X535367D01*
X535073Y788905D02*
X535325D01*
X535097Y784405D02*
X535304D01*
X535097Y734905D02*
X535304D01*
X535098Y739405D02*
X535304D01*
X516998Y791605D02*
X532139D01*
X400106Y787105D02*
X531668D01*
X400106Y786205D02*
X531279D01*
X501251Y736705D02*
X531279D01*
X501495Y737605D02*
X531254D01*
X513988Y741205D02*
X530992D01*
X400106Y782605D02*
X530974D01*
X505386Y733105D02*
X530974D01*
X516774Y790705D02*
X530776D01*
X400106Y788005D02*
X530662D01*
X400106Y785305D02*
X530535D01*
X500476Y735805D02*
X530535D01*
X501386Y738505D02*
X530526D01*
X513711Y740305D02*
X530433D01*
X400106Y783505D02*
X530427D01*
X504859Y734005D02*
X530427D01*
X516042Y789805D02*
X530361D01*
X400106Y788905D02*
X530329D01*
X400106Y784405D02*
X530304D01*
X400106Y734905D02*
X530304D01*
X512859Y739405D02*
X530304D01*
X522955Y797005D02*
X529652D01*
X523296Y747505D02*
X529618D01*
X400106Y743905D02*
X529609D01*
X522631Y793405D02*
X529576D01*
X523497Y796105D02*
X528990D01*
X523570Y746605D02*
X528978D01*
X523001Y744805D02*
X528974D01*
X523383Y794305D02*
X528963D01*
X523616Y795205D02*
X528801D01*
X523487Y745705D02*
X528801D01*
X400106Y748405D02*
X519909D01*
X516314Y793405D02*
X519810D01*
X400106Y797005D02*
X519486D01*
X400106Y744805D02*
X519362D01*
X400106Y747505D02*
X519066D01*
X400106Y794305D02*
X519058D01*
X400106Y796105D02*
X518943D01*
X400106Y745705D02*
X518875D01*
X400106Y795205D02*
X518825D01*
X400106Y746605D02*
X518793D01*
X400106Y789805D02*
X513160D01*
X400106Y793405D02*
X512887D01*
X400106Y790705D02*
X512428D01*
X400106Y792505D02*
X512331D01*
X400106Y791605D02*
X512204D01*
X500859Y739405D02*
X510343D01*
X400106Y743005D02*
X509774D01*
X400106Y740305D02*
X509491D01*
X400106Y742105D02*
X509292D01*
X400106Y741205D02*
X509213D01*
X400106Y730405D02*
X501725D01*
X400106Y734005D02*
X501342D01*
X400106Y731305D02*
X500951D01*
X400106Y733105D02*
X500816D01*
X400106Y732205D02*
X500707D01*
X400106Y574705D02*
X499779D01*
X400106Y578305D02*
X499725D01*
X400106Y571105D02*
X499474D01*
X400106Y581905D02*
X499342D01*
X400106Y494605D02*
X499052D01*
X400106Y573805D02*
X499035D01*
X400106Y491005D02*
X498976D01*
X400106Y579205D02*
X498951D01*
X400106Y572005D02*
X498927D01*
X400106Y581005D02*
X498816D01*
X400106Y572905D02*
X498804D01*
X400106Y580105D02*
X498707D01*
X400106Y493705D02*
X498390D01*
X400106Y491905D02*
X498363D01*
X400106Y492805D02*
X498201D01*
X480445Y735805D02*
X497725D01*
X480828Y739405D02*
X497342D01*
X481219Y736705D02*
X496951D01*
X481355Y738505D02*
X496816D01*
X481464Y737605D02*
X496707D01*
X400106Y644905D02*
X490084D01*
X400106Y649405D02*
X489383D01*
X400106Y634105D02*
X488934D01*
X400106Y630505D02*
X488858D01*
X400106Y645805D02*
X488583D01*
X400106Y648505D02*
X488424D01*
X400106Y633205D02*
X488272D01*
X400106Y631405D02*
X488245D01*
X400106Y646705D02*
X488151D01*
X400106Y647605D02*
X488106D01*
X400106Y632305D02*
X488083D01*
X400106Y772705D02*
X483881D01*
X400106Y776305D02*
X483254D01*
X400106Y773605D02*
X483003D01*
X400106Y775405D02*
X482786D01*
X400106Y774505D02*
X482716D01*
X400106Y735805D02*
X477694D01*
X400106Y739405D02*
X477311D01*
X400106Y736705D02*
X476919D01*
X400106Y738505D02*
X476784D01*
X400106Y737605D02*
X476675D01*
X432170Y446005D02*
X459956D01*
X425343Y438805D02*
X459817D01*
X400106Y709705D02*
X459506D01*
X400106Y700705D02*
X459359D01*
X458573Y812305D02*
X458598D01*
X427336Y445105D02*
X458451D01*
X427078Y439705D02*
X458403D01*
X400106Y708805D02*
X457957D01*
X400106Y701605D02*
X457895D01*
X426534Y444205D02*
X457767D01*
X427526Y440605D02*
X457742D01*
X426355Y443305D02*
X457415D01*
X427581Y441505D02*
X457403D01*
X444862Y808705D02*
X457340D01*
X427277Y442405D02*
X457301D01*
X400106Y707905D02*
X457151D01*
X400106Y702505D02*
X457114D01*
X445341Y809605D02*
X456861D01*
X400106Y707005D02*
X456662D01*
X400106Y703405D02*
X456640D01*
X400106Y706105D02*
X456391D01*
X400106Y704305D02*
X456381D01*
X400106Y705205D02*
X456301D01*
X418299Y803305D02*
X456154D01*
X400106Y799705D02*
X455892D01*
X445383Y810505D02*
X455430D01*
X417451Y802405D02*
X455426D01*
X400106Y815005D02*
X455340D01*
X400106Y800605D02*
X455333D01*
X416085Y801505D02*
X455204D01*
X445017Y811405D02*
X454246D01*
X400106Y814105D02*
X454223D01*
X443604Y812305D02*
X453865D01*
X414389Y813205D02*
X453858D01*
X416734Y812305D02*
X442849D01*
X419371Y808705D02*
X441592D01*
X417835Y811405D02*
X441437D01*
X419051Y809605D02*
X441113D01*
X418558Y810505D02*
X441071D01*
X400106Y635005D02*
X436090D01*
X400106Y638605D02*
X435943D01*
X400106Y635905D02*
X435403D01*
X400106Y637705D02*
X435351D01*
X400106Y636805D02*
X435202D01*
X426899Y450505D02*
X430529D01*
X427593Y446005D02*
X430232D01*
X400106Y449605D02*
X429254D01*
X427495Y446905D02*
X429181D01*
X400106Y448705D02*
X428854D01*
X426986Y447805D02*
X428834D01*
X400106Y438805D02*
X425059D01*
X400106Y477505D02*
X425029D01*
X400106Y464005D02*
X424912D01*
X400106Y473005D02*
X424732D01*
X400106Y468505D02*
X424732D01*
X400106Y455905D02*
X424501D01*
X400106Y433405D02*
X424501D01*
X400106Y460405D02*
X424251D01*
X400106Y437905D02*
X424251D01*
X400106Y443305D02*
X424046D01*
X400106Y444205D02*
X423868D01*
X400106Y476605D02*
X423754D01*
X400106Y472105D02*
X423754D01*
X400106Y454105D02*
X423740D01*
X400106Y464905D02*
X423728D01*
X400106Y467605D02*
X423705D01*
X400106Y473905D02*
X423681D01*
X400106Y469405D02*
X423681D01*
X400106Y450505D02*
X423502D01*
X400106Y447805D02*
X423416D01*
X400106Y475705D02*
X423354D01*
X400106Y471205D02*
X423354D01*
X400106Y465805D02*
X423347D01*
X400106Y466705D02*
X423340D01*
X400106Y474805D02*
X423334D01*
X400106Y470305D02*
X423334D01*
X400106Y439705D02*
X423324D01*
X400106Y456805D02*
X423248D01*
X400106Y434305D02*
X423248D01*
X400106Y459505D02*
X423186D01*
X400106Y437005D02*
X423186D01*
X400106Y442405D02*
X423125D01*
X400106Y445105D02*
X423066D01*
X400106Y453205D02*
X423021D01*
X400106Y451405D02*
X422937D01*
X400106Y446905D02*
X422906D01*
X400106Y440605D02*
X422876D01*
X400106Y457705D02*
X422853D01*
X400106Y435205D02*
X422853D01*
X400106Y458605D02*
X422835D01*
X400106Y436105D02*
X422835D01*
X400106Y441505D02*
X422820D01*
X400106Y446005D02*
X422809D01*
X400106Y452305D02*
X422803D01*
X400106Y499105D02*
X413102D01*
X400106Y502705D02*
X412758D01*
X400106Y813205D02*
X412383D01*
X400106Y500005D02*
X412343D01*
X400106Y501805D02*
X412221D01*
X400106Y407305D02*
X412176D01*
X400106Y500905D02*
X412105D01*
X400106Y419005D02*
X410766D01*
X400106Y801505D02*
X410687D01*
X400106Y812305D02*
X410038D01*
X400106Y408205D02*
X409980D01*
X400106Y418105D02*
X409365D01*
X400106Y802405D02*
X409321D01*
X400106Y811405D02*
X408937D01*
X400106Y409105D02*
X408901D01*
X400106Y417205D02*
X408502D01*
X400106Y803305D02*
X408473D01*
X400106Y810505D02*
X408213D01*
X400106Y410005D02*
X408189D01*
X400106Y416305D02*
X407916D01*
X400106Y804205D02*
X407896D01*
X400106Y809605D02*
X407720D01*
X400106Y410905D02*
X407704D01*
X400106Y415405D02*
X407524D01*
X400106Y805105D02*
X407511D01*
X400106Y808705D02*
X407401D01*
X400106Y411805D02*
X407391D01*
X400106Y414505D02*
X407288D01*
X400106Y806005D02*
X407281D01*
X400106Y807805D02*
X407228D01*
X400106Y412705D02*
X407223D01*
X400106Y413605D02*
X407190D01*
X400106Y806905D02*
X407188D01*
X393701Y826772D02*
X614173D01*
Y393701*
X393701*
Y826772*
G54D119*
X551201Y807772D03*
X556201Y803272D03*
X551201Y798772D03*
Y803272D03*
X556201Y798772D03*
Y807772D03*
X551201Y749272D03*
X556201D03*
X551201Y753772D03*
X556201D03*
X551201Y758272D03*
X556201D03*
G74*
X0Y0D02*
M02*
