*
*
G04 PADS 9.5 Build Number: 522968 generated Gerber (RS-274-X) file*
G04 PC Version=2.1*
*
%IN "Pi-Program-Iss1.2.pcb"*%
*
%MOIN*%
*
%FSLAX35Y35*%
*
*
*
*
G04 PC Standard Apertures*
*
*
G04 Thermal Relief Aperture macro.*
%AMTER*
1,1,$1,0,0*
1,0,$1-$2,0,0*
21,0,$3,$4,0,0,45*
21,0,$3,$4,0,0,135*
%
*
*
G04 Annular Aperture macro.*
%AMANN*
1,1,$1,0,0*
1,0,$2,0,0*
%
*
*
G04 Odd Aperture macro.*
%AMODD*
1,1,$1,0,0*
1,0,$1-0.005,0,0*
%
*
*
G04 PC Custom Aperture Macros*
*
*
*
*
*
*
G04 PC Aperture Table*
*
%ADD010C,0.001*%
%ADD021C,0.008*%
%ADD026C,0.024*%
%ADD027C,0.01*%
*
*
*
*
G04 PC Circuitry*
G04 Layer Name Pi-Program-Iss1.2.pcb - circuitry*
%LPD*%
*
*
G04 PC Custom Flashes*
G04 Layer Name Pi-Program-Iss1.2.pcb - flashes*
%LPD*%
*
*
G04 PC Circuitry*
G04 Layer Name Pi-Program-Iss1.2.pcb - circuitry*
%LPD*%
*
G54D10*
G54D21*
G01X508701Y739701D02*
Y745701D01*
X518701Y739701D02*
Y745701D01*
G54D26*
X425201Y435701D03*
Y446201D03*
Y458201D03*
Y452201D03*
Y441201D03*
X425701Y466272D03*
X414501Y501055D03*
X425701Y475201D03*
Y470701D03*
X500601Y492772D03*
X501201Y572772D03*
X501101Y580272D03*
X437601Y636870D03*
X490483Y632272D03*
Y647272D03*
X508701Y739701D03*
X518701D03*
X521701Y722201D03*
X518701Y733201D03*
X501101Y733372D03*
X508701Y733201D03*
X510701Y722201D03*
X516201D03*
X497101Y738772D03*
X523701Y733701D03*
X527701Y722201D03*
X565201Y733701D03*
Y715701D03*
Y720701D03*
X570201Y715701D03*
X575201D03*
X570201Y720701D03*
X575201D03*
X570201Y733701D03*
X580201D03*
X485101Y774772D03*
X532701Y784272D03*
X537701D03*
X583386Y777984D03*
X578307D03*
X583386Y783614D03*
X578307D03*
X457601Y801390D03*
X456219Y812772D03*
X514601Y791724D03*
X521220Y795346D03*
X531201Y795172D03*
X537701Y789244D03*
X532701Y789272D03*
G54D27*
X600688Y413386D02*
G75*
G03X600688I-6200J0D01*
G01X582601Y739701D02*
G03X582601I-2400J0D01*
G01X572601D02*
G03X572601I-2400J0D01*
G01X567601D02*
G03X567601I-2400J0D01*
G01X499083Y632272D02*
G03X499083I-2400J0D01*
G01Y647272D02*
G03X499083I-2400J0D01*
G01X499101Y658272D02*
G03X499101I-2400J0D01*
G01Y671272D02*
G03X499101I-2400J0D01*
G01X487101Y656087D02*
G03X487101I-2400J0D01*
G01X481469Y737772D02*
G03X481469I-2400J0D01*
G01X473581Y633260D02*
G03X473581I-2400J0D01*
G01Y661685D02*
G03X473581I-2400J0D01*
G01Y668772D02*
G03X473581I-2400J0D01*
G01Y675858D02*
G03X473581I-2400J0D01*
G01Y682945D02*
G03X473581I-2400J0D01*
G01X473601Y689772D02*
G03X473601I-2400J0D01*
G01X465901Y705178D02*
G03X465901I-4800J0D01*
G01X453501Y499863D02*
G03X453501I-2400J0D01*
G01Y506949D02*
G03X453501I-2400J0D01*
G01Y514036D02*
G03X453501I-2400J0D01*
G01Y521122D02*
G03X453501I-2400J0D01*
G01Y528209D02*
G03X453501I-2400J0D01*
G01Y535296D02*
G03X453501I-2400J0D01*
G01Y542382D02*
G03X453501I-2400J0D01*
G01Y549469D02*
G03X453501I-2400J0D01*
G01Y556555D02*
G03X453501I-2400J0D01*
G01Y563642D02*
G03X453501I-2400J0D01*
G01Y570729D02*
G03X453501I-2400J0D01*
G01Y577815D02*
G03X453501I-2400J0D01*
G01Y584902D02*
G03X453501I-2400J0D01*
G01Y591989D02*
G03X453501I-2400J0D01*
G01Y599075D02*
G03X453501I-2400J0D01*
G01Y606162D02*
G03X453501I-2400J0D01*
G01Y613248D02*
G03X453501I-2400J0D01*
G01Y620335D02*
G03X453501I-2400J0D01*
G01Y627422D02*
G03X453501I-2400J0D01*
G01Y634508D02*
G03X453501I-2400J0D01*
G01X453502Y662866D02*
G03X453502I-2400J0D01*
G01Y669953D02*
G03X453502I-2400J0D01*
G01Y677039D02*
G03X453502I-2400J0D01*
G01Y684126D02*
G03X453502I-2400J0D01*
G01Y691213D02*
G03X453502I-2400J0D01*
G01Y698299D02*
G03X453502I-2400J0D01*
G01X441501Y492772D02*
G03X441501I-2400J0D01*
G01X440501Y655772D02*
G03X440501I-2400J0D01*
G01X414132Y437551D02*
G03X414132I-2400J0D01*
G01Y442591D02*
G03X414132I-2400J0D01*
G01Y448299D02*
G03X414132I-2400J0D01*
G01X414172Y454244D02*
G03X414172I-2400J0D01*
G01Y460110D02*
G03X414172I-2400J0D01*
G01X419586Y413386D02*
G03X419586I-6200J0D01*
G01X420432Y448299D02*
G03X420432I-2401J0D01*
G01X503001Y487272D02*
G03X503001I-2400J0D01*
G01X473581Y491606D02*
G03X473581I-2400J0D01*
G01Y505780D02*
G03X473581I-2400J0D01*
G01Y512866D02*
G03X473581I-2400J0D01*
G01Y519953D02*
G03X473581I-2400J0D01*
G01X533601Y801372D02*
G03X533601I-2400J0D01*
G01X526101Y739701D02*
G03X526101I-2400J0D01*
G01X523424Y801528D02*
G03X523424I-2400J0D01*
G01X511001Y791803D02*
G03X511001I-2400J0D01*
G01X503501Y727172D02*
G03X503501I-2400J0D01*
G01X466101Y802772D02*
G03X466101I-2400J0D01*
G01X461159Y810154D02*
G03X461159I-2184J0D01*
G01X448383Y802272D02*
G03X448383I-2400J0D01*
G01X440706Y802772D02*
G03X440706I-2400J0D01*
G01X419586Y807087D02*
G03X419586I-6200J0D01*
G01X600688D02*
G03X600688I-6200J0D01*
G01X485501Y453800D02*
G03X485501I-2400J0D01*
G01X486001Y463248D02*
G03X486001I-2400J0D01*
G01Y470335D02*
G03X486001I-2400J0D01*
G01X453601Y472516D02*
G03X453601I-2400J0D01*
G01X503001Y586272D02*
G03X503001I-2400J0D01*
G01Y591772D02*
G03X503001I-2400J0D01*
G01X574601Y812701D02*
G03X574601I-2400J0D01*
G01X555101Y789272D02*
G03X555101I-2400J0D01*
G01X606101Y403772D02*
Y439772D01*
X463863*
X458339D02*
G03X463863I2762J2610D01*
G01X458339D02*
X453101D01*
Y453654*
Y456307D02*
G03Y453654I-2000J-1326D01*
G01Y456307D02*
Y460772D01*
X418201*
Y484272*
X437227*
X440974D02*
G03X437227I-1873J1500D01*
G01X440974D02*
X468794D01*
X473568D02*
G03X468794I-2387J248D01*
G01X473568D02*
X506101D01*
Y522772*
X467601*
Y627772*
X469324*
X473039D02*
G03X469324I-1858J-1520D01*
G01X473039D02*
X514601D01*
Y674272*
X584201*
Y768772*
X548101*
Y765772*
Y759630D02*
G03Y765772I-900J3071D01*
G01Y759630D02*
Y754272D01*
Y748130D02*
G03Y754272I-900J3071D01*
G01Y748130D02*
Y713701D01*
X490101*
Y725945*
Y728598D02*
G03Y725945I2000J-1326D01*
G01Y728598D02*
Y779272D01*
X402101*
Y403772*
X606101*
X544601Y764566D02*
Y818272D01*
X402601*
Y782272*
X493601*
Y729145*
Y725398D02*
G03Y729145I-1500J1874D01*
G01Y725398D02*
Y716701D01*
X544601*
Y749335*
X544451Y749564D02*
G03X544601Y749335I2750J1637D01*
G01X544451Y752837D02*
G03Y749564I-2750J-1636D01*
G01X544601Y753066D02*
G03X544451Y752837I2600J-1865D01*
G01X544601Y753066D02*
Y760835D01*
X544430Y761100D02*
G03X544601Y760835I2771J1601D01*
G01X544472Y764372D02*
G03X544430Y761100I-2771J-1600D01*
G01X544601Y764566D02*
G03X544472Y764372I2600J-1865D01*
G01X606701Y444772D02*
Y818272D01*
X548101*
Y808565*
X553701Y809769D02*
G03X548101Y808565I-2500J-1997D01*
G01X558476Y805522D02*
G03X553701Y809769I-2275J2250D01*
G01X558476Y801022D02*
G03Y805522I-2275J2250D01*
G01X553701Y796774D02*
G03X558476Y801022I2500J1998D01*
G01X548101Y797978D02*
G03X553701Y796774I3100J794D01*
G01X548101Y797978D02*
Y773272D01*
X588201*
Y670272*
X518701*
Y624272*
X474101*
Y526772*
X510101*
Y480772*
X422701*
Y463772*
X448792*
X453409D02*
G03X448792I-2308J657D01*
G01X453409D02*
X456601D01*
Y444772*
X458146*
X464055D02*
G03X458146I-2954J-2390D01*
G01X464055D02*
X606701D01*
X600688Y413386D02*
G03X600688I-6200J0D01*
G01X582601Y739701D02*
G03X582601I-2400J0D01*
G01X572601D02*
G03X572601I-2400J0D01*
G01X567601D02*
G03X567601I-2400J0D01*
G01X499083Y632272D02*
G03X499083I-2400J0D01*
G01Y647272D02*
G03X499083I-2400J0D01*
G01X499101Y658272D02*
G03X499101I-2400J0D01*
G01Y671272D02*
G03X499101I-2400J0D01*
G01X487101Y656087D02*
G03X487101I-2400J0D01*
G01X481469Y737772D02*
G03X481469I-2400J0D01*
G01X473581Y633260D02*
G03X473581I-2400J0D01*
G01Y661685D02*
G03X473581I-2400J0D01*
G01Y668772D02*
G03X473581I-2400J0D01*
G01Y675858D02*
G03X473581I-2400J0D01*
G01Y682945D02*
G03X473581I-2400J0D01*
G01X473601Y689772D02*
G03X473601I-2400J0D01*
G01X465901Y705178D02*
G03X465901I-4800J0D01*
G01X453501Y499863D02*
G03X453501I-2400J0D01*
G01Y506949D02*
G03X453501I-2400J0D01*
G01Y514036D02*
G03X453501I-2400J0D01*
G01Y521122D02*
G03X453501I-2400J0D01*
G01Y528209D02*
G03X453501I-2400J0D01*
G01Y535296D02*
G03X453501I-2400J0D01*
G01Y542382D02*
G03X453501I-2400J0D01*
G01Y549469D02*
G03X453501I-2400J0D01*
G01Y556555D02*
G03X453501I-2400J0D01*
G01Y563642D02*
G03X453501I-2400J0D01*
G01Y570729D02*
G03X453501I-2400J0D01*
G01Y577815D02*
G03X453501I-2400J0D01*
G01Y584902D02*
G03X453501I-2400J0D01*
G01Y591989D02*
G03X453501I-2400J0D01*
G01Y599075D02*
G03X453501I-2400J0D01*
G01Y606162D02*
G03X453501I-2400J0D01*
G01Y613248D02*
G03X453501I-2400J0D01*
G01Y620335D02*
G03X453501I-2400J0D01*
G01Y627422D02*
G03X453501I-2400J0D01*
G01Y634508D02*
G03X453501I-2400J0D01*
G01X453502Y662866D02*
G03X453502I-2400J0D01*
G01Y669953D02*
G03X453502I-2400J0D01*
G01Y677039D02*
G03X453502I-2400J0D01*
G01Y684126D02*
G03X453502I-2400J0D01*
G01Y691213D02*
G03X453502I-2400J0D01*
G01Y698299D02*
G03X453502I-2400J0D01*
G01X441501Y492772D02*
G03X441501I-2400J0D01*
G01X440501Y655772D02*
G03X440501I-2400J0D01*
G01X414132Y437551D02*
G03X414132I-2400J0D01*
G01Y442591D02*
G03X414132I-2400J0D01*
G01Y448299D02*
G03X414132I-2400J0D01*
G01X414172Y454244D02*
G03X414172I-2400J0D01*
G01Y460110D02*
G03X414172I-2400J0D01*
G01X412955Y468203D02*
G03X412997Y472308I-1223J2065D01*
G01X410391Y468278D02*
G03X412955Y468203I1223J-2065D01*
G01X410429Y472283D02*
G03X410391Y468278I1303J-2015D01*
G01X412997Y472308D02*
G03X410429Y472283I-1304J2015D01*
G01X419586Y413386D02*
G03X419586I-6200J0D01*
G01X420432Y448299D02*
G03X420432I-2401J0D01*
G01X503001Y487272D02*
G03X503001I-2400J0D01*
G01X473581Y491606D02*
G03X473581I-2400J0D01*
G01Y505780D02*
G03X473581I-2400J0D01*
G01Y512866D02*
G03X473581I-2400J0D01*
G01Y519953D02*
G03X473581I-2400J0D01*
G01X555476Y756951D02*
G03X550925I-2275J2250D01*
X555476I2276J-2250*
G01X537976D02*
G03X533425I-2275J2250D01*
X537976I2276J-2250*
G01X533601Y801372D02*
G03X533601I-2400J0D01*
G01X526101Y739701D02*
G03X526101I-2400J0D01*
G01X517101Y741490D02*
G03X520301I1600J-1789D01*
G01X517101D02*
Y745701D01*
X520301D02*
G03X517101I-1600J-0D01*
G01X520301D02*
Y741490D01*
X523424Y801528D02*
G03X523424I-2400J0D01*
G01X507101Y741490D02*
G03X510301I1600J-1789D01*
G01X507101D02*
Y745701D01*
X510301D02*
G03X507101I-1600J-0D01*
G01X510301D02*
Y741490D01*
X511001Y791803D02*
G03X511001I-2400J0D01*
G01X503501Y727172D02*
G03X503501I-2400J0D01*
G01X466101Y802772D02*
G03X466101I-2400J0D01*
G01X461159Y810154D02*
G03X461159I-2184J0D01*
G01X448383Y802272D02*
G03X448383I-2400J0D01*
G01X445391Y810446D02*
G03X443629Y812300I592J2326D01*
X445391Y810446I-402J-2146*
G01X440706Y802772D02*
G03X440706I-2400J0D01*
G01X419586Y807087D02*
G03X419586I-6200J0D01*
G01X600688D02*
G03X600688I-6200J0D01*
G01X485501Y453800D02*
G03X485501I-2400J0D01*
G01X486001Y463248D02*
G03X486001I-2400J0D01*
G01Y470335D02*
G03X486001I-2400J0D01*
G01X453601Y472516D02*
G03X453601I-2400J0D01*
G01X503001Y586272D02*
G03X503001I-2400J0D01*
G01Y591772D02*
G03X503001I-2400J0D01*
G01X574601Y812701D02*
G03X574601I-2400J0D01*
G01X555101Y789272D02*
G03X555101I-2400J0D01*
G01X463861Y439770D02*
X606101D01*
X462554Y438870D02*
X606101D01*
X414095Y437970D02*
X606101D01*
X414084Y437070D02*
X606101D01*
X413695Y436170D02*
X606101D01*
X412479Y435270D02*
X606101D01*
X402101Y434370D02*
X606101D01*
X402101Y433470D02*
X606101D01*
X402101Y432570D02*
X606101D01*
X402101Y431670D02*
X606101D01*
X402101Y430770D02*
X606101D01*
X402101Y429870D02*
X606101D01*
X402101Y428970D02*
X606101D01*
X402101Y428070D02*
X606101D01*
X402101Y427170D02*
X606101D01*
X402101Y426270D02*
X606101D01*
X402101Y425370D02*
X606101D01*
X402101Y424470D02*
X606101D01*
X402101Y423570D02*
X606101D01*
X402101Y422670D02*
X606101D01*
X402101Y421770D02*
X606101D01*
X402101Y420870D02*
X606101D01*
X402101Y419970D02*
X606101D01*
X596963Y419070D02*
X606101D01*
X598431Y418170D02*
X606101D01*
X599320Y417270D02*
X606101D01*
X599923Y416370D02*
X606101D01*
X600327Y415470D02*
X606101D01*
X600574Y414570D02*
X606101D01*
X600682Y413670D02*
X606101D01*
X600658Y412770D02*
X606101D01*
X600500Y411870D02*
X606101D01*
X600198Y410970D02*
X606101D01*
X599727Y410070D02*
X606101D01*
X599035Y409170D02*
X606101D01*
X597991Y408270D02*
X606101D01*
X595990Y407370D02*
X606101D01*
X402101Y406470D02*
X606101D01*
X402101Y405570D02*
X606101D01*
X402101Y404670D02*
X606101D01*
X414887Y407370D02*
X592987D01*
X415861Y419070D02*
X592013D01*
X416889Y408270D02*
X590985D01*
X417329Y418170D02*
X590545D01*
X417932Y409170D02*
X589942D01*
X418218Y417270D02*
X589656D01*
X418625Y410070D02*
X589249D01*
X418820Y416370D02*
X589054D01*
X419096Y410970D02*
X588778D01*
X419225Y415470D02*
X588649D01*
X419398Y411870D02*
X588476D01*
X419472Y414570D02*
X588402D01*
X419555Y412770D02*
X588319D01*
X419579Y413670D02*
X588295D01*
X548101Y768270D02*
X584201D01*
X548101Y767370D02*
X584201D01*
X548101Y766470D02*
X584201D01*
X548617Y765570D02*
X584201D01*
X549723Y764670D02*
X584201D01*
X550217Y763770D02*
X584201D01*
X550396Y762870D02*
X584201D01*
X554804Y761970D02*
X584201D01*
X555798Y761070D02*
X584201D01*
X556250Y760170D02*
X584201D01*
X556400Y759270D02*
X584201D01*
X556291Y758370D02*
X584201D01*
X555893Y757470D02*
X584201D01*
X555798Y756570D02*
X584201D01*
X556250Y755670D02*
X584201D01*
X556400Y754770D02*
X584201D01*
X556291Y753870D02*
X584201D01*
X555893Y752970D02*
X584201D01*
X555023Y752070D02*
X584201D01*
X550401Y751170D02*
X584201D01*
X550263Y750270D02*
X584201D01*
X549826Y749370D02*
X584201D01*
X548870Y748470D02*
X584201D01*
X548101Y747570D02*
X584201D01*
X548101Y746670D02*
X584201D01*
X548101Y745770D02*
X584201D01*
X548101Y744870D02*
X584201D01*
X548101Y743970D02*
X584201D01*
X548101Y743070D02*
X584201D01*
X548101Y742170D02*
X584201D01*
X582016Y741270D02*
X584201D01*
X582506Y740370D02*
X584201D01*
X582590Y739470D02*
X584201D01*
X582318Y738570D02*
X584201D01*
X581480Y737670D02*
X584201D01*
X548101Y736770D02*
X584201D01*
X548101Y735870D02*
X584201D01*
X548101Y734970D02*
X584201D01*
X548101Y734070D02*
X584201D01*
X548101Y733170D02*
X584201D01*
X548101Y732270D02*
X584201D01*
X548101Y731370D02*
X584201D01*
X548101Y730470D02*
X584201D01*
X548101Y729570D02*
X584201D01*
X548101Y728670D02*
X584201D01*
X548101Y727770D02*
X584201D01*
X548101Y726870D02*
X584201D01*
X548101Y725970D02*
X584201D01*
X548101Y725070D02*
X584201D01*
X548101Y724170D02*
X584201D01*
X548101Y723270D02*
X584201D01*
X548101Y722370D02*
X584201D01*
X548101Y721470D02*
X584201D01*
X548101Y720570D02*
X584201D01*
X548101Y719670D02*
X584201D01*
X548101Y718770D02*
X584201D01*
X548101Y717870D02*
X584201D01*
X548101Y716970D02*
X584201D01*
X548101Y716070D02*
X584201D01*
X548101Y715170D02*
X584201D01*
X548101Y714270D02*
X584201D01*
X402101Y713370D02*
X584201D01*
X402101Y712470D02*
X584201D01*
X402101Y711570D02*
X584201D01*
X402101Y710670D02*
X584201D01*
X462496Y709770D02*
X584201D01*
X464167Y708870D02*
X584201D01*
X465005Y707970D02*
X584201D01*
X465512Y707070D02*
X584201D01*
X465797Y706170D02*
X584201D01*
X465900Y705270D02*
X584201D01*
X465832Y704370D02*
X584201D01*
X465587Y703470D02*
X584201D01*
X465131Y702570D02*
X584201D01*
X464378Y701670D02*
X584201D01*
X463002Y700770D02*
X584201D01*
X452917Y699870D02*
X584201D01*
X453407Y698970D02*
X584201D01*
X453491Y698070D02*
X584201D01*
X453220Y697170D02*
X584201D01*
X452384Y696270D02*
X584201D01*
X402101Y695370D02*
X584201D01*
X402101Y694470D02*
X584201D01*
X451551Y693570D02*
X584201D01*
X453009Y692670D02*
X584201D01*
X472529Y691770D02*
X584201D01*
X473335Y690870D02*
X584201D01*
X473593Y689970D02*
X584201D01*
X473496Y689070D02*
X584201D01*
X472988Y688170D02*
X584201D01*
X402101Y687270D02*
X584201D01*
X451953Y686370D02*
X584201D01*
X453091Y685470D02*
X584201D01*
X472947Y684570D02*
X584201D01*
X473469Y683670D02*
X584201D01*
X473575Y682770D02*
X584201D01*
X473327Y681870D02*
X584201D01*
X472545Y680970D02*
X584201D01*
X402101Y680070D02*
X584201D01*
X452206Y679170D02*
X584201D01*
X453163Y678270D02*
X584201D01*
X473045Y677370D02*
X584201D01*
X473502Y676470D02*
X584201D01*
X473564Y675570D02*
X584201D01*
X473267Y674670D02*
X584201D01*
X571480Y737670D02*
X578921D01*
X572016Y741270D02*
X578385D01*
X572318Y738570D02*
X578084D01*
X572506Y740370D02*
X577896D01*
X572590Y739470D02*
X577812D01*
X566480Y737670D02*
X568921D01*
X567016Y741270D02*
X568385D01*
X567318Y738570D02*
X568084D01*
X567506Y740370D02*
X567896D01*
X567590Y739470D02*
X567812D01*
X548101Y737670D02*
X563921D01*
X548101Y741270D02*
X563385D01*
X548101Y738570D02*
X563084D01*
X548101Y740370D02*
X562896D01*
X548101Y739470D02*
X562812D01*
X550316Y761970D02*
X551598D01*
X550280Y752070D02*
X551378D01*
X549954Y761070D02*
X550604D01*
X548101Y756570D02*
X550604D01*
X548101Y757470D02*
X550509D01*
X549867Y752970D02*
X550509D01*
X549160Y760170D02*
X550151D01*
X548101Y755670D02*
X550151D01*
X548101Y758370D02*
X550110D01*
X548965Y753870D02*
X550110D01*
X548101Y759270D02*
X550002D01*
X548101Y754770D02*
X550002D01*
X472365Y673770D02*
X514601D01*
X498491Y672870D02*
X514601D01*
X498997Y671970D02*
X514601D01*
X499092Y671070D02*
X514601D01*
X498833Y670170D02*
X514601D01*
X498025Y669270D02*
X514601D01*
X473547Y668370D02*
X514601D01*
X473198Y667470D02*
X514601D01*
X472137Y666570D02*
X514601D01*
X402101Y665670D02*
X514601D01*
X452563Y664770D02*
X514601D01*
X472173Y663870D02*
X514601D01*
X473208Y662970D02*
X514601D01*
X473550Y662070D02*
X514601D01*
X473525Y661170D02*
X514601D01*
X498029Y660270D02*
X514601D01*
X498835Y659370D02*
X514601D01*
X499093Y658470D02*
X514601D01*
X498996Y657570D02*
X514601D01*
X498488Y656670D02*
X514601D01*
X487080Y655770D02*
X514601D01*
X486770Y654870D02*
X514601D01*
X485833Y653970D02*
X514601D01*
X402101Y653070D02*
X514601D01*
X402101Y652170D02*
X514601D01*
X402101Y651270D02*
X514601D01*
X402101Y650370D02*
X514601D01*
X497645Y649470D02*
X514601D01*
X498701Y648570D02*
X514601D01*
X499049Y647670D02*
X514601D01*
X499030Y646770D02*
X514601D01*
X498631Y645870D02*
X514601D01*
X497364Y644970D02*
X514601D01*
X402101Y644070D02*
X514601D01*
X402101Y643170D02*
X514601D01*
X402101Y642270D02*
X514601D01*
X402101Y641370D02*
X514601D01*
X402101Y640470D02*
X514601D01*
X402101Y639570D02*
X514601D01*
X402101Y638670D02*
X514601D01*
X402101Y637770D02*
X514601D01*
X451522Y636870D02*
X514601D01*
X453004Y635970D02*
X514601D01*
X472757Y635070D02*
X514601D01*
X498151Y634170D02*
X514601D01*
X498865Y633270D02*
X514601D01*
X499081Y632370D02*
X514601D01*
X498945Y631470D02*
X514601D01*
X498375Y630570D02*
X514601D01*
X451940Y629670D02*
X514601D01*
X453086Y628770D02*
X514601D01*
X472953Y627870D02*
X514601D01*
X453014Y522570D02*
X506101D01*
X472857Y521670D02*
X506101D01*
X473438Y520770D02*
X506101D01*
X473580Y519870D02*
X506101D01*
X473371Y518970D02*
X506101D01*
X472670Y518070D02*
X506101D01*
X402101Y517170D02*
X506101D01*
X451976Y516270D02*
X506101D01*
X453095Y515370D02*
X506101D01*
X472966Y514470D02*
X506101D01*
X473475Y513570D02*
X506101D01*
X473573Y512670D02*
X506101D01*
X473316Y511770D02*
X506101D01*
X472514Y510870D02*
X506101D01*
X402101Y509970D02*
X506101D01*
X452223Y509070D02*
X506101D01*
X471391Y508170D02*
X506101D01*
X473062Y507270D02*
X506101D01*
X473507Y506370D02*
X506101D01*
X473561Y505470D02*
X506101D01*
X473254Y504570D02*
X506101D01*
X472326Y503670D02*
X506101D01*
X402101Y502770D02*
X506101D01*
X452416Y501870D02*
X506101D01*
X453230Y500970D02*
X506101D01*
X453492Y500070D02*
X506101D01*
X453399Y499170D02*
X506101D01*
X452897Y498270D02*
X506101D01*
X402101Y497370D02*
X506101D01*
X402101Y496470D02*
X506101D01*
X402101Y495570D02*
X506101D01*
X440569Y494670D02*
X506101D01*
X472219Y493770D02*
X506101D01*
X473221Y492870D02*
X506101D01*
X473553Y491970D02*
X506101D01*
X473521Y491070D02*
X506101D01*
X473104Y490170D02*
X506101D01*
X501929Y489270D02*
X506101D01*
X502735Y488370D02*
X506101D01*
X502993Y487470D02*
X506101D01*
X502896Y486570D02*
X506101D01*
X502388Y485670D02*
X506101D01*
X473568Y484770D02*
X506101D01*
X471732Y489270D02*
X499272D01*
X473287Y485670D02*
X498813D01*
X402101Y488370D02*
X498467D01*
X472428Y486570D02*
X498306D01*
X440796Y487470D02*
X498209D01*
X402101Y644970D02*
X496001D01*
X402101Y649470D02*
X495720D01*
X473529Y669270D02*
X495376D01*
X473120Y660270D02*
X495372D01*
X473402Y634170D02*
X495215D01*
X402101Y630570D02*
X494990D01*
X487029Y656670D02*
X494913D01*
X402101Y672870D02*
X494911D01*
X402101Y645870D02*
X494734D01*
X402101Y648570D02*
X494664D01*
X473131Y670170D02*
X494568D01*
X471815Y659370D02*
X494567D01*
X473581Y633270D02*
X494500D01*
X472780Y631470D02*
X494420D01*
X486587Y657570D02*
X494406D01*
X452402Y671970D02*
X494405D01*
X402101Y646770D02*
X494336D01*
X402101Y647670D02*
X494316D01*
X471871Y671070D02*
X494309D01*
X484980Y658470D02*
X494309D01*
X473410Y632370D02*
X494285D01*
X402101Y779070D02*
X490101D01*
X402101Y778170D02*
X490101D01*
X402101Y777270D02*
X490101D01*
X402101Y776370D02*
X490101D01*
X402101Y775470D02*
X490101D01*
X402101Y774570D02*
X490101D01*
X402101Y773670D02*
X490101D01*
X402101Y772770D02*
X490101D01*
X402101Y771870D02*
X490101D01*
X402101Y770970D02*
X490101D01*
X402101Y770070D02*
X490101D01*
X402101Y769170D02*
X490101D01*
X402101Y768270D02*
X490101D01*
X402101Y767370D02*
X490101D01*
X402101Y766470D02*
X490101D01*
X402101Y765570D02*
X490101D01*
X402101Y764670D02*
X490101D01*
X402101Y763770D02*
X490101D01*
X402101Y762870D02*
X490101D01*
X402101Y761970D02*
X490101D01*
X402101Y761070D02*
X490101D01*
X402101Y760170D02*
X490101D01*
X402101Y759270D02*
X490101D01*
X402101Y758370D02*
X490101D01*
X402101Y757470D02*
X490101D01*
X402101Y756570D02*
X490101D01*
X402101Y755670D02*
X490101D01*
X402101Y754770D02*
X490101D01*
X402101Y753870D02*
X490101D01*
X402101Y752970D02*
X490101D01*
X402101Y752070D02*
X490101D01*
X402101Y751170D02*
X490101D01*
X402101Y750270D02*
X490101D01*
X402101Y749370D02*
X490101D01*
X402101Y748470D02*
X490101D01*
X402101Y747570D02*
X490101D01*
X402101Y746670D02*
X490101D01*
X402101Y745770D02*
X490101D01*
X402101Y744870D02*
X490101D01*
X402101Y743970D02*
X490101D01*
X402101Y743070D02*
X490101D01*
X402101Y742170D02*
X490101D01*
X402101Y741270D02*
X490101D01*
X402101Y740370D02*
X490101D01*
X480765Y739470D02*
X490101D01*
X481333Y738570D02*
X490101D01*
X481467Y737670D02*
X490101D01*
X481250Y736770D02*
X490101D01*
X480534Y735870D02*
X490101D01*
X402101Y734970D02*
X490101D01*
X402101Y734070D02*
X490101D01*
X402101Y733170D02*
X490101D01*
X402101Y732270D02*
X490101D01*
X402101Y731370D02*
X490101D01*
X402101Y730470D02*
X490101D01*
X402101Y729570D02*
X490101D01*
X402101Y728670D02*
X490101D01*
X402101Y725070D02*
X490101D01*
X402101Y724170D02*
X490101D01*
X402101Y723270D02*
X490101D01*
X402101Y722370D02*
X490101D01*
X402101Y721470D02*
X490101D01*
X402101Y720570D02*
X490101D01*
X402101Y719670D02*
X490101D01*
X402101Y718770D02*
X490101D01*
X402101Y717870D02*
X490101D01*
X402101Y716970D02*
X490101D01*
X402101Y716070D02*
X490101D01*
X402101Y715170D02*
X490101D01*
X402101Y714270D02*
X490101D01*
X402101Y725970D02*
X490084D01*
X402101Y727770D02*
X489753D01*
X402101Y726870D02*
X489735D01*
X402101Y658470D02*
X484421D01*
X439687Y653970D02*
X483569D01*
X439690Y657570D02*
X482814D01*
X440325Y654870D02*
X482632D01*
X440326Y656670D02*
X482373D01*
X440501Y655770D02*
X482322D01*
X402101Y735870D02*
X477605D01*
X402101Y739470D02*
X477374D01*
X402101Y736770D02*
X476888D01*
X402101Y738570D02*
X476806D01*
X402101Y737670D02*
X476671D01*
X453167Y508170D02*
X470971D01*
X402101Y489270D02*
X470630D01*
X402101Y659370D02*
X470547D01*
X453226Y671070D02*
X470491D01*
X402101Y666570D02*
X470225D01*
X453282Y663870D02*
X470189D01*
X441283Y493770D02*
X470143D01*
X402101Y503670D02*
X470036D01*
X402101Y673770D02*
X469998D01*
X441364Y486570D02*
X469934D01*
X453437Y691770D02*
X469872D01*
X402101Y510870D02*
X469848D01*
X402101Y680970D02*
X469817D01*
X402101Y518070D02*
X469692D01*
X453434Y635070D02*
X469606D01*
X402101Y631470D02*
X469582D01*
X453437Y521670D02*
X469505D01*
X453461Y684570D02*
X469415D01*
X402101Y688170D02*
X469413D01*
X453458Y627870D02*
X469409D01*
X453461Y514470D02*
X469396D01*
X453479Y677370D02*
X469317D01*
X453479Y507270D02*
X469300D01*
X402101Y490170D02*
X469258D01*
X402101Y660270D02*
X469242D01*
X453492Y670170D02*
X469231D01*
X402101Y667470D02*
X469164D01*
X453500Y662970D02*
X469154D01*
X441499Y492870D02*
X469141D01*
X451423Y504570D02*
X469108D01*
X451487Y674670D02*
X469096D01*
X441499Y485670D02*
X469075D01*
X453478Y690870D02*
X469067D01*
X451894Y511770D02*
X469046D01*
X451922Y681870D02*
X469035D01*
X452165Y518970D02*
X468991D01*
X453477Y634170D02*
X468960D01*
X452193Y632370D02*
X468952D01*
X453475Y520770D02*
X468925D01*
X452184Y689070D02*
X468906D01*
X453459Y683670D02*
X468893D01*
X453455Y513570D02*
X468887D01*
X453434Y676470D02*
X468860D01*
X453430Y506370D02*
X468855D01*
X440794Y491070D02*
X468842D01*
X452801Y661170D02*
X468837D01*
X453403Y669270D02*
X468833D01*
X452907Y668370D02*
X468815D01*
X453367Y662070D02*
X468812D01*
X453156Y689970D02*
X468809D01*
X441363Y491970D02*
X468809D01*
X452991Y505470D02*
X468801D01*
X453000Y675570D02*
X468798D01*
X441282Y484770D02*
X468794D01*
X453075Y512670D02*
X468789D01*
X453083Y682770D02*
X468787D01*
X453149Y519870D02*
X468782D01*
X453157Y633270D02*
X468781D01*
X453458Y626970D02*
X467601D01*
X453084Y626070D02*
X467601D01*
X451932Y625170D02*
X467601D01*
X402101Y624270D02*
X467601D01*
X402101Y623370D02*
X467601D01*
X452196Y622470D02*
X467601D01*
X453158Y621570D02*
X467601D01*
X453477Y620670D02*
X467601D01*
X453434Y619770D02*
X467601D01*
X453002Y618870D02*
X467601D01*
X451513Y617970D02*
X467601D01*
X402101Y617070D02*
X467601D01*
X402101Y616170D02*
X467601D01*
X452393Y615270D02*
X467601D01*
X453222Y614370D02*
X467601D01*
X453490Y613470D02*
X467601D01*
X453403Y612570D02*
X467601D01*
X452910Y611670D02*
X467601D01*
X402101Y610770D02*
X467601D01*
X402101Y609870D02*
X467601D01*
X402101Y608970D02*
X467601D01*
X452556Y608070D02*
X467601D01*
X453279Y607170D02*
X467601D01*
X453498Y606270D02*
X467601D01*
X453367Y605370D02*
X467601D01*
X452804Y604470D02*
X467601D01*
X402101Y603570D02*
X467601D01*
X402101Y602670D02*
X467601D01*
X402101Y601770D02*
X467601D01*
X452693Y600870D02*
X467601D01*
X453327Y599970D02*
X467601D01*
X453501Y599070D02*
X467601D01*
X453324Y598170D02*
X467601D01*
X452683Y597270D02*
X467601D01*
X402101Y596370D02*
X467601D01*
X402101Y595470D02*
X467601D01*
X402101Y594570D02*
X467601D01*
X452813Y593670D02*
X467601D01*
X453370Y592770D02*
X467601D01*
X453498Y591870D02*
X467601D01*
X453274Y590970D02*
X467601D01*
X452543Y590070D02*
X467601D01*
X402101Y589170D02*
X467601D01*
X402101Y588270D02*
X467601D01*
X402101Y587370D02*
X467601D01*
X452917Y586470D02*
X467601D01*
X453406Y585570D02*
X467601D01*
X453490Y584670D02*
X467601D01*
X453217Y583770D02*
X467601D01*
X452379Y582870D02*
X467601D01*
X402101Y581970D02*
X467601D01*
X402101Y581070D02*
X467601D01*
X451560Y580170D02*
X467601D01*
X453009Y579270D02*
X467601D01*
X453436Y578370D02*
X467601D01*
X453476Y577470D02*
X467601D01*
X453153Y576570D02*
X467601D01*
X452179Y575670D02*
X467601D01*
X402101Y574770D02*
X467601D01*
X402101Y573870D02*
X467601D01*
X451958Y572970D02*
X467601D01*
X453091Y572070D02*
X467601D01*
X453460Y571170D02*
X467601D01*
X453457Y570270D02*
X467601D01*
X453079Y569370D02*
X467601D01*
X451913Y568470D02*
X467601D01*
X402101Y567570D02*
X467601D01*
X402101Y566670D02*
X467601D01*
X452209Y565770D02*
X467601D01*
X453162Y564870D02*
X467601D01*
X453478Y563970D02*
X467601D01*
X453432Y563070D02*
X467601D01*
X452997Y562170D02*
X467601D01*
X451471Y561270D02*
X467601D01*
X402101Y560370D02*
X467601D01*
X402101Y559470D02*
X467601D01*
X452404Y558570D02*
X467601D01*
X453226Y557670D02*
X467601D01*
X453491Y556770D02*
X467601D01*
X453401Y555870D02*
X467601D01*
X452904Y554970D02*
X467601D01*
X402101Y554070D02*
X467601D01*
X402101Y553170D02*
X467601D01*
X402101Y552270D02*
X467601D01*
X452565Y551370D02*
X467601D01*
X453282Y550470D02*
X467601D01*
X453499Y549570D02*
X467601D01*
X453364Y548670D02*
X467601D01*
X452797Y547770D02*
X467601D01*
X402101Y546870D02*
X467601D01*
X402101Y545970D02*
X467601D01*
X402101Y545070D02*
X467601D01*
X452701Y544170D02*
X467601D01*
X453330Y543270D02*
X467601D01*
X453501Y542370D02*
X467601D01*
X453321Y541470D02*
X467601D01*
X452675Y540570D02*
X467601D01*
X402101Y539670D02*
X467601D01*
X402101Y538770D02*
X467601D01*
X402101Y537870D02*
X467601D01*
X452820Y536970D02*
X467601D01*
X453372Y536070D02*
X467601D01*
X453498Y535170D02*
X467601D01*
X453271Y534270D02*
X467601D01*
X452534Y533370D02*
X467601D01*
X402101Y532470D02*
X467601D01*
X402101Y531570D02*
X467601D01*
X402101Y530670D02*
X467601D01*
X452923Y529770D02*
X467601D01*
X453408Y528870D02*
X467601D01*
X453489Y527970D02*
X467601D01*
X453214Y527070D02*
X467601D01*
X452368Y526170D02*
X467601D01*
X402101Y525270D02*
X467601D01*
X402101Y524370D02*
X467601D01*
X451595Y523470D02*
X467601D01*
X402101Y709770D02*
X459705D01*
X413737Y438870D02*
X459648D01*
X402101Y700770D02*
X459199D01*
X412646Y439770D02*
X458340D01*
X402101Y708870D02*
X458034D01*
X402101Y701670D02*
X457824D01*
X402101Y707970D02*
X457197D01*
X402101Y702570D02*
X457071D01*
X402101Y707070D02*
X456690D01*
X402101Y703470D02*
X456615D01*
X402101Y706170D02*
X456405D01*
X402101Y704370D02*
X456369D01*
X402101Y705270D02*
X456302D01*
X414145Y460470D02*
X453101D01*
X414110Y459570D02*
X453101D01*
X413692Y458670D02*
X453101D01*
X412306Y457770D02*
X453101D01*
X452580Y456870D02*
X453101D01*
X452785Y453270D02*
X453101D01*
X413271Y452370D02*
X453101D01*
X402101Y451470D02*
X453101D01*
X418807Y450570D02*
X453101D01*
X420001Y449670D02*
X453101D01*
X420385Y448770D02*
X453101D01*
X420393Y447870D02*
X453101D01*
X420030Y446970D02*
X453101D01*
X418922Y446070D02*
X453101D01*
X402101Y445170D02*
X453101D01*
X413446Y444270D02*
X453101D01*
X414002Y443370D02*
X453101D01*
X414129Y442470D02*
X453101D01*
X413905Y441570D02*
X453101D01*
X413172Y440670D02*
X453101D01*
X402101Y504570D02*
X450779D01*
X402101Y561270D02*
X450731D01*
X402101Y674670D02*
X450718D01*
X402101Y617970D02*
X450688D01*
X402101Y636870D02*
X450679D01*
X402101Y693570D02*
X450654D01*
X402101Y580170D02*
X450642D01*
X402101Y523470D02*
X450607D01*
X402101Y511770D02*
X450308D01*
X402101Y568470D02*
X450288D01*
X402101Y681870D02*
X450282D01*
X402101Y625170D02*
X450269D01*
X402101Y629670D02*
X450262D01*
X402101Y686370D02*
X450252D01*
X402101Y572970D02*
X450244D01*
X402101Y516270D02*
X450225D01*
X402101Y518970D02*
X450037D01*
X402101Y575670D02*
X450023D01*
X402101Y689070D02*
X450020D01*
X402101Y632370D02*
X450009D01*
X402101Y622470D02*
X450006D01*
X402101Y679170D02*
X449998D01*
X402101Y565770D02*
X449992D01*
X402101Y509070D02*
X449979D01*
X402101Y526170D02*
X449834D01*
X402101Y582870D02*
X449823D01*
X402101Y696270D02*
X449820D01*
X402101Y615270D02*
X449809D01*
X402101Y671970D02*
X449803D01*
X402101Y558570D02*
X449798D01*
X402101Y501870D02*
X449786D01*
X402101Y533370D02*
X449668D01*
X402101Y590070D02*
X449659D01*
X402101Y608070D02*
X449646D01*
X402101Y664770D02*
X449641D01*
X402101Y551370D02*
X449637D01*
X402101Y456870D02*
X449621D01*
X402101Y540570D02*
X449526D01*
X402101Y597270D02*
X449518D01*
X402101Y600870D02*
X449508D01*
X402101Y544170D02*
X449501D01*
X413965Y453270D02*
X449417D01*
X402101Y547770D02*
X449405D01*
X402101Y661170D02*
X449404D01*
X402101Y604470D02*
X449398D01*
X402101Y593670D02*
X449388D01*
X402101Y536970D02*
X449382D01*
X402101Y498270D02*
X449305D01*
X402101Y554970D02*
X449298D01*
X402101Y668370D02*
X449298D01*
X402101Y611670D02*
X449292D01*
X402101Y699870D02*
X449288D01*
X402101Y586470D02*
X449284D01*
X402101Y529770D02*
X449278D01*
X402101Y505470D02*
X449210D01*
X402101Y562170D02*
X449205D01*
X402101Y675570D02*
X449204D01*
X402101Y618870D02*
X449199D01*
X402101Y635970D02*
X449198D01*
X402101Y692670D02*
X449196D01*
X402101Y579270D02*
X449193D01*
X402101Y522570D02*
X449187D01*
X402101Y512670D02*
X449127D01*
X402101Y569370D02*
X449122D01*
X402101Y682770D02*
X449122D01*
X402101Y626070D02*
X449117D01*
X402101Y628770D02*
X449116D01*
X402101Y685470D02*
X449114D01*
X402101Y572070D02*
X449111D01*
X402101Y515370D02*
X449106D01*
X402101Y519870D02*
X449053D01*
X402101Y689970D02*
X449049D01*
X402101Y576570D02*
X449049D01*
X402101Y633270D02*
X449044D01*
X402101Y621570D02*
X449043D01*
X402101Y678270D02*
X449042D01*
X402101Y564870D02*
X449039D01*
X402101Y508170D02*
X449035D01*
X402101Y527070D02*
X448988D01*
X402101Y697170D02*
X448984D01*
X402101Y583770D02*
X448984D01*
X402101Y614370D02*
X448980D01*
X402101Y671070D02*
X448978D01*
X402101Y557670D02*
X448976D01*
X402101Y500970D02*
X448972D01*
X402101Y534270D02*
X448931D01*
X402101Y590970D02*
X448928D01*
X402101Y607170D02*
X448923D01*
X402101Y663870D02*
X448923D01*
X402101Y550470D02*
X448920D01*
X413439Y455970D02*
X448914D01*
X402101Y541470D02*
X448881D01*
X402101Y598170D02*
X448878D01*
X402101Y599970D02*
X448874D01*
X402101Y543270D02*
X448871D01*
X414171Y454170D02*
X448842D01*
X402101Y662070D02*
X448838D01*
X402101Y548670D02*
X448837D01*
X402101Y605370D02*
X448835D01*
X402101Y592770D02*
X448832D01*
X402101Y536070D02*
X448829D01*
X402101Y499170D02*
X448803D01*
X402101Y669270D02*
X448801D01*
X402101Y555870D02*
X448800D01*
X402101Y612570D02*
X448798D01*
X402101Y698970D02*
X448798D01*
X402101Y585570D02*
X448796D01*
X402101Y528870D02*
X448794D01*
X402101Y506370D02*
X448771D01*
X402101Y676470D02*
X448771D01*
X402101Y563070D02*
X448770D01*
X402101Y619770D02*
X448768D01*
X402101Y691770D02*
X448768D01*
X402101Y635070D02*
X448768D01*
X402101Y578370D02*
X448766D01*
X402101Y521670D02*
X448764D01*
X402101Y513570D02*
X448746D01*
X402101Y683670D02*
X448746D01*
X402101Y570270D02*
X448745D01*
X402101Y684570D02*
X448744D01*
X402101Y626970D02*
X448744D01*
X402101Y627870D02*
X448743D01*
X402101Y571170D02*
X448742D01*
X402101Y514470D02*
X448740D01*
X402101Y690870D02*
X448727D01*
X402101Y520770D02*
X448727D01*
X402101Y577470D02*
X448726D01*
X402101Y677370D02*
X448725D01*
X402101Y634170D02*
X448725D01*
X402101Y620670D02*
X448724D01*
X402101Y563970D02*
X448723D01*
X402101Y507270D02*
X448722D01*
X402101Y698070D02*
X448713D01*
X402101Y527970D02*
X448713D01*
X402101Y670170D02*
X448712D01*
X402101Y584670D02*
X448712D01*
X402101Y613470D02*
X448711D01*
X402101Y556770D02*
X448710D01*
X402101Y500070D02*
X448710D01*
X402101Y662970D02*
X448705D01*
X402101Y535170D02*
X448704D01*
X402101Y591870D02*
X448704D01*
X402101Y606270D02*
X448703D01*
X402101Y549570D02*
X448703D01*
X414025Y455070D02*
X448702D01*
X402101Y542370D02*
X448701D01*
X402101Y599070D02*
X448701D01*
X402101Y494670D02*
X437633D01*
X402101Y491070D02*
X437408D01*
X402101Y487470D02*
X437405D01*
X402101Y484770D02*
X436920D01*
X402101Y493770D02*
X436918D01*
X402101Y491970D02*
X436838D01*
X402101Y486570D02*
X436838D01*
X402101Y485670D02*
X436703D01*
X402101Y492870D02*
X436703D01*
X402101Y653970D02*
X436515D01*
X402101Y657570D02*
X436512D01*
X402101Y654870D02*
X435876D01*
X402101Y656670D02*
X435875D01*
X402101Y655770D02*
X435701D01*
X402101Y483870D02*
X418201D01*
X402101Y482970D02*
X418201D01*
X402101Y482070D02*
X418201D01*
X402101Y481170D02*
X418201D01*
X402101Y480270D02*
X418201D01*
X402101Y479370D02*
X418201D01*
X402101Y478470D02*
X418201D01*
X402101Y477570D02*
X418201D01*
X412192Y476670D02*
X418201D01*
X413607Y475770D02*
X418201D01*
X414030Y474870D02*
X418201D01*
X414067Y473970D02*
X418201D01*
X413740Y473070D02*
X418201D01*
X413195Y472170D02*
X418201D01*
X413913Y471270D02*
X418201D01*
X414130Y470370D02*
X418201D01*
X413996Y469470D02*
X418201D01*
X413429Y468570D02*
X418201D01*
X413521Y467670D02*
X418201D01*
X413948Y466770D02*
X418201D01*
X413990Y465870D02*
X418201D01*
X413668Y464970D02*
X418201D01*
X412696Y464070D02*
X418201D01*
X402101Y463170D02*
X418201D01*
X412818Y462270D02*
X418201D01*
X413814Y461370D02*
X418201D01*
X412508Y450570D02*
X417256D01*
X412622Y446070D02*
X417141D01*
X413702Y449670D02*
X416062D01*
X413731Y446970D02*
X416033D01*
X414086Y448770D02*
X415678D01*
X414094Y447870D02*
X415670D01*
X402101Y407370D02*
X411884D01*
X402101Y457770D02*
X411238D01*
X402101Y476670D02*
X411194D01*
X402101Y435270D02*
X410985D01*
X402101Y450570D02*
X410956D01*
X402101Y419070D02*
X410911D01*
X402101Y446070D02*
X410842D01*
X402101Y439770D02*
X410818D01*
X402101Y462270D02*
X410726D01*
X402101Y464070D02*
X410532D01*
X402101Y440670D02*
X410293D01*
X402101Y452370D02*
X410272D01*
X402101Y472170D02*
X410269D01*
X402101Y455970D02*
X410104D01*
X402101Y468570D02*
X410036D01*
X402101Y444270D02*
X410018D01*
X402101Y408270D02*
X409883D01*
X402101Y458670D02*
X409852D01*
X402101Y475770D02*
X409779D01*
X402101Y436170D02*
X409769D01*
X402101Y449670D02*
X409762D01*
X402101Y446970D02*
X409734D01*
X402101Y461370D02*
X409729D01*
X402101Y438870D02*
X409727D01*
X402101Y467670D02*
X409708D01*
X402101Y473070D02*
X409646D01*
X402101Y453270D02*
X409578D01*
X402101Y464970D02*
X409561D01*
X402101Y441570D02*
X409560D01*
X402101Y471270D02*
X409552D01*
X402101Y455070D02*
X409518D01*
X402101Y469470D02*
X409469D01*
X402101Y443370D02*
X409462D01*
X402101Y418170D02*
X409443D01*
X402101Y459570D02*
X409433D01*
X402101Y460470D02*
X409399D01*
X402101Y437070D02*
X409381D01*
X402101Y448770D02*
X409379D01*
X402101Y454170D02*
X409373D01*
X402101Y447870D02*
X409371D01*
X402101Y437970D02*
X409369D01*
X402101Y474870D02*
X409356D01*
X402101Y442470D02*
X409335D01*
X402101Y470370D02*
X409334D01*
X402101Y473970D02*
X409319D01*
X402101Y466770D02*
X409280D01*
X402101Y465870D02*
X409239D01*
X402101Y409170D02*
X408839D01*
X402101Y417270D02*
X408554D01*
X402101Y410070D02*
X408147D01*
X402101Y416370D02*
X407951D01*
X402101Y410970D02*
X407676D01*
X402101Y415470D02*
X407547D01*
X402101Y411870D02*
X407374D01*
X402101Y414570D02*
X407300D01*
X402101Y412770D02*
X407216D01*
X402101Y413670D02*
X407192D01*
X402601Y817499D02*
X544601D01*
X402601Y816599D02*
X544601D01*
X402601Y815699D02*
X544601D01*
X447266Y814799D02*
X544601D01*
X448101Y813899D02*
X544601D01*
X448372Y812999D02*
X544601D01*
X459967Y812099D02*
X544601D01*
X460892Y811199D02*
X544601D01*
X461154Y810299D02*
X544601D01*
X461025Y809399D02*
X544601D01*
X460401Y808499D02*
X544601D01*
X419565Y807599D02*
X544601D01*
X419574Y806699D02*
X544601D01*
X419451Y805799D02*
X544601D01*
X464811Y804899D02*
X544601D01*
X465763Y803999D02*
X544601D01*
X532867Y803099D02*
X544601D01*
X533454Y802199D02*
X544601D01*
X533600Y801299D02*
X544601D01*
X533395Y800399D02*
X544601D01*
X532702Y799499D02*
X544601D01*
X402601Y798599D02*
X544601D01*
X402601Y797699D02*
X544601D01*
X402601Y796799D02*
X544601D01*
X402601Y795899D02*
X544601D01*
X402601Y794999D02*
X544601D01*
X509299Y794099D02*
X544601D01*
X510553Y793199D02*
X544601D01*
X510949Y792299D02*
X544601D01*
X510967Y791399D02*
X544601D01*
X510616Y790499D02*
X544601D01*
X509552Y789599D02*
X544601D01*
X402601Y788699D02*
X544601D01*
X402601Y787799D02*
X544601D01*
X402601Y786899D02*
X544601D01*
X402601Y785999D02*
X544601D01*
X402601Y785099D02*
X544601D01*
X402601Y784199D02*
X544601D01*
X402601Y783299D02*
X544601D01*
X402601Y782399D02*
X544601D01*
X493601Y781499D02*
X544601D01*
X493601Y780599D02*
X544601D01*
X493601Y779699D02*
X544601D01*
X493601Y778799D02*
X544601D01*
X493601Y777899D02*
X544601D01*
X493601Y776999D02*
X544601D01*
X493601Y776099D02*
X544601D01*
X493601Y775199D02*
X544601D01*
X493601Y774299D02*
X544601D01*
X493601Y773399D02*
X544601D01*
X493601Y772499D02*
X544601D01*
X493601Y771599D02*
X544601D01*
X493601Y770699D02*
X544601D01*
X493601Y769799D02*
X544601D01*
X493601Y768899D02*
X544601D01*
X493601Y767999D02*
X544601D01*
X493601Y767099D02*
X544601D01*
X493601Y766199D02*
X544601D01*
X543663Y765299D02*
X544601D01*
X544221Y760799D02*
X544601D01*
X543112Y759899D02*
X544601D01*
X538894Y758999D02*
X544601D01*
X538705Y758099D02*
X544601D01*
X538198Y757199D02*
X544601D01*
X538473Y756299D02*
X544601D01*
X538824Y755399D02*
X544601D01*
X538894Y754499D02*
X544601D01*
X543819Y753599D02*
X544601D01*
X544114Y749099D02*
X544601D01*
X542811Y748199D02*
X544601D01*
X518766Y747299D02*
X544601D01*
X520140Y746399D02*
X544601D01*
X520301Y745499D02*
X544601D01*
X520301Y744599D02*
X544601D01*
X520301Y743699D02*
X544601D01*
X520301Y742799D02*
X544601D01*
X524663Y741899D02*
X544601D01*
X525719Y740999D02*
X544601D01*
X526067Y740099D02*
X544601D01*
X526048Y739199D02*
X544601D01*
X525649Y738299D02*
X544601D01*
X524382Y737399D02*
X544601D01*
X493601Y736499D02*
X544601D01*
X493601Y735599D02*
X544601D01*
X493601Y734699D02*
X544601D01*
X493601Y733799D02*
X544601D01*
X493601Y732899D02*
X544601D01*
X493601Y731999D02*
X544601D01*
X493601Y731099D02*
X544601D01*
X493601Y730199D02*
X544601D01*
X502211Y729299D02*
X544601D01*
X503163Y728399D02*
X544601D01*
X503478Y727499D02*
X544601D01*
X503432Y726599D02*
X544601D01*
X502996Y725699D02*
X544601D01*
X501465Y724799D02*
X544601D01*
X493601Y723899D02*
X544601D01*
X493601Y722999D02*
X544601D01*
X493601Y722099D02*
X544601D01*
X493601Y721199D02*
X544601D01*
X493601Y720299D02*
X544601D01*
X493601Y719399D02*
X544601D01*
X493601Y718499D02*
X544601D01*
X493601Y717599D02*
X544601D01*
X544456Y764399D02*
X544489D01*
X493601Y748199D02*
X540591D01*
X538824Y759899D02*
X540290D01*
X493601Y765299D02*
X539739D01*
X538705Y753599D02*
X539583D01*
X493601Y749099D02*
X539287D01*
X538473Y760799D02*
X539181D01*
X493601Y764399D02*
X538946D01*
X538198Y752699D02*
X538873D01*
X493601Y749999D02*
X538735D01*
X537700Y761699D02*
X538686D01*
X493601Y763499D02*
X538585D01*
X537051Y751799D02*
X538557D01*
X493601Y750899D02*
X538515D01*
X493601Y762599D02*
X538505D01*
X493601Y751799D02*
X534351D01*
X493601Y761699D02*
X533702D01*
X493601Y757199D02*
X533204D01*
X493601Y752699D02*
X533204D01*
X493601Y760799D02*
X532929D01*
X493601Y756299D02*
X532929D01*
X493601Y758099D02*
X532696D01*
X493601Y753599D02*
X532696D01*
X493601Y759899D02*
X532578D01*
X493601Y755399D02*
X532578D01*
X493601Y758999D02*
X532507D01*
X493601Y754499D02*
X532507D01*
X522307Y799499D02*
X529699D01*
X522837Y803099D02*
X529535D01*
X523142Y800399D02*
X529006D01*
X523328Y802199D02*
X528948D01*
X523413Y801299D02*
X528802D01*
X519382Y737399D02*
X523020D01*
X520301Y741899D02*
X522739D01*
X520649Y738299D02*
X521752D01*
X520719Y740999D02*
X521682D01*
X521048Y739199D02*
X521354D01*
X521067Y740099D02*
X521334D01*
X402601Y799499D02*
X519740D01*
X466078Y803099D02*
X519210D01*
X464065Y800399D02*
X518905D01*
X466032Y802199D02*
X518720D01*
X508766Y747299D02*
X518635D01*
X465596Y801299D02*
X518634D01*
X509382Y737399D02*
X518020D01*
X510140Y746399D02*
X517261D01*
X510301Y745499D02*
X517101D01*
X510301Y744599D02*
X517101D01*
X510301Y743699D02*
X517101D01*
X510301Y742799D02*
X517101D01*
X510301Y741899D02*
X517101D01*
X510649Y738299D02*
X516752D01*
X510719Y740999D02*
X516682D01*
X511048Y739199D02*
X516354D01*
X511067Y740099D02*
X516334D01*
X493601Y747299D02*
X508635D01*
X493601Y737399D02*
X508020D01*
X402601Y794099D02*
X507903D01*
X402601Y789599D02*
X507650D01*
X493601Y746399D02*
X507261D01*
X493601Y745499D02*
X507101D01*
X493601Y744599D02*
X507101D01*
X493601Y743699D02*
X507101D01*
X493601Y742799D02*
X507101D01*
X493601Y741899D02*
X507101D01*
X493601Y738299D02*
X506752D01*
X493601Y740999D02*
X506682D01*
X402601Y793199D02*
X506649D01*
X402601Y790499D02*
X506586D01*
X493601Y739199D02*
X506354D01*
X493601Y740099D02*
X506334D01*
X402601Y792299D02*
X506253D01*
X402601Y791399D02*
X506235D01*
X493601Y724799D02*
X500736D01*
X493601Y729299D02*
X499991D01*
X493914Y725699D02*
X499205D01*
X494219Y728399D02*
X499039D01*
X494405Y726599D02*
X498770D01*
X494490Y727499D02*
X498723D01*
X447484Y800399D02*
X463336D01*
X439416Y804899D02*
X462591D01*
X448177Y801299D02*
X461805D01*
X447648Y803999D02*
X461639D01*
X448382Y802199D02*
X461370D01*
X448235Y803099D02*
X461323D01*
X448287Y812099D02*
X457983D01*
X444653Y808499D02*
X457548D01*
X447796Y811199D02*
X457057D01*
X445277Y809399D02*
X456925D01*
X445406Y810299D02*
X456795D01*
X402601Y814799D02*
X444699D01*
X438670Y800399D02*
X444481D01*
X440368Y803999D02*
X444317D01*
X402601Y813899D02*
X443864D01*
X440201Y801299D02*
X443788D01*
X440683Y803099D02*
X443730D01*
X415251Y812999D02*
X443593D01*
X440636Y802199D02*
X443584D01*
X417034Y812099D02*
X442235D01*
X419423Y808499D02*
X441800D01*
X418025Y811199D02*
X441309D01*
X419138Y809399D02*
X441177D01*
X418688Y810299D02*
X441047D01*
X402601Y800399D02*
X437941D01*
X419187Y804899D02*
X437195D01*
X415611Y801299D02*
X436410D01*
X418763Y803999D02*
X436243D01*
X417201Y802199D02*
X435975D01*
X418134Y803099D02*
X435928D01*
X402601Y812999D02*
X411521D01*
X402601Y801299D02*
X411161D01*
X402601Y812099D02*
X409737D01*
X402601Y802199D02*
X409571D01*
X402601Y811199D02*
X408746D01*
X402601Y803099D02*
X408638D01*
X402601Y810299D02*
X408083D01*
X402601Y803999D02*
X408009D01*
X402601Y809399D02*
X407633D01*
X402601Y804899D02*
X407584D01*
X402601Y808499D02*
X407349D01*
X402601Y805799D02*
X407321D01*
X402601Y807599D02*
X407207D01*
X402601Y806699D02*
X407198D01*
X548101Y818270D02*
X606701D01*
X548101Y817370D02*
X606701D01*
X548101Y816470D02*
X606701D01*
X548101Y815570D02*
X606701D01*
X573572Y814670D02*
X606701D01*
X574349Y813770D02*
X606701D01*
X596722Y812870D02*
X606701D01*
X598308Y811970D02*
X606701D01*
X599239Y811070D02*
X606701D01*
X599867Y810170D02*
X606701D01*
X600291Y809270D02*
X606701D01*
X600554Y808370D02*
X606701D01*
X600676Y807470D02*
X606701D01*
X600667Y806570D02*
X606701D01*
X600524Y805670D02*
X606701D01*
X600239Y804770D02*
X606701D01*
X599789Y803870D02*
X606701D01*
X599125Y802970D02*
X606701D01*
X598132Y802070D02*
X606701D01*
X596342Y801170D02*
X606701D01*
X559028Y800270D02*
X606701D01*
X559344Y799370D02*
X606701D01*
X559387Y798470D02*
X606701D01*
X559167Y797570D02*
X606701D01*
X558614Y796670D02*
X606701D01*
X557311Y795770D02*
X606701D01*
X548101Y794870D02*
X606701D01*
X548101Y793970D02*
X606701D01*
X548101Y793070D02*
X606701D01*
X548101Y792170D02*
X606701D01*
X554029Y791270D02*
X606701D01*
X554835Y790370D02*
X606701D01*
X555093Y789470D02*
X606701D01*
X554996Y788570D02*
X606701D01*
X554488Y787670D02*
X606701D01*
X548101Y786770D02*
X606701D01*
X548101Y785870D02*
X606701D01*
X548101Y784970D02*
X606701D01*
X548101Y784070D02*
X606701D01*
X548101Y783170D02*
X606701D01*
X548101Y782270D02*
X606701D01*
X548101Y781370D02*
X606701D01*
X548101Y780470D02*
X606701D01*
X548101Y779570D02*
X606701D01*
X548101Y778670D02*
X606701D01*
X548101Y777770D02*
X606701D01*
X548101Y776870D02*
X606701D01*
X548101Y775970D02*
X606701D01*
X548101Y775070D02*
X606701D01*
X548101Y774170D02*
X606701D01*
X588201Y773270D02*
X606701D01*
X588201Y772370D02*
X606701D01*
X588201Y771470D02*
X606701D01*
X588201Y770570D02*
X606701D01*
X588201Y769670D02*
X606701D01*
X588201Y768770D02*
X606701D01*
X588201Y767870D02*
X606701D01*
X588201Y766970D02*
X606701D01*
X588201Y766070D02*
X606701D01*
X588201Y765170D02*
X606701D01*
X588201Y764270D02*
X606701D01*
X588201Y763370D02*
X606701D01*
X588201Y762470D02*
X606701D01*
X588201Y761570D02*
X606701D01*
X588201Y760670D02*
X606701D01*
X588201Y759770D02*
X606701D01*
X588201Y758870D02*
X606701D01*
X588201Y757970D02*
X606701D01*
X588201Y757070D02*
X606701D01*
X588201Y756170D02*
X606701D01*
X588201Y755270D02*
X606701D01*
X588201Y754370D02*
X606701D01*
X588201Y753470D02*
X606701D01*
X588201Y752570D02*
X606701D01*
X588201Y751670D02*
X606701D01*
X588201Y750770D02*
X606701D01*
X588201Y749870D02*
X606701D01*
X588201Y748970D02*
X606701D01*
X588201Y748070D02*
X606701D01*
X588201Y747170D02*
X606701D01*
X588201Y746270D02*
X606701D01*
X588201Y745370D02*
X606701D01*
X588201Y744470D02*
X606701D01*
X588201Y743570D02*
X606701D01*
X588201Y742670D02*
X606701D01*
X588201Y741770D02*
X606701D01*
X588201Y740870D02*
X606701D01*
X588201Y739970D02*
X606701D01*
X588201Y739070D02*
X606701D01*
X588201Y738170D02*
X606701D01*
X588201Y737270D02*
X606701D01*
X588201Y736370D02*
X606701D01*
X588201Y735470D02*
X606701D01*
X588201Y734570D02*
X606701D01*
X588201Y733670D02*
X606701D01*
X588201Y732770D02*
X606701D01*
X588201Y731870D02*
X606701D01*
X588201Y730970D02*
X606701D01*
X588201Y730070D02*
X606701D01*
X588201Y729170D02*
X606701D01*
X588201Y728270D02*
X606701D01*
X588201Y727370D02*
X606701D01*
X588201Y726470D02*
X606701D01*
X588201Y725570D02*
X606701D01*
X588201Y724670D02*
X606701D01*
X588201Y723770D02*
X606701D01*
X588201Y722870D02*
X606701D01*
X588201Y721970D02*
X606701D01*
X588201Y721070D02*
X606701D01*
X588201Y720170D02*
X606701D01*
X588201Y719270D02*
X606701D01*
X588201Y718370D02*
X606701D01*
X588201Y717470D02*
X606701D01*
X588201Y716570D02*
X606701D01*
X588201Y715670D02*
X606701D01*
X588201Y714770D02*
X606701D01*
X588201Y713870D02*
X606701D01*
X588201Y712970D02*
X606701D01*
X588201Y712070D02*
X606701D01*
X588201Y711170D02*
X606701D01*
X588201Y710270D02*
X606701D01*
X588201Y709370D02*
X606701D01*
X588201Y708470D02*
X606701D01*
X588201Y707570D02*
X606701D01*
X588201Y706670D02*
X606701D01*
X588201Y705770D02*
X606701D01*
X588201Y704870D02*
X606701D01*
X588201Y703970D02*
X606701D01*
X588201Y703070D02*
X606701D01*
X588201Y702170D02*
X606701D01*
X588201Y701270D02*
X606701D01*
X588201Y700370D02*
X606701D01*
X588201Y699470D02*
X606701D01*
X588201Y698570D02*
X606701D01*
X588201Y697670D02*
X606701D01*
X588201Y696770D02*
X606701D01*
X588201Y695870D02*
X606701D01*
X588201Y694970D02*
X606701D01*
X588201Y694070D02*
X606701D01*
X588201Y693170D02*
X606701D01*
X588201Y692270D02*
X606701D01*
X588201Y691370D02*
X606701D01*
X588201Y690470D02*
X606701D01*
X588201Y689570D02*
X606701D01*
X588201Y688670D02*
X606701D01*
X588201Y687770D02*
X606701D01*
X588201Y686870D02*
X606701D01*
X588201Y685970D02*
X606701D01*
X588201Y685070D02*
X606701D01*
X588201Y684170D02*
X606701D01*
X588201Y683270D02*
X606701D01*
X588201Y682370D02*
X606701D01*
X588201Y681470D02*
X606701D01*
X588201Y680570D02*
X606701D01*
X588201Y679670D02*
X606701D01*
X588201Y678770D02*
X606701D01*
X588201Y677870D02*
X606701D01*
X588201Y676970D02*
X606701D01*
X588201Y676070D02*
X606701D01*
X588201Y675170D02*
X606701D01*
X588201Y674270D02*
X606701D01*
X588201Y673370D02*
X606701D01*
X588201Y672470D02*
X606701D01*
X588201Y671570D02*
X606701D01*
X588201Y670670D02*
X606701D01*
X518701Y669770D02*
X606701D01*
X518701Y668870D02*
X606701D01*
X518701Y667970D02*
X606701D01*
X518701Y667070D02*
X606701D01*
X518701Y666170D02*
X606701D01*
X518701Y665270D02*
X606701D01*
X518701Y664370D02*
X606701D01*
X518701Y663470D02*
X606701D01*
X518701Y662570D02*
X606701D01*
X518701Y661670D02*
X606701D01*
X518701Y660770D02*
X606701D01*
X518701Y659870D02*
X606701D01*
X518701Y658970D02*
X606701D01*
X518701Y658070D02*
X606701D01*
X518701Y657170D02*
X606701D01*
X518701Y656270D02*
X606701D01*
X518701Y655370D02*
X606701D01*
X518701Y654470D02*
X606701D01*
X518701Y653570D02*
X606701D01*
X518701Y652670D02*
X606701D01*
X518701Y651770D02*
X606701D01*
X518701Y650870D02*
X606701D01*
X518701Y649970D02*
X606701D01*
X518701Y649070D02*
X606701D01*
X518701Y648170D02*
X606701D01*
X518701Y647270D02*
X606701D01*
X518701Y646370D02*
X606701D01*
X518701Y645470D02*
X606701D01*
X518701Y644570D02*
X606701D01*
X518701Y643670D02*
X606701D01*
X518701Y642770D02*
X606701D01*
X518701Y641870D02*
X606701D01*
X518701Y640970D02*
X606701D01*
X518701Y640070D02*
X606701D01*
X518701Y639170D02*
X606701D01*
X518701Y638270D02*
X606701D01*
X518701Y637370D02*
X606701D01*
X518701Y636470D02*
X606701D01*
X518701Y635570D02*
X606701D01*
X518701Y634670D02*
X606701D01*
X518701Y633770D02*
X606701D01*
X518701Y632870D02*
X606701D01*
X518701Y631970D02*
X606701D01*
X518701Y631070D02*
X606701D01*
X518701Y630170D02*
X606701D01*
X518701Y629270D02*
X606701D01*
X518701Y628370D02*
X606701D01*
X518701Y627470D02*
X606701D01*
X518701Y626570D02*
X606701D01*
X518701Y625670D02*
X606701D01*
X518701Y624770D02*
X606701D01*
X474101Y623870D02*
X606701D01*
X474101Y622970D02*
X606701D01*
X474101Y622070D02*
X606701D01*
X474101Y621170D02*
X606701D01*
X474101Y620270D02*
X606701D01*
X474101Y619370D02*
X606701D01*
X474101Y618470D02*
X606701D01*
X474101Y617570D02*
X606701D01*
X474101Y616670D02*
X606701D01*
X474101Y615770D02*
X606701D01*
X474101Y614870D02*
X606701D01*
X474101Y613970D02*
X606701D01*
X474101Y613070D02*
X606701D01*
X474101Y612170D02*
X606701D01*
X474101Y611270D02*
X606701D01*
X474101Y610370D02*
X606701D01*
X474101Y609470D02*
X606701D01*
X474101Y608570D02*
X606701D01*
X474101Y607670D02*
X606701D01*
X474101Y606770D02*
X606701D01*
X474101Y605870D02*
X606701D01*
X474101Y604970D02*
X606701D01*
X474101Y604070D02*
X606701D01*
X474101Y603170D02*
X606701D01*
X474101Y602270D02*
X606701D01*
X474101Y601370D02*
X606701D01*
X474101Y600470D02*
X606701D01*
X474101Y599570D02*
X606701D01*
X474101Y598670D02*
X606701D01*
X474101Y597770D02*
X606701D01*
X474101Y596870D02*
X606701D01*
X474101Y595970D02*
X606701D01*
X474101Y595070D02*
X606701D01*
X500681Y594170D02*
X606701D01*
X502475Y593270D02*
X606701D01*
X502925Y592370D02*
X606701D01*
X502982Y591470D02*
X606701D01*
X502679Y590570D02*
X606701D01*
X501760Y589670D02*
X606701D01*
X474101Y588770D02*
X606701D01*
X502391Y587870D02*
X606701D01*
X502897Y586970D02*
X606701D01*
X502992Y586070D02*
X606701D01*
X502733Y585170D02*
X606701D01*
X501925Y584270D02*
X606701D01*
X474101Y583370D02*
X606701D01*
X474101Y582470D02*
X606701D01*
X474101Y581570D02*
X606701D01*
X474101Y580670D02*
X606701D01*
X474101Y579770D02*
X606701D01*
X474101Y578870D02*
X606701D01*
X474101Y577970D02*
X606701D01*
X474101Y577070D02*
X606701D01*
X474101Y576170D02*
X606701D01*
X474101Y575270D02*
X606701D01*
X474101Y574370D02*
X606701D01*
X474101Y573470D02*
X606701D01*
X474101Y572570D02*
X606701D01*
X474101Y571670D02*
X606701D01*
X474101Y570770D02*
X606701D01*
X474101Y569870D02*
X606701D01*
X474101Y568970D02*
X606701D01*
X474101Y568070D02*
X606701D01*
X474101Y567170D02*
X606701D01*
X474101Y566270D02*
X606701D01*
X474101Y565370D02*
X606701D01*
X474101Y564470D02*
X606701D01*
X474101Y563570D02*
X606701D01*
X474101Y562670D02*
X606701D01*
X474101Y561770D02*
X606701D01*
X474101Y560870D02*
X606701D01*
X474101Y559970D02*
X606701D01*
X474101Y559070D02*
X606701D01*
X474101Y558170D02*
X606701D01*
X474101Y557270D02*
X606701D01*
X474101Y556370D02*
X606701D01*
X474101Y555470D02*
X606701D01*
X474101Y554570D02*
X606701D01*
X474101Y553670D02*
X606701D01*
X474101Y552770D02*
X606701D01*
X474101Y551870D02*
X606701D01*
X474101Y550970D02*
X606701D01*
X474101Y550070D02*
X606701D01*
X474101Y549170D02*
X606701D01*
X474101Y548270D02*
X606701D01*
X474101Y547370D02*
X606701D01*
X474101Y546470D02*
X606701D01*
X474101Y545570D02*
X606701D01*
X474101Y544670D02*
X606701D01*
X474101Y543770D02*
X606701D01*
X474101Y542870D02*
X606701D01*
X474101Y541970D02*
X606701D01*
X474101Y541070D02*
X606701D01*
X474101Y540170D02*
X606701D01*
X474101Y539270D02*
X606701D01*
X474101Y538370D02*
X606701D01*
X474101Y537470D02*
X606701D01*
X474101Y536570D02*
X606701D01*
X474101Y535670D02*
X606701D01*
X474101Y534770D02*
X606701D01*
X474101Y533870D02*
X606701D01*
X474101Y532970D02*
X606701D01*
X474101Y532070D02*
X606701D01*
X474101Y531170D02*
X606701D01*
X474101Y530270D02*
X606701D01*
X474101Y529370D02*
X606701D01*
X474101Y528470D02*
X606701D01*
X474101Y527570D02*
X606701D01*
X510101Y526670D02*
X606701D01*
X510101Y525770D02*
X606701D01*
X510101Y524870D02*
X606701D01*
X510101Y523970D02*
X606701D01*
X510101Y523070D02*
X606701D01*
X510101Y522170D02*
X606701D01*
X510101Y521270D02*
X606701D01*
X510101Y520370D02*
X606701D01*
X510101Y519470D02*
X606701D01*
X510101Y518570D02*
X606701D01*
X510101Y517670D02*
X606701D01*
X510101Y516770D02*
X606701D01*
X510101Y515870D02*
X606701D01*
X510101Y514970D02*
X606701D01*
X510101Y514070D02*
X606701D01*
X510101Y513170D02*
X606701D01*
X510101Y512270D02*
X606701D01*
X510101Y511370D02*
X606701D01*
X510101Y510470D02*
X606701D01*
X510101Y509570D02*
X606701D01*
X510101Y508670D02*
X606701D01*
X510101Y507770D02*
X606701D01*
X510101Y506870D02*
X606701D01*
X510101Y505970D02*
X606701D01*
X510101Y505070D02*
X606701D01*
X510101Y504170D02*
X606701D01*
X510101Y503270D02*
X606701D01*
X510101Y502370D02*
X606701D01*
X510101Y501470D02*
X606701D01*
X510101Y500570D02*
X606701D01*
X510101Y499670D02*
X606701D01*
X510101Y498770D02*
X606701D01*
X510101Y497870D02*
X606701D01*
X510101Y496970D02*
X606701D01*
X510101Y496070D02*
X606701D01*
X510101Y495170D02*
X606701D01*
X510101Y494270D02*
X606701D01*
X510101Y493370D02*
X606701D01*
X510101Y492470D02*
X606701D01*
X510101Y491570D02*
X606701D01*
X510101Y490670D02*
X606701D01*
X510101Y489770D02*
X606701D01*
X510101Y488870D02*
X606701D01*
X510101Y487970D02*
X606701D01*
X510101Y487070D02*
X606701D01*
X510101Y486170D02*
X606701D01*
X510101Y485270D02*
X606701D01*
X510101Y484370D02*
X606701D01*
X510101Y483470D02*
X606701D01*
X510101Y482570D02*
X606701D01*
X510101Y481670D02*
X606701D01*
X422701Y480770D02*
X606701D01*
X422701Y479870D02*
X606701D01*
X422701Y478970D02*
X606701D01*
X422701Y478070D02*
X606701D01*
X422701Y477170D02*
X606701D01*
X422701Y476270D02*
X606701D01*
X422701Y475370D02*
X606701D01*
X452593Y474470D02*
X606701D01*
X453357Y473570D02*
X606701D01*
X484153Y472670D02*
X606701D01*
X485524Y471770D02*
X606701D01*
X485940Y470870D02*
X606701D01*
X485973Y469970D02*
X606701D01*
X485641Y469070D02*
X606701D01*
X484638Y468170D02*
X606701D01*
X422701Y467270D02*
X606701D01*
X452511Y466370D02*
X606701D01*
X484506Y465470D02*
X606701D01*
X485603Y464570D02*
X606701D01*
X485963Y463670D02*
X606701D01*
X485953Y462770D02*
X606701D01*
X485566Y461870D02*
X606701D01*
X484358Y460970D02*
X606701D01*
X456601Y460070D02*
X606701D01*
X456601Y459170D02*
X606701D01*
X456601Y458270D02*
X606701D01*
X456601Y457370D02*
X606701D01*
X456601Y456470D02*
X606701D01*
X484721Y455570D02*
X606701D01*
X485337Y454670D02*
X606701D01*
X485501Y453770D02*
X606701D01*
X485314Y452870D02*
X606701D01*
X484654Y451970D02*
X606701D01*
X456601Y451070D02*
X606701D01*
X456601Y450170D02*
X606701D01*
X456601Y449270D02*
X606701D01*
X456601Y448370D02*
X606701D01*
X456601Y447470D02*
X606701D01*
X456601Y446570D02*
X606701D01*
X463005Y445670D02*
X606701D01*
X558614Y801170D02*
X592634D01*
X574595Y812870D02*
X592255D01*
X559167Y802070D02*
X590844D01*
X574487Y811970D02*
X590669D01*
X559387Y802970D02*
X589852D01*
X573962Y811070D02*
X589737D01*
X559344Y803870D02*
X589188D01*
X558319Y810170D02*
X589109D01*
X559028Y804770D02*
X588737D01*
X559028Y809270D02*
X588685D01*
X558614Y805670D02*
X588452D01*
X559344Y808370D02*
X588423D01*
X559167Y806570D02*
X588310D01*
X559387Y807470D02*
X588300D01*
X548101Y814670D02*
X570829D01*
X548101Y811070D02*
X570440D01*
X548101Y813770D02*
X570052D01*
X548101Y811970D02*
X569915D01*
X548101Y812870D02*
X569807D01*
X552311Y795770D02*
X555091D01*
X553319Y810170D02*
X554083D01*
X553614Y796670D02*
X553787D01*
X548101Y791270D02*
X551372D01*
X548101Y787670D02*
X550913D01*
X548101Y790370D02*
X550567D01*
X548101Y788570D02*
X550406D01*
X548101Y789470D02*
X550309D01*
X548101Y795770D02*
X550091D01*
X548101Y810170D02*
X549083D01*
X548101Y796670D02*
X548787D01*
X548101Y809270D02*
X548373D01*
X548101Y797570D02*
X548235D01*
X474101Y594170D02*
X500521D01*
X474101Y589670D02*
X499441D01*
X474101Y584270D02*
X499276D01*
X474101Y587870D02*
X498811D01*
X474101Y593270D02*
X498726D01*
X474101Y590570D02*
X498523D01*
X474101Y585170D02*
X498468D01*
X474101Y586970D02*
X498305D01*
X474101Y592370D02*
X498277D01*
X474101Y591470D02*
X498220D01*
X474101Y586070D02*
X498209D01*
X453596Y472670D02*
X483049D01*
X456601Y460970D02*
X482843D01*
X453263Y465470D02*
X482695D01*
X422701Y468170D02*
X482564D01*
X453482Y471770D02*
X481678D01*
X456601Y461870D02*
X481635D01*
X453497Y464570D02*
X481598D01*
X422701Y469070D02*
X481561D01*
X456601Y451970D02*
X481547D01*
X456601Y455570D02*
X481481D01*
X452948Y470870D02*
X481261D01*
X456601Y462770D02*
X481249D01*
X456601Y463670D02*
X481238D01*
X422701Y469970D02*
X481229D01*
X456601Y452870D02*
X480888D01*
X456601Y454670D02*
X480864D01*
X456601Y453770D02*
X480701D01*
X456601Y445670D02*
X459197D01*
X422701Y474470D02*
X449808D01*
X422701Y466370D02*
X449690D01*
X422701Y470870D02*
X449453D01*
X422701Y473570D02*
X449045D01*
X422701Y465470D02*
X448939D01*
X422701Y471770D02*
X448919D01*
X422701Y472670D02*
X448806D01*
X422701Y464570D02*
X448705D01*
X393701Y826772D02*
X614173D01*
Y393701*
X393701*
Y826772*
G74*
X0Y0D02*
M02*
