*
*
G04 PADS 9.5 Build Number: 522968 generated Gerber (RS-274-X) file*
G04 PC Version=2.1*
*
%IN "Pi-Program-Iss1.2.pcb"*%
*
%MOIN*%
*
%FSLAX35Y35*%
*
*
*
*
G04 PC Standard Apertures*
*
*
G04 Thermal Relief Aperture macro.*
%AMTER*
1,1,$1,0,0*
1,0,$1-$2,0,0*
21,0,$3,$4,0,0,45*
21,0,$3,$4,0,0,135*
%
*
*
G04 Annular Aperture macro.*
%AMANN*
1,1,$1,0,0*
1,0,$2,0,0*
%
*
*
G04 Odd Aperture macro.*
%AMODD*
1,1,$1,0,0*
1,0,$1-0.005,0,0*
%
*
*
G04 PC Custom Aperture Macros*
*
*
*
*
*
*
G04 PC Aperture Table*
*
%ADD010C,0.001*%
%ADD027C,0.01*%
*
*
*
*
G04 PC Circuitry*
G04 Layer Name Pi-Program-Iss1.2.pcb - circuitry*
%LPD*%
*
*
G04 PC Custom Flashes*
G04 Layer Name Pi-Program-Iss1.2.pcb - flashes*
%LPD*%
*
*
G04 PC Circuitry*
G04 Layer Name Pi-Program-Iss1.2.pcb - circuitry*
%LPD*%
*
G54D10*
G01X393701Y826772D02*
X393703D01*
X614173D02*
X614176D01*
X614173Y393701D02*
X614176D01*
X614173Y826772D02*
X614176D01*
G54D27*
X269474Y784834D02*
Y779834D01*
X269246Y778897*
X269019Y778584*
X268564Y778272*
X268110*
X267655Y778584*
X267428Y778897*
X267201Y779834*
Y780459*
X271519Y784834D02*
Y778272D01*
X274246*
X279701Y783272D02*
X279474Y783897D01*
X279019Y784522*
X278564Y784834*
X277655*
X277201Y784522*
X276746Y783897*
X276519Y783272*
X276292Y782334*
Y780772*
X276519Y779834*
X276746Y779209*
X277201Y778584*
X277655Y778272*
X278564*
X279019Y778584*
X279474Y779209*
X279701Y779834*
X282201Y784834D02*
X284701D01*
X283337Y782334*
X284019*
X284474Y782022*
X284701Y781709*
X284928Y780772*
Y780147*
X284701Y779209*
X284246Y778584*
X283564Y778272*
X282883*
X282201Y778584*
X281974Y778897*
X281746Y779522*
X287428Y784834D02*
X289928D01*
X288564Y782334*
X289246*
X289701Y782022*
X289928Y781709*
X290155Y780772*
Y780147*
X289928Y779209*
X289474Y778584*
X288792Y778272*
X288110*
X287428Y778584*
X287201Y778897*
X286974Y779522*
X292201Y783584D02*
X292655Y783897D01*
X293337Y784834*
Y778272*
X295837Y784834D02*
X298337D01*
X296974Y782334*
X297655*
X298110Y782022*
X298337Y781709*
X298564Y780772*
Y780147*
X298337Y779209*
X297883Y778584*
X297201Y778272*
X296519*
X295837Y778584*
X295610Y778897*
X295383Y779522*
X314246Y783897D02*
X313792Y784522D01*
X313110Y784834*
X312201*
X311519Y784522*
X311064Y783897*
Y783272*
X311292Y782647*
X311519Y782334*
X311974Y782022*
X313337Y781397*
X313792Y781084*
X314019Y780772*
X314246Y780147*
Y779209*
X313792Y778584*
X313110Y778272*
X312201*
X311519Y778584*
X311064Y779209*
X316974Y784834D02*
Y779522D01*
X317201Y778584*
X317655Y778272*
X318110*
X316292Y782647D02*
X317883D01*
X322883D02*
Y778272D01*
Y781709D02*
X322428Y782334D01*
X321974Y782647*
X321292*
X320837Y782334*
X320383Y781709*
X320155Y780772*
Y780147*
X320383Y779209*
X320837Y778584*
X321292Y778272*
X321974*
X322428Y778584*
X322883Y779209*
X327655Y781709D02*
X327201Y782334D01*
X326746Y782647*
X326064*
X325610Y782334*
X325155Y781709*
X324928Y780772*
Y780147*
X325155Y779209*
X325610Y778584*
X326064Y778272*
X326746*
X327201Y778584*
X327655Y779209*
X329701Y784834D02*
Y778272D01*
X331974Y782647D02*
X329701Y779522D01*
X330610Y780772D02*
X332201Y778272D01*
X334246Y782647D02*
Y779522D01*
X334474Y778584*
X334928Y778272*
X335610*
X336064Y778584*
X336746Y779522*
Y782647D02*
Y778272D01*
X338792Y782647D02*
Y776084D01*
Y781709D02*
X339246Y782334D01*
X339701Y782647*
X340383*
X340837Y782334*
X341292Y781709*
X341519Y780772*
Y780147*
X341292Y779209*
X340837Y778584*
X340383Y778272*
X339701*
X339246Y778584*
X338792Y779209*
X270883Y770834D02*
X268610D01*
X268383Y768022*
X268610Y768334*
X269292Y768647*
X269974*
X270655Y768334*
X271110Y767709*
X271337Y766772*
X271110Y766147*
X270883Y765209*
X270428Y764584*
X269746Y764272*
X269064*
X268383Y764584*
X268155Y764897*
X267928Y765522*
X273610Y764897D02*
X273383Y764584D01*
X273610Y764272*
X273837Y764584*
X273610Y764897*
X278837Y768647D02*
X278610Y767709D01*
X278155Y767084*
X277474Y766772*
X277246*
X276564Y767084*
X276110Y767709*
X275883Y768647*
Y768959*
X276110Y769897*
X276564Y770522*
X277246Y770834*
X277474*
X278155Y770522*
X278610Y769897*
X278837Y768647*
Y767084*
X278610Y765522*
X278155Y764584*
X277474Y764272*
X277019*
X276337Y764584*
X276110Y765209*
X283837Y770834D02*
X281564D01*
X281337Y768022*
X281564Y768334*
X282246Y768647*
X282928*
X283610Y768334*
X284064Y767709*
X284292Y766772*
X284064Y766147*
X283837Y765209*
X283383Y764584*
X282701Y764272*
X282019*
X281337Y764584*
X281110Y764897*
X280883Y765522*
X286337Y768647D02*
Y764272D01*
Y767397D02*
X287019Y768334D01*
X287474Y768647*
X288155*
X288610Y768334*
X288837Y767397*
Y764272*
Y767397D02*
X289519Y768334D01*
X289974Y768647*
X290655*
X291110Y768334*
X291337Y767397*
Y764272*
X293383Y770834D02*
X293610Y770522D01*
X293837Y770834*
X293610Y771147*
X293383Y770834*
X293610Y768647D02*
Y764272D01*
X295883Y770834D02*
Y764272D01*
X303155Y772084D02*
Y762084D01*
X313610Y770834D02*
X311337Y764272D01*
X310428Y770834D02*
X313610D01*
X315655Y768647D02*
Y764272D01*
Y767397D02*
X316337Y768334D01*
X316792Y768647*
X317474*
X317928Y768334*
X318155Y767397*
Y764272*
Y767397D02*
X318837Y768334D01*
X319292Y768647*
X319974*
X320428Y768334*
X320655Y767397*
Y764272*
X322701Y770834D02*
X322928Y770522D01*
X323155Y770834*
X322928Y771147*
X322701Y770834*
X322928Y768647D02*
Y764272D01*
X325201Y770834D02*
Y764272D01*
X332474Y768022D02*
X336564D01*
X332474Y766147D02*
X336564D01*
X346792Y768647D02*
X346564Y767709D01*
X346110Y767084*
X345428Y766772*
X345201*
X344519Y767084*
X344064Y767709*
X343837Y768647*
Y768959*
X344064Y769897*
X344519Y770522*
X345201Y770834*
X345428*
X346110Y770522*
X346564Y769897*
X346792Y768647*
Y767084*
X346564Y765522*
X346110Y764584*
X345428Y764272*
X344974*
X344292Y764584*
X344064Y765209*
X350201Y770834D02*
X349519Y770522D01*
X349064Y769584*
X348837Y768022*
Y767084*
X349064Y765522*
X349519Y764584*
X350201Y764272*
X350655*
X351337Y764584*
X351792Y765522*
X352019Y767084*
Y768022*
X351792Y769584*
X351337Y770522*
X350655Y770834*
X350201*
X354064D02*
Y764272D01*
Y770834D02*
X356110D01*
X356792Y770522*
X357019Y770209*
X357246Y769584*
Y768959*
X357019Y768334*
X356792Y768022*
X356110Y767709*
X354064*
X355655D02*
X357246Y764272D01*
X364519Y770834D02*
Y764272D01*
Y770834D02*
X367474D01*
X364519Y767709D02*
X366337D01*
X364519Y764272D02*
X367474D01*
X372928Y769272D02*
X372701Y769897D01*
X372246Y770522*
X371792Y770834*
X370883*
X370428Y770522*
X369974Y769897*
X369746Y769272*
X369519Y768334*
Y766772*
X369746Y765834*
X369974Y765209*
X370428Y764584*
X370883Y764272*
X371792*
X372246Y764584*
X372701Y765209*
X372928Y765834*
X380201Y770834D02*
Y766147D01*
X380428Y765209*
X380883Y764584*
X381564Y764272*
X382019*
X382701Y764584*
X383155Y765209*
X383383Y766147*
Y770834*
X388610Y769897D02*
X388155Y770522D01*
X387474Y770834*
X386564*
X385883Y770522*
X385428Y769897*
Y769272*
X385655Y768647*
X385883Y768334*
X386337Y768022*
X387701Y767397*
X388155Y767084*
X388383Y766772*
X388610Y766147*
Y765209*
X388155Y764584*
X387474Y764272*
X386564*
X385883Y764584*
X385428Y765209*
X390655Y770834D02*
Y764272D01*
Y770834D02*
X392701D01*
X393383Y770522*
X393610Y770209*
X393837Y769584*
Y768959*
X393610Y768334*
X393383Y768022*
X392701Y767709*
X390655D02*
X392701D01*
X393383Y767397*
X393610Y767084*
X393837Y766459*
Y765522*
X393610Y764897*
X393383Y764584*
X392701Y764272*
X390655*
X461101Y701178D02*
X465101Y705178D01*
X461101Y709178*
X457101Y705178*
X461101Y701178*
Y705178D02*
Y709178D01*
X457101Y438382D02*
X465101D01*
Y446382*
X457101*
Y438382*
X461101Y442382D02*
Y446382D01*
X590488Y807087D02*
X598488D01*
X594488Y803087D02*
Y811087D01*
X590488Y413386D02*
X598488D01*
X594488Y409386D02*
Y417386D01*
X409386Y807087D02*
X417386D01*
X413386Y803087D02*
Y811087D01*
X409386Y413386D02*
X417386D01*
X413386Y409386D02*
Y417386D01*
X454975Y806154D02*
X462975Y814154D01*
Y806154*
X454975Y814154*
Y806154*
X439227D02*
X447227Y814154D01*
Y806154*
X439227Y814154*
Y806154*
X547201Y803772D02*
X555201D01*
X547201Y811772*
X555201*
X547201Y803772*
X552201Y799272D02*
X560201D01*
X552201Y807272*
X560201*
X552201Y799272*
X547201Y794772D02*
X555201D01*
X547201Y802772*
X555201*
X547201Y794772*
Y799272D02*
X555201D01*
X547201Y807272*
X555201*
X547201Y799272*
X552201Y794772D02*
X560201D01*
X552201Y802772*
X560201*
X552201Y794772*
Y803772D02*
X560201D01*
X552201Y811772*
X560201*
X552201Y803772*
X531701Y755201D02*
X539701D01*
X531701Y763201*
X539701*
X531701Y755201*
X549201D02*
X557201D01*
X549201Y763201*
X557201*
X549201Y755201*
X531701Y750701D02*
X539701D01*
X531701Y758701*
X539701*
X531701Y750701*
X549201D02*
X557201D01*
X549201Y758701*
X557201*
X549201Y750701*
X543201Y758701D02*
X551201D01*
X543201Y766701*
X551201*
X543201Y758701*
X537701Y758772D02*
X545701D01*
X537701Y766772*
X545701*
X537701Y758772*
Y747201D02*
X545701D01*
X537701Y755201*
X545701*
X537701Y747201*
X543201D02*
X551201D01*
X543201Y755201*
X551201*
X543201Y747201*
X407772Y450244D02*
X415772Y458244D01*
X407772D02*
X415772Y450244D01*
X407732Y444299D02*
X415732Y452299D01*
X407732D02*
X415732Y444299D01*
X414031D02*
X422031Y452299D01*
X414031D02*
X422031Y444299D01*
X407732Y433551D02*
X415732Y441551D01*
X407732D02*
X415732Y433551D01*
X407732Y438591D02*
X415732Y446591D01*
X407732D02*
X415732Y438591D01*
X407772Y456110D02*
X415772Y464110D01*
X407772D02*
X415772Y456110D01*
X407614Y462213D02*
X415614Y470213D01*
X407614D02*
X415614Y462213D01*
X421201Y431701D02*
X429201Y439701D01*
X421201D02*
X429201Y431701D01*
X421201Y442201D02*
X429201Y450201D01*
X421201D02*
X429201Y442201D01*
X421201Y454201D02*
X429201Y462201D01*
X421201D02*
X429201Y454201D01*
X421201Y448201D02*
X429201Y456201D01*
X421201D02*
X429201Y448201D01*
X421201Y437201D02*
X429201Y445201D01*
X421201D02*
X429201Y437201D01*
X421701Y462272D02*
X429701Y470272D01*
X421701D02*
X429701Y462272D01*
X479601Y459248D02*
X487601Y467248D01*
X479601D02*
X487601Y459248D01*
X479101Y449800D02*
X487101Y457800D01*
X479101D02*
X487101Y449800D01*
X447101Y450981D02*
X455101Y458981D01*
X447101D02*
X455101Y450981D01*
X447101Y460429D02*
X455101Y468429D01*
X447101D02*
X455101Y460429D01*
X407693Y470323D02*
X415693Y478323D01*
X407693D02*
X415693Y470323D01*
X407732Y466268D02*
X415732Y474268D01*
X407732D02*
X415732Y466268D01*
X435101Y488772D02*
X443101Y496772D01*
X435101D02*
X443101Y488772D01*
X435101Y481772D02*
X443101Y489772D01*
X435101D02*
X443101Y481772D01*
X410501Y497055D02*
X418501Y505055D01*
X410501D02*
X418501Y497055D01*
X421701Y471201D02*
X429701Y479201D01*
X421701D02*
X429701Y471201D01*
X421701Y466701D02*
X429701Y474701D01*
X421701D02*
X429701Y466701D01*
X447101Y502949D02*
X455101Y510949D01*
X447101D02*
X455101Y502949D01*
X447101Y495863D02*
X455101Y503863D01*
X447101D02*
X455101Y495863D01*
X467181Y501780D02*
X475181Y509780D01*
X467181D02*
X475181Y501780D01*
X467181Y487606D02*
X475181Y495606D01*
X467181D02*
X475181Y487606D01*
X467181Y480520D02*
X475181Y488520D01*
X467181D02*
X475181Y480520D01*
X479601Y466335D02*
X487601Y474335D01*
X479601D02*
X487601Y466335D01*
X447201Y468516D02*
X455201Y476516D01*
X447201D02*
X455201Y468516D01*
X496601Y483272D02*
X504601Y491272D01*
X496601D02*
X504601Y483272D01*
X496601Y488772D02*
X504601Y496772D01*
X496601D02*
X504601Y488772D01*
X467181Y537213D02*
X475181Y545213D01*
X467181D02*
X475181Y537213D01*
X467181Y523039D02*
X475181Y531039D01*
X467181D02*
X475181Y523039D01*
X467181Y515953D02*
X475181Y523953D01*
X467181D02*
X475181Y515953D01*
X467181Y508866D02*
X475181Y516866D01*
X467181D02*
X475181Y508866D01*
X447101Y538382D02*
X455101Y546382D01*
X447101D02*
X455101Y538382D01*
X447101Y531296D02*
X455101Y539296D01*
X447101D02*
X455101Y531296D01*
X447101Y524209D02*
X455101Y532209D01*
X447101D02*
X455101Y524209D01*
X447101Y517122D02*
X455101Y525122D01*
X447101D02*
X455101Y517122D01*
X447101Y510036D02*
X455101Y518036D01*
X447101D02*
X455101Y510036D01*
X467181Y544299D02*
X475181Y552299D01*
X467181D02*
X475181Y544299D01*
X467181Y551268D02*
X475181Y559268D01*
X467181D02*
X475181Y551268D01*
X467181Y558472D02*
X475181Y566472D01*
X467181D02*
X475181Y558472D01*
X467181Y565559D02*
X475181Y573559D01*
X467181D02*
X475181Y565559D01*
X467181Y572646D02*
X475181Y580646D01*
X467181D02*
X475181Y572646D01*
X467181Y579732D02*
X475181Y587732D01*
X467181D02*
X475181Y579732D01*
X447101Y580902D02*
X455101Y588902D01*
X447101D02*
X455101Y580902D01*
X447101Y573815D02*
X455101Y581815D01*
X447101D02*
X455101Y573815D01*
X447101Y566729D02*
X455101Y574729D01*
X447101D02*
X455101Y566729D01*
X447101Y559642D02*
X455101Y567642D01*
X447101D02*
X455101Y559642D01*
X447101Y552555D02*
X455101Y560555D01*
X447101D02*
X455101Y552555D01*
X447101Y545469D02*
X455101Y553469D01*
X447101D02*
X455101Y545469D01*
X496601Y582272D02*
X504601Y590272D01*
X496601D02*
X504601Y582272D01*
X497201Y568772D02*
X505201Y576772D01*
X497201D02*
X505201Y568772D01*
X497101Y576272D02*
X505101Y584272D01*
X497101D02*
X505101Y576272D01*
X467181Y586819D02*
X475181Y594819D01*
X467181D02*
X475181Y586819D01*
X467181Y593906D02*
X475181Y601906D01*
X467181D02*
X475181Y593906D01*
X467181Y600992D02*
X475181Y608992D01*
X467181D02*
X475181Y600992D01*
X467181Y608079D02*
X475181Y616079D01*
X467181D02*
X475181Y608079D01*
X467181Y615165D02*
X475181Y623165D01*
X467181D02*
X475181Y615165D01*
X467181Y622252D02*
X475181Y630252D01*
X467181D02*
X475181Y622252D01*
X447101Y623422D02*
X455101Y631422D01*
X447101D02*
X455101Y623422D01*
X447101Y616335D02*
X455101Y624335D01*
X447101D02*
X455101Y616335D01*
X447101Y609248D02*
X455101Y617248D01*
X447101D02*
X455101Y609248D01*
X447101Y602162D02*
X455101Y610162D01*
X447101D02*
X455101Y602162D01*
X447101Y595075D02*
X455101Y603075D01*
X447101D02*
X455101Y595075D01*
X447101Y587989D02*
X455101Y595989D01*
X447101D02*
X455101Y587989D01*
X496601Y587772D02*
X504601Y595772D01*
X496601D02*
X504601Y587772D01*
X434101Y651772D02*
X442101Y659772D01*
X434101D02*
X442101Y651772D01*
X433601Y632870D02*
X441601Y640870D01*
X433601D02*
X441601Y632870D01*
X480701Y652087D02*
X488701Y660087D01*
X480701D02*
X488701Y652087D01*
X467181Y657685D02*
X475181Y665685D01*
X467181D02*
X475181Y657685D01*
X447102Y658866D02*
X455102Y666866D01*
X447102D02*
X455102Y658866D01*
X467181Y629260D02*
X475181Y637260D01*
X467181D02*
X475181Y629260D01*
X447101Y630508D02*
X455101Y638508D01*
X447101D02*
X455101Y630508D01*
X492683Y628272D02*
X500683Y636272D01*
X492683D02*
X500683Y628272D01*
X492701Y654272D02*
X500701Y662272D01*
X492701D02*
X500701Y654272D01*
X492683Y643272D02*
X500683Y651272D01*
X492683D02*
X500683Y643272D01*
X486483Y628272D02*
X494483Y636272D01*
X486483D02*
X494483Y628272D01*
X486483Y643272D02*
X494483Y651272D01*
X486483D02*
X494483Y643272D01*
X467181Y678945D02*
X475181Y686945D01*
X467181D02*
X475181Y678945D01*
X467181Y664772D02*
X475181Y672772D01*
X467181D02*
X475181Y664772D01*
X467181Y671858D02*
X475181Y679858D01*
X467181D02*
X475181Y671858D01*
X447102Y665953D02*
X455102Y673953D01*
X447102D02*
X455102Y665953D01*
X447102Y673039D02*
X455102Y681039D01*
X447102D02*
X455102Y673039D01*
X447102Y680126D02*
X455102Y688126D01*
X447102D02*
X455102Y680126D01*
X447102Y687213D02*
X455102Y695213D01*
X447102D02*
X455102Y687213D01*
X447102Y694299D02*
X455102Y702299D01*
X447102D02*
X455102Y694299D01*
X467201Y685772D02*
X475201Y693772D01*
X467201D02*
X475201Y685772D01*
X492701Y667272D02*
X500701Y675272D01*
X492701D02*
X500701Y667272D01*
X475069Y733772D02*
X483069Y741772D01*
X475069D02*
X483069Y733772D01*
X504701Y735701D02*
X512701Y743701D01*
X504701D02*
X512701Y735701D01*
X514701D02*
X522701Y743701D01*
X514701D02*
X522701Y735701D01*
X488101Y723272D02*
X496101Y731272D01*
X488101D02*
X496101Y723272D01*
X497101Y723172D02*
X505101Y731172D01*
X497101D02*
X505101Y723172D01*
X519701Y735701D02*
X527701Y743701D01*
X519701D02*
X527701Y735701D01*
X517701Y718201D02*
X525701Y726201D01*
X517701D02*
X525701Y718201D01*
X514701Y729201D02*
X522701Y737201D01*
X514701D02*
X522701Y729201D01*
X497101Y729372D02*
X505101Y737372D01*
X497101D02*
X505101Y729372D01*
X504701Y729201D02*
X512701Y737201D01*
X504701D02*
X512701Y729201D01*
X506701Y718201D02*
X514701Y726201D01*
X506701D02*
X514701Y718201D01*
X512201D02*
X520201Y726201D01*
X512201D02*
X520201Y718201D01*
X493101Y734772D02*
X501101Y742772D01*
X493101D02*
X501101Y734772D01*
X519701Y729701D02*
X527701Y737701D01*
X519701D02*
X527701Y729701D01*
X523701Y718201D02*
X531701Y726201D01*
X523701D02*
X531701Y718201D01*
X561201Y735701D02*
X569201Y743701D01*
X561201D02*
X569201Y735701D01*
X561201Y729701D02*
X569201Y737701D01*
X561201D02*
X569201Y729701D01*
X561201Y711701D02*
X569201Y719701D01*
X561201D02*
X569201Y711701D01*
X561201Y716701D02*
X569201Y724701D01*
X561201D02*
X569201Y716701D01*
X576201Y735701D02*
X584201Y743701D01*
X576201D02*
X584201Y735701D01*
X566201D02*
X574201Y743701D01*
X566201D02*
X574201Y735701D01*
X566201Y711701D02*
X574201Y719701D01*
X566201D02*
X574201Y711701D01*
X571201D02*
X579201Y719701D01*
X571201D02*
X579201Y711701D01*
X566201Y716701D02*
X574201Y724701D01*
X566201D02*
X574201Y716701D01*
X571201D02*
X579201Y724701D01*
X571201D02*
X579201Y716701D01*
X566201Y729701D02*
X574201Y737701D01*
X566201D02*
X574201Y729701D01*
X576201D02*
X584201Y737701D01*
X576201D02*
X584201Y729701D01*
X481101Y770772D02*
X489101Y778772D01*
X481101D02*
X489101Y770772D01*
X528701Y780272D02*
X536701Y788272D01*
X528701D02*
X536701Y780272D01*
X533701D02*
X541701Y788272D01*
X533701D02*
X541701Y780272D01*
X579386Y773984D02*
X587386Y781984D01*
X579386D02*
X587386Y773984D01*
X574307D02*
X582307Y781984D01*
X574307D02*
X582307Y773984D01*
X579386Y779614D02*
X587386Y787614D01*
X579386D02*
X587386Y779614D01*
X574307D02*
X582307Y787614D01*
X574307D02*
X582307Y779614D01*
X434306Y798772D02*
X442306Y806772D01*
X434306D02*
X442306Y798772D01*
X441983Y798272D02*
X449983Y806272D01*
X441983D02*
X449983Y798272D01*
X441983Y808772D02*
X449983Y816772D01*
X441983D02*
X449983Y808772D01*
X459701Y798772D02*
X467701Y806772D01*
X459701D02*
X467701Y798772D01*
X453601Y797390D02*
X461601Y805390D01*
X453601D02*
X461601Y797390D01*
X452219Y808772D02*
X460219Y816772D01*
X452219D02*
X460219Y808772D01*
X504601Y787803D02*
X512601Y795803D01*
X504601D02*
X512601Y787803D01*
X517024Y797528D02*
X525024Y805528D01*
X517024D02*
X525024Y797528D01*
X510601Y787724D02*
X518601Y795724D01*
X510601D02*
X518601Y787724D01*
X517220Y791346D02*
X525220Y799346D01*
X517220D02*
X525220Y791346D01*
X527201Y797372D02*
X535201Y805372D01*
X527201D02*
X535201Y797372D01*
X548701Y785272D02*
X556701Y793272D01*
X548701D02*
X556701Y785272D01*
X527201Y791172D02*
X535201Y799172D01*
X527201D02*
X535201Y791172D01*
X533701Y785244D02*
X541701Y793244D01*
X533701D02*
X541701Y785244D01*
X528701Y785272D02*
X536701Y793272D01*
X528701D02*
X536701Y785272D01*
X568201Y808701D02*
X576201Y816701D01*
X568201D02*
X576201Y808701D01*
X393701Y826772D02*
X614173D01*
Y393701*
X393701*
Y826772*
X335701Y756272D02*
X421951Y670022D01*
X422201Y675272D02*
Y669897D01*
X416701Y669772D02*
X421951D01*
X393701Y846201D02*
X485369D01*
X393701D02*
X403701Y848701D01*
Y843701*
X393701Y846201*
X614173D02*
X522505D01*
X614173D02*
X604173Y843701D01*
Y848701*
X614173Y846201*
X393701Y831772D02*
Y851201D01*
X614173Y831772D02*
Y851201D01*
X491323Y849013D02*
X489051D01*
X488823Y846201*
X489051Y846513*
X489732Y846826*
X490414*
X491096Y846513*
X491551Y845888*
X491778Y844951*
X491551Y844326*
X491323Y843388*
X490869Y842763*
X490187Y842451*
X489505*
X488823Y842763*
X488596Y843076*
X488369Y843701*
X496551Y848076D02*
X496323Y848701D01*
X495642Y849013*
X495187*
X494505Y848701*
X494051Y847763*
X493823Y846201*
Y844638*
X494051Y843388*
X494505Y842763*
X495187Y842451*
X495414*
X496096Y842763*
X496551Y843388*
X496778Y844326*
Y844638*
X496551Y845576*
X496096Y846201*
X495414Y846513*
X495187*
X494505Y846201*
X494051Y845576*
X493823Y844638*
X499051Y843076D02*
X498823Y842763D01*
X499051Y842451*
X499278Y842763*
X499051Y843076*
X502687Y849013D02*
X502005Y848701D01*
X501551Y847763*
X501323Y846201*
Y845263*
X501551Y843701*
X502005Y842763*
X502687Y842451*
X503142*
X503823Y842763*
X504278Y843701*
X504505Y845263*
Y846201*
X504278Y847763*
X503823Y848701*
X503142Y849013*
X502687*
X506551Y846826D02*
Y842451D01*
Y845576D02*
X507232Y846513D01*
X507687Y846826*
X508369*
X508823Y846513*
X509051Y845576*
Y842451*
Y845576D02*
X509732Y846513D01*
X510187Y846826*
X510869*
X511323Y846513*
X511551Y845576*
Y842451*
X513596Y846826D02*
Y842451D01*
Y845576D02*
X514278Y846513D01*
X514732Y846826*
X515414*
X515869Y846513*
X516096Y845576*
Y842451*
Y845576D02*
X516778Y846513D01*
X517232Y846826*
X517914*
X518369Y846513*
X518596Y845576*
Y842451*
X637201Y393701D02*
Y603486D01*
Y393701D02*
X634701Y403701D01*
X639701*
X637201Y393701*
Y826772D02*
Y616986D01*
Y826772D02*
X639701Y816772D01*
X634701*
X637201Y826772*
X619173Y393701D02*
X642201D01*
X619173Y826772D02*
X642201D01*
X621064Y611799D02*
X621519Y612111D01*
X622201Y613049*
Y606486*
X624246Y611799D02*
X624701Y612111D01*
X625383Y613049*
Y606486*
X628792Y613049D02*
X628110Y612736D01*
X627655Y611799*
X627428Y610236*
Y609299*
X627655Y607736*
X628110Y606799*
X628792Y606486*
X629246*
X629928Y606799*
X630383Y607736*
X630610Y609299*
Y610236*
X630383Y611799*
X629928Y612736*
X629246Y613049*
X628792*
X632883Y607111D02*
X632655Y606799D01*
X632883Y606486*
X633110Y606799*
X632883Y607111*
X636519Y613049D02*
X635837Y612736D01*
X635383Y611799*
X635155Y610236*
Y609299*
X635383Y607736*
X635837Y606799*
X636519Y606486*
X636974*
X637655Y606799*
X638110Y607736*
X638337Y609299*
Y610236*
X638110Y611799*
X637655Y612736*
X636974Y613049*
X636519*
X640383Y610861D02*
Y606486D01*
Y609611D02*
X641064Y610549D01*
X641519Y610861*
X642201*
X642655Y610549*
X642883Y609611*
Y606486*
Y609611D02*
X643564Y610549D01*
X644019Y610861*
X644701*
X645155Y610549*
X645383Y609611*
Y606486*
X647428Y610861D02*
Y606486D01*
Y609611D02*
X648110Y610549D01*
X648564Y610861*
X649246*
X649701Y610549*
X649928Y609611*
Y606486*
Y609611D02*
X650610Y610549D01*
X651064Y610861*
X651746*
X652201Y610549*
X652428Y609611*
Y606486*
X393701Y1152252D02*
X651701D01*
X393701Y1128252D02*
X651701D01*
X393701Y1104252D02*
X651701D01*
X393701Y1080252D02*
X651701D01*
X393701Y1056252D02*
X651701D01*
X393701Y1032252D02*
X651701D01*
X393701Y1008252D02*
X651701D01*
X393701Y984252D02*
X651701D01*
X393701Y1152252D02*
Y984252D01*
X477701Y1152252D02*
Y984252D01*
X513701Y1152252D02*
Y984252D01*
X549701Y1152252D02*
Y984252D01*
X603701Y1152252D02*
Y984252D01*
X651701Y1152252D02*
Y984252D01*
X429201Y1141002D02*
X428655Y1141752D01*
X427837Y1142127*
X426746*
X425928Y1141752*
X425383Y1141002*
Y1140252*
X425655Y1139502*
X425928Y1139127*
X426474Y1138752*
X428110Y1138002*
X428655Y1137627*
X428928Y1137252*
X429201Y1136502*
Y1135377*
X428655Y1134627*
X427837Y1134252*
X426746*
X425928Y1134627*
X425383Y1135377*
X431655Y1142127D02*
Y1134252D01*
X437928Y1142127D02*
X434110Y1134252D01*
Y1142127D02*
X437928D01*
X434110Y1134252D02*
X437928D01*
X440383Y1142127D02*
Y1134252D01*
Y1142127D02*
X443928D01*
X440383Y1138377D02*
X442564D01*
X440383Y1134252D02*
X443928D01*
X487564Y1142127D02*
X487019Y1141752D01*
X486474Y1141002*
X486201Y1140252*
X485928Y1139127*
Y1137252*
X486201Y1136127*
X486474Y1135377*
X487019Y1134627*
X487564Y1134252*
X488655*
X489201Y1134627*
X489746Y1135377*
X490019Y1136127*
X490292Y1137252*
Y1139127*
X490019Y1140252*
X489746Y1141002*
X489201Y1141752*
X488655Y1142127*
X487564*
X488383Y1135752D02*
X490019Y1133502D01*
X494655Y1142127D02*
Y1134252D01*
X492746Y1142127D02*
X496564D01*
X499019D02*
X501201Y1138377D01*
Y1134252*
X503383Y1142127D02*
X501201Y1138377D01*
X525746Y1141002D02*
X525201Y1141752D01*
X524383Y1142127*
X523292*
X522474Y1141752*
X521928Y1141002*
Y1140252*
X522201Y1139502*
X522474Y1139127*
X523019Y1138752*
X524655Y1138002*
X525201Y1137627*
X525474Y1137252*
X525746Y1136502*
Y1135377*
X525201Y1134627*
X524383Y1134252*
X523292*
X522474Y1134627*
X521928Y1135377*
X528201Y1142127D02*
X530383Y1138377D01*
Y1134252*
X532564Y1142127D02*
X530383Y1138377D01*
X535019Y1142127D02*
Y1134252D01*
Y1142127D02*
X537201Y1134252D01*
X539383Y1142127D02*
X537201Y1134252D01*
X539383Y1142127D02*
Y1134252D01*
X561201Y1142127D02*
Y1134252D01*
Y1142127D02*
X563655D01*
X564474Y1141752*
X564746Y1141377*
X565019Y1140627*
Y1139502*
X564746Y1138752*
X564474Y1138377*
X563655Y1138002*
X561201*
X567474Y1142127D02*
Y1134252D01*
X570746*
X575383Y1142127D02*
X573201Y1134252D01*
X575383Y1142127D02*
X577564Y1134252D01*
X574019Y1136877D02*
X576746D01*
X581928Y1142127D02*
Y1134252D01*
X580019Y1142127D02*
X583837D01*
X586292D02*
Y1134252D01*
Y1142127D02*
X589837D01*
X586292Y1138377D02*
X588474D01*
X586292Y1134252D02*
X589837D01*
X592292Y1142127D02*
Y1134252D01*
Y1142127D02*
X594201D01*
X595019Y1141752*
X595564Y1141002*
X595837Y1140252*
X596110Y1139127*
Y1137252*
X595837Y1136127*
X595564Y1135377*
X595019Y1134627*
X594201Y1134252*
X592292*
X620383Y1142127D02*
Y1134252D01*
X618474Y1142127D02*
X622292D01*
X626383D02*
X625837Y1141752D01*
X625292Y1141002*
X625019Y1140252*
X624746Y1139127*
Y1137252*
X625019Y1136127*
X625292Y1135377*
X625837Y1134627*
X626383Y1134252*
X627474*
X628019Y1134627*
X628564Y1135377*
X628837Y1136127*
X629110Y1137252*
Y1139127*
X628837Y1140252*
X628564Y1141002*
X628019Y1141752*
X627474Y1142127*
X626383*
X631564D02*
Y1134252D01*
X634837*
X399974Y1116252D02*
Y1116627D01*
X400246Y1117377*
X400519Y1117752*
X401064Y1118127*
X402155*
X402701Y1117752*
X402974Y1117377*
X403246Y1116627*
Y1115877*
X402974Y1115127*
X402428Y1114002*
X399701Y1110252*
X403519*
X406246Y1111002D02*
X405974Y1110627D01*
X406246Y1110252*
X406519Y1110627*
X406246Y1111002*
X412519Y1118127D02*
X409792D01*
X409519Y1114752*
X409792Y1115127*
X410610Y1115502*
X411428*
X412246Y1115127*
X412792Y1114377*
X413064Y1113252*
X412792Y1112502*
X412519Y1111377*
X411974Y1110627*
X411155Y1110252*
X410337*
X409519Y1110627*
X409246Y1111002*
X408974Y1111752*
X418246Y1118127D02*
X415519Y1112877D01*
X419610*
X418246Y1118127D02*
Y1110252D01*
X495337Y1118127D02*
X492610Y1112877D01*
X496701*
X495337Y1118127D02*
Y1110252D01*
X525701Y1116252D02*
X537701D01*
X531701Y1110252D02*
Y1122252D01*
X561337Y1118127D02*
Y1110252D01*
Y1118127D02*
X565155Y1110252D01*
Y1118127D02*
Y1110252D01*
X569246Y1118127D02*
X568701Y1117752D01*
X568155Y1117002*
X567883Y1116252*
X567610Y1115127*
Y1113252*
X567883Y1112127*
X568155Y1111377*
X568701Y1110627*
X569246Y1110252*
X570337*
X570883Y1110627*
X571428Y1111377*
X571701Y1112127*
X571974Y1113252*
Y1115127*
X571701Y1116252*
X571428Y1117002*
X570883Y1117752*
X570337Y1118127*
X569246*
X611519Y1117002D02*
Y1110252D01*
X609064Y1113627D02*
X613974D01*
X621337Y1119627D02*
X616428Y1107627D01*
X623792Y1113627D02*
X628701D01*
X632792Y1118127D02*
X631974Y1117752D01*
X631428Y1116627*
X631155Y1114752*
Y1113627*
X631428Y1111752*
X631974Y1110627*
X632792Y1110252*
X633337*
X634155Y1110627*
X634701Y1111752*
X634974Y1113627*
Y1114752*
X634701Y1116627*
X634155Y1117752*
X633337Y1118127*
X632792*
X637701Y1111002D02*
X637428Y1110627D01*
X637701Y1110252*
X637974Y1110627*
X637701Y1111002*
X642064Y1118127D02*
X641246Y1117752D01*
X640701Y1116627*
X640428Y1114752*
Y1113627*
X640701Y1111752*
X641246Y1110627*
X642064Y1110252*
X642610*
X643428Y1110627*
X643974Y1111752*
X644246Y1113627*
Y1114752*
X643974Y1116627*
X643428Y1117752*
X642610Y1118127*
X642064*
X401337Y1094127D02*
X400519Y1093752D01*
X399974Y1092627*
X399701Y1090752*
Y1089627*
X399974Y1087752*
X400519Y1086627*
X401337Y1086252*
X401883*
X402701Y1086627*
X403246Y1087752*
X403519Y1089627*
Y1090752*
X403246Y1092627*
X402701Y1093752*
X401883Y1094127*
X401337*
X406246Y1087002D02*
X405974Y1086627D01*
X406246Y1086252*
X406519Y1086627*
X406246Y1087002*
X409519Y1094127D02*
X412519D01*
X410883Y1091127*
X411701*
X412246Y1090752*
X412519Y1090377*
X412792Y1089252*
Y1088502*
X412519Y1087377*
X411974Y1086627*
X411155Y1086252*
X410337*
X409519Y1086627*
X409246Y1087002*
X408974Y1087752*
X416883Y1094127D02*
X416064Y1093752D01*
X415519Y1092627*
X415246Y1090752*
Y1089627*
X415519Y1087752*
X416064Y1086627*
X416883Y1086252*
X417428*
X418246Y1086627*
X418792Y1087752*
X419064Y1089627*
Y1090752*
X418792Y1092627*
X418246Y1093752*
X417428Y1094127*
X416883*
X424246D02*
X421519Y1088877D01*
X425610*
X424246Y1094127D02*
Y1086252D01*
X429428Y1094127D02*
X428610Y1093752D01*
X428337Y1093002*
Y1092252*
X428610Y1091502*
X429155Y1091127*
X430246Y1090752*
X431064Y1090377*
X431610Y1089627*
X431883Y1088877*
Y1087752*
X431610Y1087002*
X431337Y1086627*
X430519Y1086252*
X429428*
X428610Y1086627*
X428337Y1087002*
X428064Y1087752*
Y1088877*
X428337Y1089627*
X428883Y1090377*
X429701Y1090752*
X430792Y1091127*
X431337Y1091502*
X431610Y1092252*
Y1093002*
X431337Y1093752*
X430519Y1094127*
X429428*
X487564Y1092627D02*
X488110Y1093002D01*
X488928Y1094127*
Y1086252*
X494110Y1094127D02*
X491383Y1088877D01*
X495474*
X494110Y1094127D02*
Y1086252D01*
X498201Y1092252D02*
Y1092627D01*
X498474Y1093377*
X498746Y1093752*
X499292Y1094127*
X500383*
X500928Y1093752*
X501201Y1093377*
X501474Y1092627*
Y1091877*
X501201Y1091127*
X500655Y1090002*
X497928Y1086252*
X501746*
X525701D02*
X537701Y1098252D01*
X525701D02*
X537701Y1086252D01*
X558337Y1094127D02*
X560519Y1090377D01*
Y1086252*
X562701Y1094127D02*
X560519Y1090377D01*
X565155Y1094127D02*
Y1086252D01*
Y1094127D02*
X568701D01*
X565155Y1090377D02*
X567337D01*
X565155Y1086252D02*
X568701D01*
X574974Y1093002D02*
X574428Y1093752D01*
X573610Y1094127*
X572519*
X571701Y1093752*
X571155Y1093002*
Y1092252*
X571428Y1091502*
X571701Y1091127*
X572246Y1090752*
X573883Y1090002*
X574428Y1089627*
X574701Y1089252*
X574974Y1088502*
Y1087377*
X574428Y1086627*
X573610Y1086252*
X572519*
X571701Y1086627*
X571155Y1087377*
X611519Y1093002D02*
Y1086252D01*
X609064Y1089627D02*
X613974D01*
X621337Y1095627D02*
X616428Y1083627D01*
X623792Y1089627D02*
X628701D01*
X632792Y1094127D02*
X631974Y1093752D01*
X631428Y1092627*
X631155Y1090752*
Y1089627*
X631428Y1087752*
X631974Y1086627*
X632792Y1086252*
X633337*
X634155Y1086627*
X634701Y1087752*
X634974Y1089627*
Y1090752*
X634701Y1092627*
X634155Y1093752*
X633337Y1094127*
X632792*
X637701Y1087002D02*
X637428Y1086627D01*
X637701Y1086252*
X637974Y1086627*
X637701Y1087002*
X642064Y1094127D02*
X641246Y1093752D01*
X640701Y1092627*
X640428Y1090752*
Y1089627*
X640701Y1087752*
X641246Y1086627*
X642064Y1086252*
X642610*
X643428Y1086627*
X643974Y1087752*
X644246Y1089627*
Y1090752*
X643974Y1092627*
X643428Y1093752*
X642610Y1094127*
X642064*
X399701Y1068627D02*
X400246Y1069002D01*
X401064Y1070127*
Y1062252*
X403792Y1063002D02*
X403519Y1062627D01*
X403792Y1062252*
X404064Y1062627*
X403792Y1063002*
X407064Y1070127D02*
X410064D01*
X408428Y1067127*
X409246*
X409792Y1066752*
X410064Y1066377*
X410337Y1065252*
Y1064502*
X410064Y1063377*
X409519Y1062627*
X408701Y1062252*
X407883*
X407064Y1062627*
X406792Y1063002*
X406519Y1063752*
X413064Y1068252D02*
Y1068627D01*
X413337Y1069377*
X413610Y1069752*
X414155Y1070127*
X415246*
X415792Y1069752*
X416064Y1069377*
X416337Y1068627*
Y1067877*
X416064Y1067127*
X415519Y1066002*
X412792Y1062252*
X416610*
X420701Y1070127D02*
X419883Y1069752D01*
X419337Y1068627*
X419064Y1066752*
Y1065627*
X419337Y1063752*
X419883Y1062627*
X420701Y1062252*
X421246*
X422064Y1062627*
X422610Y1063752*
X422883Y1065627*
Y1066752*
X422610Y1068627*
X422064Y1069752*
X421246Y1070127*
X420701*
X426701D02*
X425883Y1069752D01*
X425610Y1069002*
Y1068252*
X425883Y1067502*
X426428Y1067127*
X427519Y1066752*
X428337Y1066377*
X428883Y1065627*
X429155Y1064877*
Y1063752*
X428883Y1063002*
X428610Y1062627*
X427792Y1062252*
X426701*
X425883Y1062627*
X425610Y1063002*
X425337Y1063752*
Y1064877*
X425610Y1065627*
X426155Y1066377*
X426974Y1066752*
X428064Y1067127*
X428610Y1067502*
X428883Y1068252*
Y1069002*
X428610Y1069752*
X427792Y1070127*
X426701*
X493974Y1068627D02*
X494519Y1069002D01*
X495337Y1070127*
Y1062252*
X525701D02*
X537701D01*
Y1074252*
X525701*
Y1062252*
X531701Y1068252D02*
Y1074252D01*
X561337Y1070127D02*
Y1062252D01*
Y1070127D02*
X565155Y1062252D01*
Y1070127D02*
Y1062252D01*
X569246Y1070127D02*
X568701Y1069752D01*
X568155Y1069002*
X567883Y1068252*
X567610Y1067127*
Y1065252*
X567883Y1064127*
X568155Y1063377*
X568701Y1062627*
X569246Y1062252*
X570337*
X570883Y1062627*
X571428Y1063377*
X571701Y1064127*
X571974Y1065252*
Y1067127*
X571701Y1068252*
X571428Y1069002*
X570883Y1069752*
X570337Y1070127*
X569246*
X611519Y1069002D02*
Y1062252D01*
X609064Y1065627D02*
X613974D01*
X621337Y1071627D02*
X616428Y1059627D01*
X623792Y1065627D02*
X628701D01*
X632792Y1070127D02*
X631974Y1069752D01*
X631428Y1068627*
X631155Y1066752*
Y1065627*
X631428Y1063752*
X631974Y1062627*
X632792Y1062252*
X633337*
X634155Y1062627*
X634701Y1063752*
X634974Y1065627*
Y1066752*
X634701Y1068627*
X634155Y1069752*
X633337Y1070127*
X632792*
X637701Y1063002D02*
X637428Y1062627D01*
X637701Y1062252*
X637974Y1062627*
X637701Y1063002*
X642064Y1070127D02*
X641246Y1069752D01*
X640701Y1068627*
X640428Y1066752*
Y1065627*
X640701Y1063752*
X641246Y1062627*
X642064Y1062252*
X642610*
X643428Y1062627*
X643974Y1063752*
X644246Y1065627*
Y1066752*
X643974Y1068627*
X643428Y1069752*
X642610Y1070127*
X642064*
X399701Y1044627D02*
X400246Y1045002D01*
X401064Y1046127*
Y1038252*
X403792Y1039002D02*
X403519Y1038627D01*
X403792Y1038252*
X404064Y1038627*
X403792Y1039002*
X407883Y1046127D02*
X407064Y1045752D01*
X406792Y1045002*
Y1044252*
X407064Y1043502*
X407610Y1043127*
X408701Y1042752*
X409519Y1042377*
X410064Y1041627*
X410337Y1040877*
Y1039752*
X410064Y1039002*
X409792Y1038627*
X408974Y1038252*
X407883*
X407064Y1038627*
X406792Y1039002*
X406519Y1039752*
Y1040877*
X406792Y1041627*
X407337Y1042377*
X408155Y1042752*
X409246Y1043127*
X409792Y1043502*
X410064Y1044252*
Y1045002*
X409792Y1045752*
X408974Y1046127*
X407883*
X413064Y1044252D02*
Y1044627D01*
X413337Y1045377*
X413610Y1045752*
X414155Y1046127*
X415246*
X415792Y1045752*
X416064Y1045377*
X416337Y1044627*
Y1043877*
X416064Y1043127*
X415519Y1042002*
X412792Y1038252*
X416610*
X420428Y1046127D02*
X419610Y1045752D01*
X419337Y1045002*
Y1044252*
X419610Y1043502*
X420155Y1043127*
X421246Y1042752*
X422064Y1042377*
X422610Y1041627*
X422883Y1040877*
Y1039752*
X422610Y1039002*
X422337Y1038627*
X421519Y1038252*
X420428*
X419610Y1038627*
X419337Y1039002*
X419064Y1039752*
Y1040877*
X419337Y1041627*
X419883Y1042377*
X420701Y1042752*
X421792Y1043127*
X422337Y1043502*
X422610Y1044252*
Y1045002*
X422337Y1045752*
X421519Y1046127*
X420428*
X426701D02*
X425883Y1045752D01*
X425610Y1045002*
Y1044252*
X425883Y1043502*
X426428Y1043127*
X427519Y1042752*
X428337Y1042377*
X428883Y1041627*
X429155Y1040877*
Y1039752*
X428883Y1039002*
X428610Y1038627*
X427792Y1038252*
X426701*
X425883Y1038627*
X425610Y1039002*
X425337Y1039752*
Y1040877*
X425610Y1041627*
X426155Y1042377*
X426974Y1042752*
X428064Y1043127*
X428610Y1043502*
X428883Y1044252*
Y1045002*
X428610Y1045752*
X427792Y1046127*
X426701*
X493974Y1044627D02*
X494519Y1045002D01*
X495337Y1046127*
Y1038252*
X531701D02*
X537701Y1044252D01*
X531701Y1050252*
X525701Y1044252*
X531701Y1038252*
Y1044252D02*
Y1050252D01*
X561337Y1046127D02*
Y1038252D01*
Y1046127D02*
X565155Y1038252D01*
Y1046127D02*
Y1038252D01*
X569246Y1046127D02*
X568701Y1045752D01*
X568155Y1045002*
X567883Y1044252*
X567610Y1043127*
Y1041252*
X567883Y1040127*
X568155Y1039377*
X568701Y1038627*
X569246Y1038252*
X570337*
X570883Y1038627*
X571428Y1039377*
X571701Y1040127*
X571974Y1041252*
Y1043127*
X571701Y1044252*
X571428Y1045002*
X570883Y1045752*
X570337Y1046127*
X569246*
X611519Y1045002D02*
Y1038252D01*
X609064Y1041627D02*
X613974D01*
X621337Y1047627D02*
X616428Y1035627D01*
X623792Y1041627D02*
X628701D01*
X632792Y1046127D02*
X631974Y1045752D01*
X631428Y1044627*
X631155Y1042752*
Y1041627*
X631428Y1039752*
X631974Y1038627*
X632792Y1038252*
X633337*
X634155Y1038627*
X634701Y1039752*
X634974Y1041627*
Y1042752*
X634701Y1044627*
X634155Y1045752*
X633337Y1046127*
X632792*
X637701Y1039002D02*
X637428Y1038627D01*
X637701Y1038252*
X637974Y1038627*
X637701Y1039002*
X642064Y1046127D02*
X641246Y1045752D01*
X640701Y1044627*
X640428Y1042752*
Y1041627*
X640701Y1039752*
X641246Y1038627*
X642064Y1038252*
X642610*
X643428Y1038627*
X643974Y1039752*
X644246Y1041627*
Y1042752*
X643974Y1044627*
X643428Y1045752*
X642610Y1046127*
X642064*
X401337Y1022127D02*
X400519Y1021752D01*
X399974Y1020627*
X399701Y1018752*
Y1017627*
X399974Y1015752*
X400519Y1014627*
X401337Y1014252*
X401883*
X402701Y1014627*
X403246Y1015752*
X403519Y1017627*
Y1018752*
X403246Y1020627*
X402701Y1021752*
X401883Y1022127*
X401337*
X406246Y1015002D02*
X405974Y1014627D01*
X406246Y1014252*
X406519Y1014627*
X406246Y1015002*
X412519Y1022127D02*
X409792D01*
X409519Y1018752*
X409792Y1019127*
X410610Y1019502*
X411428*
X412246Y1019127*
X412792Y1018377*
X413064Y1017252*
X412792Y1016502*
X412519Y1015377*
X411974Y1014627*
X411155Y1014252*
X410337*
X409519Y1014627*
X409246Y1015002*
X408974Y1015752*
X417155Y1022127D02*
X416337Y1021752D01*
X415792Y1020627*
X415519Y1018752*
Y1017627*
X415792Y1015752*
X416337Y1014627*
X417155Y1014252*
X417701*
X418519Y1014627*
X419064Y1015752*
X419337Y1017627*
Y1018752*
X419064Y1020627*
X418519Y1021752*
X417701Y1022127*
X417155*
X423155D02*
X422337Y1021752D01*
X422064Y1021002*
Y1020252*
X422337Y1019502*
X422883Y1019127*
X423974Y1018752*
X424792Y1018377*
X425337Y1017627*
X425610Y1016877*
Y1015752*
X425337Y1015002*
X425064Y1014627*
X424246Y1014252*
X423155*
X422337Y1014627*
X422064Y1015002*
X421792Y1015752*
Y1016877*
X422064Y1017627*
X422610Y1018377*
X423428Y1018752*
X424519Y1019127*
X425064Y1019502*
X425337Y1020252*
Y1021002*
X425064Y1021752*
X424246Y1022127*
X423155*
X490701Y1020627D02*
X491246Y1021002D01*
X492064Y1022127*
Y1014252*
X497246Y1022127D02*
X494519Y1016877D01*
X498610*
X497246Y1022127D02*
Y1014252D01*
X525701D02*
X537701D01*
X525701Y1026252*
X537701*
X525701Y1014252*
X558337Y1022127D02*
X560519Y1018377D01*
Y1014252*
X562701Y1022127D02*
X560519Y1018377D01*
X565155Y1022127D02*
Y1014252D01*
Y1022127D02*
X568701D01*
X565155Y1018377D02*
X567337D01*
X565155Y1014252D02*
X568701D01*
X574974Y1021002D02*
X574428Y1021752D01*
X573610Y1022127*
X572519*
X571701Y1021752*
X571155Y1021002*
Y1020252*
X571428Y1019502*
X571701Y1019127*
X572246Y1018752*
X573883Y1018002*
X574428Y1017627*
X574701Y1017252*
X574974Y1016502*
Y1015377*
X574428Y1014627*
X573610Y1014252*
X572519*
X571701Y1014627*
X571155Y1015377*
X611519Y1021002D02*
Y1014252D01*
X609064Y1017627D02*
X613974D01*
X621337Y1023627D02*
X616428Y1011627D01*
X623792Y1017627D02*
X628701D01*
X632792Y1022127D02*
X631974Y1021752D01*
X631428Y1020627*
X631155Y1018752*
Y1017627*
X631428Y1015752*
X631974Y1014627*
X632792Y1014252*
X633337*
X634155Y1014627*
X634701Y1015752*
X634974Y1017627*
Y1018752*
X634701Y1020627*
X634155Y1021752*
X633337Y1022127*
X632792*
X637701Y1015002D02*
X637428Y1014627D01*
X637701Y1014252*
X637974Y1014627*
X637701Y1015002*
X642064Y1022127D02*
X641246Y1021752D01*
X640701Y1020627*
X640428Y1018752*
Y1017627*
X640701Y1015752*
X641246Y1014627*
X642064Y1014252*
X642610*
X643428Y1014627*
X643974Y1015752*
X644246Y1017627*
Y1018752*
X643974Y1020627*
X643428Y1021752*
X642610Y1022127*
X642064*
X401337Y998127D02*
X400519Y997752D01*
X399974Y996627*
X399701Y994752*
Y993627*
X399974Y991752*
X400519Y990627*
X401337Y990252*
X401883*
X402701Y990627*
X403246Y991752*
X403519Y993627*
Y994752*
X403246Y996627*
X402701Y997752*
X401883Y998127*
X401337*
X406246Y991002D02*
X405974Y990627D01*
X406246Y990252*
X406519Y990627*
X406246Y991002*
X412519Y998127D02*
X409792D01*
X409519Y994752*
X409792Y995127*
X410610Y995502*
X411428*
X412246Y995127*
X412792Y994377*
X413064Y993252*
X412792Y992502*
X412519Y991377*
X411974Y990627*
X411155Y990252*
X410337*
X409519Y990627*
X409246Y991002*
X408974Y991752*
X493019Y996252D02*
Y996627D01*
X493292Y997377*
X493564Y997752*
X494110Y998127*
X495201*
X495746Y997752*
X496019Y997377*
X496292Y996627*
Y995877*
X496019Y995127*
X495474Y994002*
X492746Y990252*
X496564*
X525701D02*
X537701Y1002252D01*
Y990252*
X525701Y1002252*
Y990252*
X561337Y998127D02*
Y990252D01*
Y998127D02*
X565155Y990252D01*
Y998127D02*
Y990252D01*
X569246Y998127D02*
X568701Y997752D01*
X568155Y997002*
X567883Y996252*
X567610Y995127*
Y993252*
X567883Y992127*
X568155Y991377*
X568701Y990627*
X569246Y990252*
X570337*
X570883Y990627*
X571428Y991377*
X571701Y992127*
X571974Y993252*
Y995127*
X571701Y996252*
X571428Y997002*
X570883Y997752*
X570337Y998127*
X569246*
X611519Y997002D02*
Y990252D01*
X609064Y993627D02*
X613974D01*
X621337Y999627D02*
X616428Y987627D01*
X623792Y993627D02*
X628701D01*
X632792Y998127D02*
X631974Y997752D01*
X631428Y996627*
X631155Y994752*
Y993627*
X631428Y991752*
X631974Y990627*
X632792Y990252*
X633337*
X634155Y990627*
X634701Y991752*
X634974Y993627*
Y994752*
X634701Y996627*
X634155Y997752*
X633337Y998127*
X632792*
X637701Y991002D02*
X637428Y990627D01*
X637701Y990252*
X637974Y990627*
X637701Y991002*
X642064Y998127D02*
X641246Y997752D01*
X640701Y996627*
X640428Y994752*
Y993627*
X640701Y991752*
X641246Y990627*
X642064Y990252*
X642610*
X643428Y990627*
X643974Y991752*
X644246Y993627*
Y994752*
X643974Y996627*
X643428Y997752*
X642610Y998127*
X642064*
X0Y0D02*
M02*
