*
*
G04 PADS 9.5 Build Number: 522968 generated Gerber (RS-274-X) file*
G04 PC Version=2.1*
*
%IN "Pi-Program-Iss1.1.pcb"*%
*
%MOIN*%
*
%FSLAX35Y35*%
*
*
*
*
G04 PC Standard Apertures*
*
*
G04 Thermal Relief Aperture macro.*
%AMTER*
1,1,$1,0,0*
1,0,$1-$2,0,0*
21,0,$3,$4,0,0,45*
21,0,$3,$4,0,0,135*
%
*
*
G04 Annular Aperture macro.*
%AMANN*
1,1,$1,0,0*
1,0,$2,0,0*
%
*
*
G04 Odd Aperture macro.*
%AMODD*
1,1,$1,0,0*
1,0,$1-0.005,0,0*
%
*
*
G04 PC Custom Aperture Macros*
*
*
*
*
*
*
G04 PC Aperture Table*
*
%ADD010C,0.001*%
%ADD027C,0.01*%
*
*
*
*
G04 PC Circuitry*
G04 Layer Name Pi-Program-Iss1.1.pcb - circuitry*
%LPD*%
*
*
G04 PC Custom Flashes*
G04 Layer Name Pi-Program-Iss1.1.pcb - flashes*
%LPD*%
*
*
G04 PC Circuitry*
G04 Layer Name Pi-Program-Iss1.1.pcb - circuitry*
%LPD*%
*
G54D10*
G01X393701Y826772D02*
X393703D01*
X614173D02*
X614176D01*
X614173Y393701D02*
X614176D01*
X614173Y826772D02*
X614176D01*
G54D27*
X266481Y794716D02*
Y789716D01*
X266254Y788779*
X266027Y788466*
X265572Y788154*
X265118*
X264663Y788466*
X264436Y788779*
X264209Y789716*
Y790341*
X268527Y794716D02*
Y788154D01*
X271254*
X276709Y793154D02*
X276481Y793779D01*
X276027Y794404*
X275572Y794716*
X274663*
X274209Y794404*
X273754Y793779*
X273527Y793154*
X273300Y792216*
Y790654*
X273527Y789716*
X273754Y789091*
X274209Y788466*
X274663Y788154*
X275572*
X276027Y788466*
X276481Y789091*
X276709Y789716*
X279209Y794716D02*
X281709D01*
X280345Y792216*
X281027*
X281481Y791904*
X281709Y791591*
X281936Y790654*
Y790029*
X281709Y789091*
X281254Y788466*
X280572Y788154*
X279890*
X279209Y788466*
X278981Y788779*
X278754Y789404*
X284436Y794716D02*
X286936D01*
X285572Y792216*
X286254*
X286709Y791904*
X286936Y791591*
X287163Y790654*
Y790029*
X286936Y789091*
X286481Y788466*
X285800Y788154*
X285118*
X284436Y788466*
X284209Y788779*
X283981Y789404*
X289209Y793466D02*
X289663Y793779D01*
X290345Y794716*
Y788154*
X292845Y794716D02*
X295345D01*
X293981Y792216*
X294663*
X295118Y791904*
X295345Y791591*
X295572Y790654*
Y790029*
X295345Y789091*
X294890Y788466*
X294209Y788154*
X293527*
X292845Y788466*
X292618Y788779*
X292390Y789404*
X311254Y793779D02*
X310800Y794404D01*
X310118Y794716*
X309209*
X308527Y794404*
X308072Y793779*
Y793154*
X308300Y792529*
X308527Y792216*
X308981Y791904*
X310345Y791279*
X310800Y790966*
X311027Y790654*
X311254Y790029*
Y789091*
X310800Y788466*
X310118Y788154*
X309209*
X308527Y788466*
X308072Y789091*
X313981Y794716D02*
Y789404D01*
X314209Y788466*
X314663Y788154*
X315118*
X313300Y792529D02*
X314890D01*
X319890D02*
Y788154D01*
Y791591D02*
X319436Y792216D01*
X318981Y792529*
X318300*
X317845Y792216*
X317390Y791591*
X317163Y790654*
Y790029*
X317390Y789091*
X317845Y788466*
X318300Y788154*
X318981*
X319436Y788466*
X319890Y789091*
X324663Y791591D02*
X324209Y792216D01*
X323754Y792529*
X323072*
X322618Y792216*
X322163Y791591*
X321936Y790654*
Y790029*
X322163Y789091*
X322618Y788466*
X323072Y788154*
X323754*
X324209Y788466*
X324663Y789091*
X326709Y794716D02*
Y788154D01*
X328981Y792529D02*
X326709Y789404D01*
X327618Y790654D02*
X329209Y788154D01*
X331254Y792529D02*
Y789404D01*
X331481Y788466*
X331936Y788154*
X332618*
X333072Y788466*
X333754Y789404*
Y792529D02*
Y788154D01*
X335800Y792529D02*
Y785966D01*
Y791591D02*
X336254Y792216D01*
X336709Y792529*
X337390*
X337845Y792216*
X338300Y791591*
X338527Y790654*
Y790029*
X338300Y789091*
X337845Y788466*
X337390Y788154*
X336709*
X336254Y788466*
X335800Y789091*
X267890Y780716D02*
X265618D01*
X265390Y777904*
X265618Y778216*
X266300Y778529*
X266981*
X267663Y778216*
X268118Y777591*
X268345Y776654*
X268118Y776029*
X267890Y775091*
X267436Y774466*
X266754Y774154*
X266072*
X265390Y774466*
X265163Y774779*
X264936Y775404*
X270618Y774779D02*
X270390Y774466D01*
X270618Y774154*
X270845Y774466*
X270618Y774779*
X275845Y778529D02*
X275618Y777591D01*
X275163Y776966*
X274481Y776654*
X274254*
X273572Y776966*
X273118Y777591*
X272890Y778529*
Y778841*
X273118Y779779*
X273572Y780404*
X274254Y780716*
X274481*
X275163Y780404*
X275618Y779779*
X275845Y778529*
Y776966*
X275618Y775404*
X275163Y774466*
X274481Y774154*
X274027*
X273345Y774466*
X273118Y775091*
X280845Y780716D02*
X278572D01*
X278345Y777904*
X278572Y778216*
X279254Y778529*
X279936*
X280618Y778216*
X281072Y777591*
X281300Y776654*
X281072Y776029*
X280845Y775091*
X280390Y774466*
X279709Y774154*
X279027*
X278345Y774466*
X278118Y774779*
X277890Y775404*
X283345Y778529D02*
Y774154D01*
Y777279D02*
X284027Y778216D01*
X284481Y778529*
X285163*
X285618Y778216*
X285845Y777279*
Y774154*
Y777279D02*
X286527Y778216D01*
X286981Y778529*
X287663*
X288118Y778216*
X288345Y777279*
Y774154*
X290390Y780716D02*
X290618Y780404D01*
X290845Y780716*
X290618Y781029*
X290390Y780716*
X290618Y778529D02*
Y774154D01*
X292890Y780716D02*
Y774154D01*
X300163Y781966D02*
Y771966D01*
X310618Y780716D02*
X308345Y774154D01*
X307436Y780716D02*
X310618D01*
X312663Y778529D02*
Y774154D01*
Y777279D02*
X313345Y778216D01*
X313800Y778529*
X314481*
X314936Y778216*
X315163Y777279*
Y774154*
Y777279D02*
X315845Y778216D01*
X316300Y778529*
X316981*
X317436Y778216*
X317663Y777279*
Y774154*
X319709Y780716D02*
X319936Y780404D01*
X320163Y780716*
X319936Y781029*
X319709Y780716*
X319936Y778529D02*
Y774154D01*
X322209Y780716D02*
Y774154D01*
X329481Y777904D02*
X333572D01*
X329481Y776029D02*
X333572D01*
X343800Y778529D02*
X343572Y777591D01*
X343118Y776966*
X342436Y776654*
X342209*
X341527Y776966*
X341072Y777591*
X340845Y778529*
Y778841*
X341072Y779779*
X341527Y780404*
X342209Y780716*
X342436*
X343118Y780404*
X343572Y779779*
X343800Y778529*
Y776966*
X343572Y775404*
X343118Y774466*
X342436Y774154*
X341981*
X341300Y774466*
X341072Y775091*
X347209Y780716D02*
X346527Y780404D01*
X346072Y779466*
X345845Y777904*
Y776966*
X346072Y775404*
X346527Y774466*
X347209Y774154*
X347663*
X348345Y774466*
X348800Y775404*
X349027Y776966*
Y777904*
X348800Y779466*
X348345Y780404*
X347663Y780716*
X347209*
X351072D02*
Y774154D01*
Y780716D02*
X353118D01*
X353800Y780404*
X354027Y780091*
X354254Y779466*
Y778841*
X354027Y778216*
X353800Y777904*
X353118Y777591*
X351072*
X352663D02*
X354254Y774154D01*
X361527Y780716D02*
Y774154D01*
Y780716D02*
X364481D01*
X361527Y777591D02*
X363345D01*
X361527Y774154D02*
X364481D01*
X369936Y779154D02*
X369709Y779779D01*
X369254Y780404*
X368800Y780716*
X367890*
X367436Y780404*
X366981Y779779*
X366754Y779154*
X366527Y778216*
Y776654*
X366754Y775716*
X366981Y775091*
X367436Y774466*
X367890Y774154*
X368800*
X369254Y774466*
X369709Y775091*
X369936Y775716*
X377209Y780716D02*
Y776029D01*
X377436Y775091*
X377890Y774466*
X378572Y774154*
X379027*
X379709Y774466*
X380163Y775091*
X380390Y776029*
Y780716*
X385618Y779779D02*
X385163Y780404D01*
X384481Y780716*
X383572*
X382890Y780404*
X382436Y779779*
Y779154*
X382663Y778529*
X382890Y778216*
X383345Y777904*
X384709Y777279*
X385163Y776966*
X385390Y776654*
X385618Y776029*
Y775091*
X385163Y774466*
X384481Y774154*
X383572*
X382890Y774466*
X382436Y775091*
X387663Y780716D02*
Y774154D01*
Y780716D02*
X389709D01*
X390390Y780404*
X390618Y780091*
X390845Y779466*
Y778841*
X390618Y778216*
X390390Y777904*
X389709Y777591*
X387663D02*
X389709D01*
X390390Y777279*
X390618Y776966*
X390845Y776341*
Y775404*
X390618Y774779*
X390390Y774466*
X389709Y774154*
X387663*
X461101Y701178D02*
X465101Y705178D01*
X461101Y709178*
X457101Y705178*
X461101Y701178*
Y705178D02*
Y709178D01*
X457101Y438382D02*
X465101D01*
Y446382*
X457101*
Y438382*
X461101Y442382D02*
Y446382D01*
X590488Y807087D02*
X598488D01*
X594488Y803087D02*
Y811087D01*
X590488Y413386D02*
X598488D01*
X594488Y409386D02*
Y417386D01*
X409386Y807087D02*
X417386D01*
X413386Y803087D02*
Y811087D01*
X409386Y413386D02*
X417386D01*
X413386Y409386D02*
Y417386D01*
X454975Y806154D02*
X462975Y814154D01*
Y806154*
X454975Y814154*
Y806154*
X439227D02*
X447227Y814154D01*
Y806154*
X439227Y814154*
Y806154*
X547201Y803772D02*
X555201D01*
X547201Y811772*
X555201*
X547201Y803772*
X552201Y799272D02*
X560201D01*
X552201Y807272*
X560201*
X552201Y799272*
X547201Y794772D02*
X555201D01*
X547201Y802772*
X555201*
X547201Y794772*
Y799272D02*
X555201D01*
X547201Y807272*
X555201*
X547201Y799272*
X552201Y794772D02*
X560201D01*
X552201Y802772*
X560201*
X552201Y794772*
Y803772D02*
X560201D01*
X552201Y811772*
X560201*
X552201Y803772*
X547201Y745272D02*
X555201D01*
X547201Y753272*
X555201*
X547201Y745272*
X552201D02*
X560201D01*
X552201Y753272*
X560201*
X552201Y745272*
X547201Y749772D02*
X555201D01*
X547201Y757772*
X555201*
X547201Y749772*
X552201D02*
X560201D01*
X552201Y757772*
X560201*
X552201Y749772*
X547201Y754272D02*
X555201D01*
X547201Y762272*
X555201*
X547201Y754272*
X552201D02*
X560201D01*
X552201Y762272*
X560201*
X552201Y754272*
X407772Y450244D02*
X415772Y458244D01*
X407772D02*
X415772Y450244D01*
X407732Y444299D02*
X415732Y452299D01*
X407732D02*
X415732Y444299D01*
X414031D02*
X422031Y452299D01*
X414031D02*
X422031Y444299D01*
X407732Y433551D02*
X415732Y441551D01*
X407732D02*
X415732Y433551D01*
X407732Y438591D02*
X415732Y446591D01*
X407732D02*
X415732Y438591D01*
X407772Y456110D02*
X415772Y464110D01*
X407772D02*
X415772Y456110D01*
X407614Y462213D02*
X415614Y470213D01*
X407614D02*
X415614Y462213D01*
X421201Y431701D02*
X429201Y439701D01*
X421201D02*
X429201Y431701D01*
X421201Y442201D02*
X429201Y450201D01*
X421201D02*
X429201Y442201D01*
X421201Y454201D02*
X429201Y462201D01*
X421201D02*
X429201Y454201D01*
X421201Y448201D02*
X429201Y456201D01*
X421201D02*
X429201Y448201D01*
X421201Y437201D02*
X429201Y445201D01*
X421201D02*
X429201Y437201D01*
X421701Y462272D02*
X429701Y470272D01*
X421701D02*
X429701Y462272D01*
X479601Y459248D02*
X487601Y467248D01*
X479601D02*
X487601Y459248D01*
X479101Y449800D02*
X487101Y457800D01*
X479101D02*
X487101Y449800D01*
X447101Y450981D02*
X455101Y458981D01*
X447101D02*
X455101Y450981D01*
X447101Y460429D02*
X455101Y468429D01*
X447101D02*
X455101Y460429D01*
X407693Y470323D02*
X415693Y478323D01*
X407693D02*
X415693Y470323D01*
X407732Y466268D02*
X415732Y474268D01*
X407732D02*
X415732Y466268D01*
X435101Y488772D02*
X443101Y496772D01*
X435101D02*
X443101Y488772D01*
X435101Y481772D02*
X443101Y489772D01*
X435101D02*
X443101Y481772D01*
X410501Y497055D02*
X418501Y505055D01*
X410501D02*
X418501Y497055D01*
X421701Y471201D02*
X429701Y479201D01*
X421701D02*
X429701Y471201D01*
X421701Y466701D02*
X429701Y474701D01*
X421701D02*
X429701Y466701D01*
X447101Y502949D02*
X455101Y510949D01*
X447101D02*
X455101Y502949D01*
X447101Y495863D02*
X455101Y503863D01*
X447101D02*
X455101Y495863D01*
X467181Y501780D02*
X475181Y509780D01*
X467181D02*
X475181Y501780D01*
X467181Y487606D02*
X475181Y495606D01*
X467181D02*
X475181Y487606D01*
X467181Y480520D02*
X475181Y488520D01*
X467181D02*
X475181Y480520D01*
X479601Y466335D02*
X487601Y474335D01*
X479601D02*
X487601Y466335D01*
X447201Y468516D02*
X455201Y476516D01*
X447201D02*
X455201Y468516D01*
X496601Y483272D02*
X504601Y491272D01*
X496601D02*
X504601Y483272D01*
X496601Y488772D02*
X504601Y496772D01*
X496601D02*
X504601Y488772D01*
X467181Y537213D02*
X475181Y545213D01*
X467181D02*
X475181Y537213D01*
X467181Y523039D02*
X475181Y531039D01*
X467181D02*
X475181Y523039D01*
X467181Y515953D02*
X475181Y523953D01*
X467181D02*
X475181Y515953D01*
X467181Y508866D02*
X475181Y516866D01*
X467181D02*
X475181Y508866D01*
X447101Y538382D02*
X455101Y546382D01*
X447101D02*
X455101Y538382D01*
X447101Y531296D02*
X455101Y539296D01*
X447101D02*
X455101Y531296D01*
X447101Y524209D02*
X455101Y532209D01*
X447101D02*
X455101Y524209D01*
X447101Y517122D02*
X455101Y525122D01*
X447101D02*
X455101Y517122D01*
X447101Y510036D02*
X455101Y518036D01*
X447101D02*
X455101Y510036D01*
X467181Y544299D02*
X475181Y552299D01*
X467181D02*
X475181Y544299D01*
X467181Y551268D02*
X475181Y559268D01*
X467181D02*
X475181Y551268D01*
X467181Y558472D02*
X475181Y566472D01*
X467181D02*
X475181Y558472D01*
X467181Y565559D02*
X475181Y573559D01*
X467181D02*
X475181Y565559D01*
X467181Y572646D02*
X475181Y580646D01*
X467181D02*
X475181Y572646D01*
X467181Y579732D02*
X475181Y587732D01*
X467181D02*
X475181Y579732D01*
X447101Y580902D02*
X455101Y588902D01*
X447101D02*
X455101Y580902D01*
X447101Y573815D02*
X455101Y581815D01*
X447101D02*
X455101Y573815D01*
X447101Y566729D02*
X455101Y574729D01*
X447101D02*
X455101Y566729D01*
X447101Y559642D02*
X455101Y567642D01*
X447101D02*
X455101Y559642D01*
X447101Y552555D02*
X455101Y560555D01*
X447101D02*
X455101Y552555D01*
X447101Y545469D02*
X455101Y553469D01*
X447101D02*
X455101Y545469D01*
X496601Y582272D02*
X504601Y590272D01*
X496601D02*
X504601Y582272D01*
X497201Y568772D02*
X505201Y576772D01*
X497201D02*
X505201Y568772D01*
X497101Y576272D02*
X505101Y584272D01*
X497101D02*
X505101Y576272D01*
X467181Y586819D02*
X475181Y594819D01*
X467181D02*
X475181Y586819D01*
X467181Y593906D02*
X475181Y601906D01*
X467181D02*
X475181Y593906D01*
X467181Y600992D02*
X475181Y608992D01*
X467181D02*
X475181Y600992D01*
X467181Y608079D02*
X475181Y616079D01*
X467181D02*
X475181Y608079D01*
X467181Y615165D02*
X475181Y623165D01*
X467181D02*
X475181Y615165D01*
X467181Y622252D02*
X475181Y630252D01*
X467181D02*
X475181Y622252D01*
X447101Y623422D02*
X455101Y631422D01*
X447101D02*
X455101Y623422D01*
X447101Y616335D02*
X455101Y624335D01*
X447101D02*
X455101Y616335D01*
X447101Y609248D02*
X455101Y617248D01*
X447101D02*
X455101Y609248D01*
X447101Y602162D02*
X455101Y610162D01*
X447101D02*
X455101Y602162D01*
X447101Y595075D02*
X455101Y603075D01*
X447101D02*
X455101Y595075D01*
X447101Y587989D02*
X455101Y595989D01*
X447101D02*
X455101Y587989D01*
X496601Y587772D02*
X504601Y595772D01*
X496601D02*
X504601Y587772D01*
X434101Y651772D02*
X442101Y659772D01*
X434101D02*
X442101Y651772D01*
X433601Y632870D02*
X441601Y640870D01*
X433601D02*
X441601Y632870D01*
X480701Y652087D02*
X488701Y660087D01*
X480701D02*
X488701Y652087D01*
X467181Y657685D02*
X475181Y665685D01*
X467181D02*
X475181Y657685D01*
X447102Y658866D02*
X455102Y666866D01*
X447102D02*
X455102Y658866D01*
X467181Y629260D02*
X475181Y637260D01*
X467181D02*
X475181Y629260D01*
X447101Y630508D02*
X455101Y638508D01*
X447101D02*
X455101Y630508D01*
X492683Y628272D02*
X500683Y636272D01*
X492683D02*
X500683Y628272D01*
X492701Y654272D02*
X500701Y662272D01*
X492701D02*
X500701Y654272D01*
X492683Y643272D02*
X500683Y651272D01*
X492683D02*
X500683Y643272D01*
X486483Y628272D02*
X494483Y636272D01*
X486483D02*
X494483Y628272D01*
X486483Y643272D02*
X494483Y651272D01*
X486483D02*
X494483Y643272D01*
X467181Y678945D02*
X475181Y686945D01*
X467181D02*
X475181Y678945D01*
X467181Y664772D02*
X475181Y672772D01*
X467181D02*
X475181Y664772D01*
X467181Y671858D02*
X475181Y679858D01*
X467181D02*
X475181Y671858D01*
X447102Y665953D02*
X455102Y673953D01*
X447102D02*
X455102Y665953D01*
X447102Y673039D02*
X455102Y681039D01*
X447102D02*
X455102Y673039D01*
X447102Y680126D02*
X455102Y688126D01*
X447102D02*
X455102Y680126D01*
X447102Y687213D02*
X455102Y695213D01*
X447102D02*
X455102Y687213D01*
X447102Y694299D02*
X455102Y702299D01*
X447102D02*
X455102Y694299D01*
X467201Y685772D02*
X475201Y693772D01*
X467201D02*
X475201Y685772D01*
X492701Y667272D02*
X500701Y675272D01*
X492701D02*
X500701Y667272D01*
X475069Y733772D02*
X483069Y741772D01*
X475069D02*
X483069Y733772D01*
X501201Y737488D02*
X509201Y745488D01*
X501201D02*
X509201Y737488D01*
X499101Y722172D02*
X507101Y730172D01*
X499101D02*
X507101Y722172D01*
X488101Y723272D02*
X496101Y731272D01*
X488101D02*
X496101Y723272D01*
X517181Y742370D02*
X525181Y750370D01*
X517181D02*
X525181Y742370D01*
X507601Y737449D02*
X515601Y745449D01*
X507601D02*
X515601Y737449D01*
X495101Y733772D02*
X503101Y741772D01*
X495101D02*
X503101Y733772D01*
X499101Y728372D02*
X507101Y736372D01*
X499101D02*
X507101Y728372D01*
X548701Y734772D02*
X556701Y742772D01*
X548701D02*
X556701Y734772D01*
X553201Y716772D02*
X561201Y724772D01*
X553201D02*
X561201Y716772D01*
X527201Y741701D02*
X535201Y749701D01*
X527201D02*
X535201Y741701D01*
X533701Y730772D02*
X541701Y738772D01*
X533701D02*
X541701Y730772D01*
X528701D02*
X536701Y738772D01*
X528701D02*
X536701Y730772D01*
X528701Y735520D02*
X536701Y743520D01*
X528701D02*
X536701Y735520D01*
X533701D02*
X541701Y743520D01*
X533701D02*
X541701Y735520D01*
X561201Y710272D02*
X569201Y718272D01*
X561201D02*
X569201Y710272D01*
X561201Y716272D02*
X569201Y724272D01*
X561201D02*
X569201Y716272D01*
X566701Y710272D02*
X574701Y718272D01*
X566701D02*
X574701Y710272D01*
X566701Y716272D02*
X574701Y724272D01*
X566701D02*
X574701Y716272D01*
X481101Y770772D02*
X489101Y778772D01*
X481101D02*
X489101Y770772D01*
X517142Y747646D02*
X525142Y755646D01*
X517142D02*
X525142Y747646D01*
X527201Y747701D02*
X535201Y755701D01*
X527201D02*
X535201Y747701D01*
X528701Y780272D02*
X536701Y788272D01*
X528701D02*
X536701Y780272D01*
X533701D02*
X541701Y788272D01*
X533701D02*
X541701Y780272D01*
X567614Y760362D02*
X575614Y768362D01*
X567614D02*
X575614Y760362D01*
X579386Y773984D02*
X587386Y781984D01*
X579386D02*
X587386Y773984D01*
X574307D02*
X582307Y781984D01*
X574307D02*
X582307Y773984D01*
X579386Y779614D02*
X587386Y787614D01*
X579386D02*
X587386Y779614D01*
X574307D02*
X582307Y787614D01*
X574307D02*
X582307Y779614D01*
X434306Y798772D02*
X442306Y806772D01*
X434306D02*
X442306Y798772D01*
X441983Y798272D02*
X449983Y806272D01*
X441983D02*
X449983Y798272D01*
X441983Y808772D02*
X449983Y816772D01*
X441983D02*
X449983Y808772D01*
X459701Y798772D02*
X467701Y806772D01*
X459701D02*
X467701Y798772D01*
X453601Y797390D02*
X461601Y805390D01*
X453601D02*
X461601Y797390D01*
X452219Y808772D02*
X460219Y816772D01*
X452219D02*
X460219Y808772D01*
X504601Y787803D02*
X512601Y795803D01*
X504601D02*
X512601Y787803D01*
X517024Y797528D02*
X525024Y805528D01*
X517024D02*
X525024Y797528D01*
X510601Y787724D02*
X518601Y795724D01*
X510601D02*
X518601Y787724D01*
X517220Y791346D02*
X525220Y799346D01*
X517220D02*
X525220Y791346D01*
X527201Y797372D02*
X535201Y805372D01*
X527201D02*
X535201Y797372D01*
X548701Y785272D02*
X556701Y793272D01*
X548701D02*
X556701Y785272D01*
X527201Y791172D02*
X535201Y799172D01*
X527201D02*
X535201Y791172D01*
X533701Y785244D02*
X541701Y793244D01*
X533701D02*
X541701Y785244D01*
X528701Y785272D02*
X536701Y793272D01*
X528701D02*
X536701Y785272D01*
X568087Y809299D02*
X576087Y817299D01*
X568087D02*
X576087Y809299D01*
X393701Y826772D02*
X614173D01*
Y393701*
X393701*
Y826772*
X332709Y766154D02*
X418959Y679904D01*
X419209Y685154D02*
Y679779D01*
X413709Y679654D02*
X418959D01*
X393701Y846201D02*
X485369D01*
X393701D02*
X403701Y848701D01*
Y843701*
X393701Y846201*
X614173D02*
X522505D01*
X614173D02*
X604173Y843701D01*
Y848701*
X614173Y846201*
X393701Y831772D02*
Y851201D01*
X614173Y831772D02*
Y851201D01*
X491323Y849013D02*
X489051D01*
X488823Y846201*
X489051Y846513*
X489732Y846826*
X490414*
X491096Y846513*
X491551Y845888*
X491778Y844951*
X491551Y844326*
X491323Y843388*
X490869Y842763*
X490187Y842451*
X489505*
X488823Y842763*
X488596Y843076*
X488369Y843701*
X496551Y848076D02*
X496323Y848701D01*
X495642Y849013*
X495187*
X494505Y848701*
X494051Y847763*
X493823Y846201*
Y844638*
X494051Y843388*
X494505Y842763*
X495187Y842451*
X495414*
X496096Y842763*
X496551Y843388*
X496778Y844326*
Y844638*
X496551Y845576*
X496096Y846201*
X495414Y846513*
X495187*
X494505Y846201*
X494051Y845576*
X493823Y844638*
X499051Y843076D02*
X498823Y842763D01*
X499051Y842451*
X499278Y842763*
X499051Y843076*
X502687Y849013D02*
X502005Y848701D01*
X501551Y847763*
X501323Y846201*
Y845263*
X501551Y843701*
X502005Y842763*
X502687Y842451*
X503142*
X503823Y842763*
X504278Y843701*
X504505Y845263*
Y846201*
X504278Y847763*
X503823Y848701*
X503142Y849013*
X502687*
X506551Y846826D02*
Y842451D01*
Y845576D02*
X507232Y846513D01*
X507687Y846826*
X508369*
X508823Y846513*
X509051Y845576*
Y842451*
Y845576D02*
X509732Y846513D01*
X510187Y846826*
X510869*
X511323Y846513*
X511551Y845576*
Y842451*
X513596Y846826D02*
Y842451D01*
Y845576D02*
X514278Y846513D01*
X514732Y846826*
X515414*
X515869Y846513*
X516096Y845576*
Y842451*
Y845576D02*
X516778Y846513D01*
X517232Y846826*
X517914*
X518369Y846513*
X518596Y845576*
Y842451*
X637201Y393701D02*
Y603486D01*
Y393701D02*
X634701Y403701D01*
X639701*
X637201Y393701*
Y826772D02*
Y616986D01*
Y826772D02*
X639701Y816772D01*
X634701*
X637201Y826772*
X619173Y393701D02*
X642201D01*
X619173Y826772D02*
X642201D01*
X621064Y611799D02*
X621519Y612111D01*
X622201Y613049*
Y606486*
X624246Y611799D02*
X624701Y612111D01*
X625383Y613049*
Y606486*
X628792Y613049D02*
X628110Y612736D01*
X627655Y611799*
X627428Y610236*
Y609299*
X627655Y607736*
X628110Y606799*
X628792Y606486*
X629246*
X629928Y606799*
X630383Y607736*
X630610Y609299*
Y610236*
X630383Y611799*
X629928Y612736*
X629246Y613049*
X628792*
X632883Y607111D02*
X632655Y606799D01*
X632883Y606486*
X633110Y606799*
X632883Y607111*
X636519Y613049D02*
X635837Y612736D01*
X635383Y611799*
X635155Y610236*
Y609299*
X635383Y607736*
X635837Y606799*
X636519Y606486*
X636974*
X637655Y606799*
X638110Y607736*
X638337Y609299*
Y610236*
X638110Y611799*
X637655Y612736*
X636974Y613049*
X636519*
X640383Y610861D02*
Y606486D01*
Y609611D02*
X641064Y610549D01*
X641519Y610861*
X642201*
X642655Y610549*
X642883Y609611*
Y606486*
Y609611D02*
X643564Y610549D01*
X644019Y610861*
X644701*
X645155Y610549*
X645383Y609611*
Y606486*
X647428Y610861D02*
Y606486D01*
Y609611D02*
X648110Y610549D01*
X648564Y610861*
X649246*
X649701Y610549*
X649928Y609611*
Y606486*
Y609611D02*
X650610Y610549D01*
X651064Y610861*
X651746*
X652201Y610549*
X652428Y609611*
Y606486*
X393701Y1152252D02*
X651701D01*
X393701Y1128252D02*
X651701D01*
X393701Y1104252D02*
X651701D01*
X393701Y1080252D02*
X651701D01*
X393701Y1056252D02*
X651701D01*
X393701Y1032252D02*
X651701D01*
X393701Y1008252D02*
X651701D01*
X393701Y984252D02*
X651701D01*
X393701Y1152252D02*
Y984252D01*
X477701Y1152252D02*
Y984252D01*
X513701Y1152252D02*
Y984252D01*
X549701Y1152252D02*
Y984252D01*
X603701Y1152252D02*
Y984252D01*
X651701Y1152252D02*
Y984252D01*
X429201Y1141002D02*
X428655Y1141752D01*
X427837Y1142127*
X426746*
X425928Y1141752*
X425383Y1141002*
Y1140252*
X425655Y1139502*
X425928Y1139127*
X426474Y1138752*
X428110Y1138002*
X428655Y1137627*
X428928Y1137252*
X429201Y1136502*
Y1135377*
X428655Y1134627*
X427837Y1134252*
X426746*
X425928Y1134627*
X425383Y1135377*
X431655Y1142127D02*
Y1134252D01*
X437928Y1142127D02*
X434110Y1134252D01*
Y1142127D02*
X437928D01*
X434110Y1134252D02*
X437928D01*
X440383Y1142127D02*
Y1134252D01*
Y1142127D02*
X443928D01*
X440383Y1138377D02*
X442564D01*
X440383Y1134252D02*
X443928D01*
X487564Y1142127D02*
X487019Y1141752D01*
X486474Y1141002*
X486201Y1140252*
X485928Y1139127*
Y1137252*
X486201Y1136127*
X486474Y1135377*
X487019Y1134627*
X487564Y1134252*
X488655*
X489201Y1134627*
X489746Y1135377*
X490019Y1136127*
X490292Y1137252*
Y1139127*
X490019Y1140252*
X489746Y1141002*
X489201Y1141752*
X488655Y1142127*
X487564*
X488383Y1135752D02*
X490019Y1133502D01*
X494655Y1142127D02*
Y1134252D01*
X492746Y1142127D02*
X496564D01*
X499019D02*
X501201Y1138377D01*
Y1134252*
X503383Y1142127D02*
X501201Y1138377D01*
X525746Y1141002D02*
X525201Y1141752D01*
X524383Y1142127*
X523292*
X522474Y1141752*
X521928Y1141002*
Y1140252*
X522201Y1139502*
X522474Y1139127*
X523019Y1138752*
X524655Y1138002*
X525201Y1137627*
X525474Y1137252*
X525746Y1136502*
Y1135377*
X525201Y1134627*
X524383Y1134252*
X523292*
X522474Y1134627*
X521928Y1135377*
X528201Y1142127D02*
X530383Y1138377D01*
Y1134252*
X532564Y1142127D02*
X530383Y1138377D01*
X535019Y1142127D02*
Y1134252D01*
Y1142127D02*
X537201Y1134252D01*
X539383Y1142127D02*
X537201Y1134252D01*
X539383Y1142127D02*
Y1134252D01*
X561201Y1142127D02*
Y1134252D01*
Y1142127D02*
X563655D01*
X564474Y1141752*
X564746Y1141377*
X565019Y1140627*
Y1139502*
X564746Y1138752*
X564474Y1138377*
X563655Y1138002*
X561201*
X567474Y1142127D02*
Y1134252D01*
X570746*
X575383Y1142127D02*
X573201Y1134252D01*
X575383Y1142127D02*
X577564Y1134252D01*
X574019Y1136877D02*
X576746D01*
X581928Y1142127D02*
Y1134252D01*
X580019Y1142127D02*
X583837D01*
X586292D02*
Y1134252D01*
Y1142127D02*
X589837D01*
X586292Y1138377D02*
X588474D01*
X586292Y1134252D02*
X589837D01*
X592292Y1142127D02*
Y1134252D01*
Y1142127D02*
X594201D01*
X595019Y1141752*
X595564Y1141002*
X595837Y1140252*
X596110Y1139127*
Y1137252*
X595837Y1136127*
X595564Y1135377*
X595019Y1134627*
X594201Y1134252*
X592292*
X620383Y1142127D02*
Y1134252D01*
X618474Y1142127D02*
X622292D01*
X626383D02*
X625837Y1141752D01*
X625292Y1141002*
X625019Y1140252*
X624746Y1139127*
Y1137252*
X625019Y1136127*
X625292Y1135377*
X625837Y1134627*
X626383Y1134252*
X627474*
X628019Y1134627*
X628564Y1135377*
X628837Y1136127*
X629110Y1137252*
Y1139127*
X628837Y1140252*
X628564Y1141002*
X628019Y1141752*
X627474Y1142127*
X626383*
X631564D02*
Y1134252D01*
X634837*
X399974Y1116252D02*
Y1116627D01*
X400246Y1117377*
X400519Y1117752*
X401064Y1118127*
X402155*
X402701Y1117752*
X402974Y1117377*
X403246Y1116627*
Y1115877*
X402974Y1115127*
X402428Y1114002*
X399701Y1110252*
X403519*
X406246Y1111002D02*
X405974Y1110627D01*
X406246Y1110252*
X406519Y1110627*
X406246Y1111002*
X412519Y1118127D02*
X409792D01*
X409519Y1114752*
X409792Y1115127*
X410610Y1115502*
X411428*
X412246Y1115127*
X412792Y1114377*
X413064Y1113252*
X412792Y1112502*
X412519Y1111377*
X411974Y1110627*
X411155Y1110252*
X410337*
X409519Y1110627*
X409246Y1111002*
X408974Y1111752*
X418246Y1118127D02*
X415519Y1112877D01*
X419610*
X418246Y1118127D02*
Y1110252D01*
X495337Y1118127D02*
X492610Y1112877D01*
X496701*
X495337Y1118127D02*
Y1110252D01*
X525701Y1116252D02*
X537701D01*
X531701Y1110252D02*
Y1122252D01*
X561337Y1118127D02*
Y1110252D01*
Y1118127D02*
X565155Y1110252D01*
Y1118127D02*
Y1110252D01*
X569246Y1118127D02*
X568701Y1117752D01*
X568155Y1117002*
X567883Y1116252*
X567610Y1115127*
Y1113252*
X567883Y1112127*
X568155Y1111377*
X568701Y1110627*
X569246Y1110252*
X570337*
X570883Y1110627*
X571428Y1111377*
X571701Y1112127*
X571974Y1113252*
Y1115127*
X571701Y1116252*
X571428Y1117002*
X570883Y1117752*
X570337Y1118127*
X569246*
X611519Y1117002D02*
Y1110252D01*
X609064Y1113627D02*
X613974D01*
X621337Y1119627D02*
X616428Y1107627D01*
X623792Y1113627D02*
X628701D01*
X632792Y1118127D02*
X631974Y1117752D01*
X631428Y1116627*
X631155Y1114752*
Y1113627*
X631428Y1111752*
X631974Y1110627*
X632792Y1110252*
X633337*
X634155Y1110627*
X634701Y1111752*
X634974Y1113627*
Y1114752*
X634701Y1116627*
X634155Y1117752*
X633337Y1118127*
X632792*
X637701Y1111002D02*
X637428Y1110627D01*
X637701Y1110252*
X637974Y1110627*
X637701Y1111002*
X642064Y1118127D02*
X641246Y1117752D01*
X640701Y1116627*
X640428Y1114752*
Y1113627*
X640701Y1111752*
X641246Y1110627*
X642064Y1110252*
X642610*
X643428Y1110627*
X643974Y1111752*
X644246Y1113627*
Y1114752*
X643974Y1116627*
X643428Y1117752*
X642610Y1118127*
X642064*
X401337Y1094127D02*
X400519Y1093752D01*
X399974Y1092627*
X399701Y1090752*
Y1089627*
X399974Y1087752*
X400519Y1086627*
X401337Y1086252*
X401883*
X402701Y1086627*
X403246Y1087752*
X403519Y1089627*
Y1090752*
X403246Y1092627*
X402701Y1093752*
X401883Y1094127*
X401337*
X406246Y1087002D02*
X405974Y1086627D01*
X406246Y1086252*
X406519Y1086627*
X406246Y1087002*
X409519Y1094127D02*
X412519D01*
X410883Y1091127*
X411701*
X412246Y1090752*
X412519Y1090377*
X412792Y1089252*
Y1088502*
X412519Y1087377*
X411974Y1086627*
X411155Y1086252*
X410337*
X409519Y1086627*
X409246Y1087002*
X408974Y1087752*
X416883Y1094127D02*
X416064Y1093752D01*
X415519Y1092627*
X415246Y1090752*
Y1089627*
X415519Y1087752*
X416064Y1086627*
X416883Y1086252*
X417428*
X418246Y1086627*
X418792Y1087752*
X419064Y1089627*
Y1090752*
X418792Y1092627*
X418246Y1093752*
X417428Y1094127*
X416883*
X424246D02*
X421519Y1088877D01*
X425610*
X424246Y1094127D02*
Y1086252D01*
X429428Y1094127D02*
X428610Y1093752D01*
X428337Y1093002*
Y1092252*
X428610Y1091502*
X429155Y1091127*
X430246Y1090752*
X431064Y1090377*
X431610Y1089627*
X431883Y1088877*
Y1087752*
X431610Y1087002*
X431337Y1086627*
X430519Y1086252*
X429428*
X428610Y1086627*
X428337Y1087002*
X428064Y1087752*
Y1088877*
X428337Y1089627*
X428883Y1090377*
X429701Y1090752*
X430792Y1091127*
X431337Y1091502*
X431610Y1092252*
Y1093002*
X431337Y1093752*
X430519Y1094127*
X429428*
X487701Y1092627D02*
X488246Y1093002D01*
X489064Y1094127*
Y1086252*
X492064Y1094127D02*
X495064D01*
X493428Y1091127*
X494246*
X494792Y1090752*
X495064Y1090377*
X495337Y1089252*
Y1088502*
X495064Y1087377*
X494519Y1086627*
X493701Y1086252*
X492883*
X492064Y1086627*
X491792Y1087002*
X491519Y1087752*
X501610Y1094127D02*
X498883Y1086252D01*
X497792Y1094127D02*
X501610D01*
X525701Y1086252D02*
X537701Y1098252D01*
X525701D02*
X537701Y1086252D01*
X558337Y1094127D02*
X560519Y1090377D01*
Y1086252*
X562701Y1094127D02*
X560519Y1090377D01*
X565155Y1094127D02*
Y1086252D01*
Y1094127D02*
X568701D01*
X565155Y1090377D02*
X567337D01*
X565155Y1086252D02*
X568701D01*
X574974Y1093002D02*
X574428Y1093752D01*
X573610Y1094127*
X572519*
X571701Y1093752*
X571155Y1093002*
Y1092252*
X571428Y1091502*
X571701Y1091127*
X572246Y1090752*
X573883Y1090002*
X574428Y1089627*
X574701Y1089252*
X574974Y1088502*
Y1087377*
X574428Y1086627*
X573610Y1086252*
X572519*
X571701Y1086627*
X571155Y1087377*
X611519Y1093002D02*
Y1086252D01*
X609064Y1089627D02*
X613974D01*
X621337Y1095627D02*
X616428Y1083627D01*
X623792Y1089627D02*
X628701D01*
X632792Y1094127D02*
X631974Y1093752D01*
X631428Y1092627*
X631155Y1090752*
Y1089627*
X631428Y1087752*
X631974Y1086627*
X632792Y1086252*
X633337*
X634155Y1086627*
X634701Y1087752*
X634974Y1089627*
Y1090752*
X634701Y1092627*
X634155Y1093752*
X633337Y1094127*
X632792*
X637701Y1087002D02*
X637428Y1086627D01*
X637701Y1086252*
X637974Y1086627*
X637701Y1087002*
X642064Y1094127D02*
X641246Y1093752D01*
X640701Y1092627*
X640428Y1090752*
Y1089627*
X640701Y1087752*
X641246Y1086627*
X642064Y1086252*
X642610*
X643428Y1086627*
X643974Y1087752*
X644246Y1089627*
Y1090752*
X643974Y1092627*
X643428Y1093752*
X642610Y1094127*
X642064*
X399701Y1068627D02*
X400246Y1069002D01*
X401064Y1070127*
Y1062252*
X403792Y1063002D02*
X403519Y1062627D01*
X403792Y1062252*
X404064Y1062627*
X403792Y1063002*
X407064Y1070127D02*
X410064D01*
X408428Y1067127*
X409246*
X409792Y1066752*
X410064Y1066377*
X410337Y1065252*
Y1064502*
X410064Y1063377*
X409519Y1062627*
X408701Y1062252*
X407883*
X407064Y1062627*
X406792Y1063002*
X406519Y1063752*
X413064Y1068252D02*
Y1068627D01*
X413337Y1069377*
X413610Y1069752*
X414155Y1070127*
X415246*
X415792Y1069752*
X416064Y1069377*
X416337Y1068627*
Y1067877*
X416064Y1067127*
X415519Y1066002*
X412792Y1062252*
X416610*
X420701Y1070127D02*
X419883Y1069752D01*
X419337Y1068627*
X419064Y1066752*
Y1065627*
X419337Y1063752*
X419883Y1062627*
X420701Y1062252*
X421246*
X422064Y1062627*
X422610Y1063752*
X422883Y1065627*
Y1066752*
X422610Y1068627*
X422064Y1069752*
X421246Y1070127*
X420701*
X426701D02*
X425883Y1069752D01*
X425610Y1069002*
Y1068252*
X425883Y1067502*
X426428Y1067127*
X427519Y1066752*
X428337Y1066377*
X428883Y1065627*
X429155Y1064877*
Y1063752*
X428883Y1063002*
X428610Y1062627*
X427792Y1062252*
X426701*
X425883Y1062627*
X425610Y1063002*
X425337Y1063752*
Y1064877*
X425610Y1065627*
X426155Y1066377*
X426974Y1066752*
X428064Y1067127*
X428610Y1067502*
X428883Y1068252*
Y1069002*
X428610Y1069752*
X427792Y1070127*
X426701*
X493974Y1068627D02*
X494519Y1069002D01*
X495337Y1070127*
Y1062252*
X525701D02*
X537701D01*
Y1074252*
X525701*
Y1062252*
X531701Y1068252D02*
Y1074252D01*
X561337Y1070127D02*
Y1062252D01*
Y1070127D02*
X565155Y1062252D01*
Y1070127D02*
Y1062252D01*
X569246Y1070127D02*
X568701Y1069752D01*
X568155Y1069002*
X567883Y1068252*
X567610Y1067127*
Y1065252*
X567883Y1064127*
X568155Y1063377*
X568701Y1062627*
X569246Y1062252*
X570337*
X570883Y1062627*
X571428Y1063377*
X571701Y1064127*
X571974Y1065252*
Y1067127*
X571701Y1068252*
X571428Y1069002*
X570883Y1069752*
X570337Y1070127*
X569246*
X611519Y1069002D02*
Y1062252D01*
X609064Y1065627D02*
X613974D01*
X621337Y1071627D02*
X616428Y1059627D01*
X623792Y1065627D02*
X628701D01*
X632792Y1070127D02*
X631974Y1069752D01*
X631428Y1068627*
X631155Y1066752*
Y1065627*
X631428Y1063752*
X631974Y1062627*
X632792Y1062252*
X633337*
X634155Y1062627*
X634701Y1063752*
X634974Y1065627*
Y1066752*
X634701Y1068627*
X634155Y1069752*
X633337Y1070127*
X632792*
X637701Y1063002D02*
X637428Y1062627D01*
X637701Y1062252*
X637974Y1062627*
X637701Y1063002*
X642064Y1070127D02*
X641246Y1069752D01*
X640701Y1068627*
X640428Y1066752*
Y1065627*
X640701Y1063752*
X641246Y1062627*
X642064Y1062252*
X642610*
X643428Y1062627*
X643974Y1063752*
X644246Y1065627*
Y1066752*
X643974Y1068627*
X643428Y1069752*
X642610Y1070127*
X642064*
X399701Y1044627D02*
X400246Y1045002D01*
X401064Y1046127*
Y1038252*
X403792Y1039002D02*
X403519Y1038627D01*
X403792Y1038252*
X404064Y1038627*
X403792Y1039002*
X407883Y1046127D02*
X407064Y1045752D01*
X406792Y1045002*
Y1044252*
X407064Y1043502*
X407610Y1043127*
X408701Y1042752*
X409519Y1042377*
X410064Y1041627*
X410337Y1040877*
Y1039752*
X410064Y1039002*
X409792Y1038627*
X408974Y1038252*
X407883*
X407064Y1038627*
X406792Y1039002*
X406519Y1039752*
Y1040877*
X406792Y1041627*
X407337Y1042377*
X408155Y1042752*
X409246Y1043127*
X409792Y1043502*
X410064Y1044252*
Y1045002*
X409792Y1045752*
X408974Y1046127*
X407883*
X413064Y1044252D02*
Y1044627D01*
X413337Y1045377*
X413610Y1045752*
X414155Y1046127*
X415246*
X415792Y1045752*
X416064Y1045377*
X416337Y1044627*
Y1043877*
X416064Y1043127*
X415519Y1042002*
X412792Y1038252*
X416610*
X420428Y1046127D02*
X419610Y1045752D01*
X419337Y1045002*
Y1044252*
X419610Y1043502*
X420155Y1043127*
X421246Y1042752*
X422064Y1042377*
X422610Y1041627*
X422883Y1040877*
Y1039752*
X422610Y1039002*
X422337Y1038627*
X421519Y1038252*
X420428*
X419610Y1038627*
X419337Y1039002*
X419064Y1039752*
Y1040877*
X419337Y1041627*
X419883Y1042377*
X420701Y1042752*
X421792Y1043127*
X422337Y1043502*
X422610Y1044252*
Y1045002*
X422337Y1045752*
X421519Y1046127*
X420428*
X426701D02*
X425883Y1045752D01*
X425610Y1045002*
Y1044252*
X425883Y1043502*
X426428Y1043127*
X427519Y1042752*
X428337Y1042377*
X428883Y1041627*
X429155Y1040877*
Y1039752*
X428883Y1039002*
X428610Y1038627*
X427792Y1038252*
X426701*
X425883Y1038627*
X425610Y1039002*
X425337Y1039752*
Y1040877*
X425610Y1041627*
X426155Y1042377*
X426974Y1042752*
X428064Y1043127*
X428610Y1043502*
X428883Y1044252*
Y1045002*
X428610Y1045752*
X427792Y1046127*
X426701*
X493974Y1044627D02*
X494519Y1045002D01*
X495337Y1046127*
Y1038252*
X531701D02*
X537701Y1044252D01*
X531701Y1050252*
X525701Y1044252*
X531701Y1038252*
Y1044252D02*
Y1050252D01*
X561337Y1046127D02*
Y1038252D01*
Y1046127D02*
X565155Y1038252D01*
Y1046127D02*
Y1038252D01*
X569246Y1046127D02*
X568701Y1045752D01*
X568155Y1045002*
X567883Y1044252*
X567610Y1043127*
Y1041252*
X567883Y1040127*
X568155Y1039377*
X568701Y1038627*
X569246Y1038252*
X570337*
X570883Y1038627*
X571428Y1039377*
X571701Y1040127*
X571974Y1041252*
Y1043127*
X571701Y1044252*
X571428Y1045002*
X570883Y1045752*
X570337Y1046127*
X569246*
X611519Y1045002D02*
Y1038252D01*
X609064Y1041627D02*
X613974D01*
X621337Y1047627D02*
X616428Y1035627D01*
X623792Y1041627D02*
X628701D01*
X632792Y1046127D02*
X631974Y1045752D01*
X631428Y1044627*
X631155Y1042752*
Y1041627*
X631428Y1039752*
X631974Y1038627*
X632792Y1038252*
X633337*
X634155Y1038627*
X634701Y1039752*
X634974Y1041627*
Y1042752*
X634701Y1044627*
X634155Y1045752*
X633337Y1046127*
X632792*
X637701Y1039002D02*
X637428Y1038627D01*
X637701Y1038252*
X637974Y1038627*
X637701Y1039002*
X642064Y1046127D02*
X641246Y1045752D01*
X640701Y1044627*
X640428Y1042752*
Y1041627*
X640701Y1039752*
X641246Y1038627*
X642064Y1038252*
X642610*
X643428Y1038627*
X643974Y1039752*
X644246Y1041627*
Y1042752*
X643974Y1044627*
X643428Y1045752*
X642610Y1046127*
X642064*
X401337Y1022127D02*
X400519Y1021752D01*
X399974Y1020627*
X399701Y1018752*
Y1017627*
X399974Y1015752*
X400519Y1014627*
X401337Y1014252*
X401883*
X402701Y1014627*
X403246Y1015752*
X403519Y1017627*
Y1018752*
X403246Y1020627*
X402701Y1021752*
X401883Y1022127*
X401337*
X406246Y1015002D02*
X405974Y1014627D01*
X406246Y1014252*
X406519Y1014627*
X406246Y1015002*
X412519Y1022127D02*
X409792D01*
X409519Y1018752*
X409792Y1019127*
X410610Y1019502*
X411428*
X412246Y1019127*
X412792Y1018377*
X413064Y1017252*
X412792Y1016502*
X412519Y1015377*
X411974Y1014627*
X411155Y1014252*
X410337*
X409519Y1014627*
X409246Y1015002*
X408974Y1015752*
X417155Y1022127D02*
X416337Y1021752D01*
X415792Y1020627*
X415519Y1018752*
Y1017627*
X415792Y1015752*
X416337Y1014627*
X417155Y1014252*
X417701*
X418519Y1014627*
X419064Y1015752*
X419337Y1017627*
Y1018752*
X419064Y1020627*
X418519Y1021752*
X417701Y1022127*
X417155*
X423155D02*
X422337Y1021752D01*
X422064Y1021002*
Y1020252*
X422337Y1019502*
X422883Y1019127*
X423974Y1018752*
X424792Y1018377*
X425337Y1017627*
X425610Y1016877*
Y1015752*
X425337Y1015002*
X425064Y1014627*
X424246Y1014252*
X423155*
X422337Y1014627*
X422064Y1015002*
X421792Y1015752*
Y1016877*
X422064Y1017627*
X422610Y1018377*
X423428Y1018752*
X424519Y1019127*
X425064Y1019502*
X425337Y1020252*
Y1021002*
X425064Y1021752*
X424246Y1022127*
X423155*
X490837Y1020627D02*
X491383Y1021002D01*
X492201Y1022127*
Y1014252*
X494928Y1020252D02*
Y1020627D01*
X495201Y1021377*
X495474Y1021752*
X496019Y1022127*
X497110*
X497655Y1021752*
X497928Y1021377*
X498201Y1020627*
Y1019877*
X497928Y1019127*
X497383Y1018002*
X494655Y1014252*
X498474*
X525701D02*
X537701D01*
X525701Y1026252*
X537701*
X525701Y1014252*
X558337Y1022127D02*
X560519Y1018377D01*
Y1014252*
X562701Y1022127D02*
X560519Y1018377D01*
X565155Y1022127D02*
Y1014252D01*
Y1022127D02*
X568701D01*
X565155Y1018377D02*
X567337D01*
X565155Y1014252D02*
X568701D01*
X574974Y1021002D02*
X574428Y1021752D01*
X573610Y1022127*
X572519*
X571701Y1021752*
X571155Y1021002*
Y1020252*
X571428Y1019502*
X571701Y1019127*
X572246Y1018752*
X573883Y1018002*
X574428Y1017627*
X574701Y1017252*
X574974Y1016502*
Y1015377*
X574428Y1014627*
X573610Y1014252*
X572519*
X571701Y1014627*
X571155Y1015377*
X611519Y1021002D02*
Y1014252D01*
X609064Y1017627D02*
X613974D01*
X621337Y1023627D02*
X616428Y1011627D01*
X623792Y1017627D02*
X628701D01*
X632792Y1022127D02*
X631974Y1021752D01*
X631428Y1020627*
X631155Y1018752*
Y1017627*
X631428Y1015752*
X631974Y1014627*
X632792Y1014252*
X633337*
X634155Y1014627*
X634701Y1015752*
X634974Y1017627*
Y1018752*
X634701Y1020627*
X634155Y1021752*
X633337Y1022127*
X632792*
X637701Y1015002D02*
X637428Y1014627D01*
X637701Y1014252*
X637974Y1014627*
X637701Y1015002*
X642064Y1022127D02*
X641246Y1021752D01*
X640701Y1020627*
X640428Y1018752*
Y1017627*
X640701Y1015752*
X641246Y1014627*
X642064Y1014252*
X642610*
X643428Y1014627*
X643974Y1015752*
X644246Y1017627*
Y1018752*
X643974Y1020627*
X643428Y1021752*
X642610Y1022127*
X642064*
X401337Y998127D02*
X400519Y997752D01*
X399974Y996627*
X399701Y994752*
Y993627*
X399974Y991752*
X400519Y990627*
X401337Y990252*
X401883*
X402701Y990627*
X403246Y991752*
X403519Y993627*
Y994752*
X403246Y996627*
X402701Y997752*
X401883Y998127*
X401337*
X406246Y991002D02*
X405974Y990627D01*
X406246Y990252*
X406519Y990627*
X406246Y991002*
X412519Y998127D02*
X409792D01*
X409519Y994752*
X409792Y995127*
X410610Y995502*
X411428*
X412246Y995127*
X412792Y994377*
X413064Y993252*
X412792Y992502*
X412519Y991377*
X411974Y990627*
X411155Y990252*
X410337*
X409519Y990627*
X409246Y991002*
X408974Y991752*
X493019Y996252D02*
Y996627D01*
X493292Y997377*
X493564Y997752*
X494110Y998127*
X495201*
X495746Y997752*
X496019Y997377*
X496292Y996627*
Y995877*
X496019Y995127*
X495474Y994002*
X492746Y990252*
X496564*
X525701D02*
X537701Y1002252D01*
Y990252*
X525701Y1002252*
Y990252*
X561337Y998127D02*
Y990252D01*
Y998127D02*
X565155Y990252D01*
Y998127D02*
Y990252D01*
X569246Y998127D02*
X568701Y997752D01*
X568155Y997002*
X567883Y996252*
X567610Y995127*
Y993252*
X567883Y992127*
X568155Y991377*
X568701Y990627*
X569246Y990252*
X570337*
X570883Y990627*
X571428Y991377*
X571701Y992127*
X571974Y993252*
Y995127*
X571701Y996252*
X571428Y997002*
X570883Y997752*
X570337Y998127*
X569246*
X611519Y997002D02*
Y990252D01*
X609064Y993627D02*
X613974D01*
X621337Y999627D02*
X616428Y987627D01*
X623792Y993627D02*
X628701D01*
X632792Y998127D02*
X631974Y997752D01*
X631428Y996627*
X631155Y994752*
Y993627*
X631428Y991752*
X631974Y990627*
X632792Y990252*
X633337*
X634155Y990627*
X634701Y991752*
X634974Y993627*
Y994752*
X634701Y996627*
X634155Y997752*
X633337Y998127*
X632792*
X637701Y991002D02*
X637428Y990627D01*
X637701Y990252*
X637974Y990627*
X637701Y991002*
X642064Y998127D02*
X641246Y997752D01*
X640701Y996627*
X640428Y994752*
Y993627*
X640701Y991752*
X641246Y990627*
X642064Y990252*
X642610*
X643428Y990627*
X643974Y991752*
X644246Y993627*
Y994752*
X643974Y996627*
X643428Y997752*
X642610Y998127*
X642064*
X0Y0D02*
M02*
