%
T1C.012F095S3
X04252Y04357
X041173Y043755
X04252Y04412
X041173Y044259
X04252Y04462
X041173Y04483
X041803Y04483
X04252Y04522
X041177Y045424
X04252Y04582
X041177Y046011
X041161Y046621
X04257Y046627
X041173Y047027
X04257Y04707
X041169Y047432
X04257Y04752
X04145Y050106
X044598Y081277
X045622Y081277
X043831Y080277
X044598Y080227
X04576Y080139
X04511Y06983
X04511Y069121
X04511Y068413
X04511Y067704
X04511Y066995
X04511Y066287
X04381Y065577
X04376Y063687
X04511Y063451
X04511Y062742
X04511Y062033
X04511Y061325
X04511Y060616
X04511Y059907
X04511Y059199
X04511Y05849
X04511Y057781
X04511Y057073
X04511Y056364
X04511Y055655
X04511Y054947
X04511Y054238
X04511Y05353
X04511Y052821
X04511Y052112
X04511Y051404
X04511Y050695
X04511Y049986
X04391Y049277
X04391Y048577
X04512Y047252
X04511Y046443
X04511Y045498
X04831Y04538
X04836Y046325
X04836Y047033
X047118Y048452
X047118Y049161
X047118Y050578
X047118Y051287
X047118Y051995
X047118Y052704
X047118Y054121
X047118Y05483
X047118Y055527
X047118Y056247
X047118Y056956
X047118Y057665
X047118Y058373
X047118Y059082
X047118Y059791
X047118Y060499
X047118Y061208
X047118Y061917
X047118Y062625
X047118Y063326
X04847Y065609
X047118Y066169
X047118Y066877
X047118Y067586
X047118Y068294
X04712Y068977
X047907Y073777
X04851Y077477
X04637Y080277
X05086Y07918
X05087Y07397
X04971Y073877
X05011Y073337
X05087Y07332
X04921Y072727
X05011Y072717
X05107Y07222
X04967Y067127
X04967Y065827
X049048Y064727
X049668Y064727
X049668Y063227
X049048Y063227
X05006Y059177
X05006Y058627
X05011Y058027
X05012Y057277
X05006Y049277
X05006Y048727
X05217Y07222
X05162Y07222
X05277Y07222
X05187Y07332
X05237Y07337
X05187Y07397
X05237Y07397
X05327Y078427
X05377Y078427
X05377Y078924
X05327Y078927
X05527Y078927
X05146Y079172
X05312Y079517
X052122Y079535
X05312Y080137
X052102Y080153
X05722Y08127
X058339Y078361
X057831Y078361
X058339Y077798
X057831Y077798
X05652Y07397
X05702Y07397
X05802Y07397
X05702Y07337
X05802Y07337
X05652Y07337
X05752Y07207
X05702Y07207
X05652Y07207
X05702Y07157
X05652Y07157
X05752Y07157
T2C.01969F095S3
X045897Y081015
X044323Y081015
T3C.02F197S55
X05417Y07512
X05472Y07512
X05532Y07547
X05357Y07547
X05532Y07592
X05357Y07592
X05472Y07627
X05417Y076277
X05512Y079877
X05562Y079877
X05562Y080327
X05512Y080327
X05562Y080777
X05512Y080777
T4C.052F107S55
X04611Y044238
T5C.072F081S55
X04611Y070518
T6C.1F069S658
X041339Y041339
X059449Y041339
X059449Y080709
X041339Y080709
M30
