%
T1C.012F095S3
X041173Y043755
X041173Y04483
X041173Y044259
X041177Y046011
X041177Y045424
X041803Y04483
X04252Y04462
X04252Y04412
X04252Y04357
X04252Y04522
X04252Y04582
X04312Y04482
X04511Y045498
X04831Y04538
X04836Y046325
X05006Y048727
X04836Y047033
X047118Y048452
X04511Y046443
X04511Y047152
X04391Y048577
X04257Y04752
X04257Y046627
X04257Y04707
X041173Y047027
X041169Y047432
X041161Y046621
X04145Y050106
X04391Y049277
X04511Y049986
X04511Y050695
X047118Y050578
X047118Y049161
X047118Y051287
X05006Y049277
X047118Y052704
X047118Y051995
X047118Y054121
X047118Y05483
X047118Y055527
X047118Y056247
X04511Y05353
X04511Y054238
X04511Y052821
X04511Y052112
X04511Y051404
X04511Y055655
X04511Y054947
X04511Y05849
X04511Y057781
X04511Y057073
X04511Y056364
X047118Y058373
X047118Y056956
X047118Y057665
X05006Y058627
X05011Y058027
X05012Y057277
X05006Y059177
X047118Y059791
X047118Y060499
X047118Y061208
X047118Y059082
X04511Y060616
X04511Y059907
X04511Y059199
X04511Y061325
X04376Y063687
X04511Y062742
X04511Y062033
X04511Y063451
X047118Y062625
X047118Y063326
X047118Y061917
X049048Y063227
X049668Y063227
X04967Y065827
X04967Y067127
X049668Y064727
X049048Y064727
X04841Y065459
X047118Y066169
X047118Y066877
X047118Y067586
X047118Y068294
X04511Y066287
X04511Y067704
X04511Y068413
X04511Y066995
X04381Y065577
X04511Y06983
X04511Y069121
X04712Y068977
X047907Y073777
X04921Y072727
X04991Y073777
X05031Y072617
X05031Y073237
X05327Y073477
X05377Y073477
X05572Y072077
X05652Y071427
X05652Y072027
X05707Y071427
X05707Y072027
X05527Y073877
X05377Y073952
X05327Y073952
X05312Y07457
X05312Y07517
X052118Y074637
X052114Y075165
X05116Y074145
X05052Y074149
X04851Y077477
X05327Y078427
X05377Y078427
X057161Y076436
X057831Y078361
X057831Y077798
X058339Y078361
X058339Y077798
X057209Y08133
X05527Y078927
X05377Y078924
X05327Y078927
X05312Y079517
X05312Y080137
X052122Y079535
X052102Y080153
X05146Y079172
X05086Y07918
X04637Y080277
X04576Y080139
X045622Y081277
X044598Y080227
X044598Y081277
X043831Y080277
T2C.01969F095S3
X044323Y081015
X045897Y081015
T3C.02F197S55
X05512Y074927
X05512Y075377
X05512Y075827
X05562Y075377
X05562Y074927
X05562Y075827
X05562Y080327
X05562Y079877
X05562Y080777
X05512Y080327
X05512Y080777
X05512Y079877
T4C.052F107S55
X04611Y044238
T5C.072F081S55
X04611Y070518
T6C.1F069S658
X041339Y041339
X059449Y041339
X059449Y080709
X041339Y080709
M30
