*
*
G04 PADS 9.5 Build Number: 522968 generated Gerber (RS-274-X) file*
G04 PC Version=2.1*
*
%IN "Pi-Program-Iss1.pcb"*%
*
%MOIN*%
*
%FSLAX35Y35*%
*
*
*
*
G04 PC Standard Apertures*
*
*
G04 Thermal Relief Aperture macro.*
%AMTER*
1,1,$1,0,0*
1,0,$1-$2,0,0*
21,0,$3,$4,0,0,45*
21,0,$3,$4,0,0,135*
%
*
*
G04 Annular Aperture macro.*
%AMANN*
1,1,$1,0,0*
1,0,$2,0,0*
%
*
*
G04 Odd Aperture macro.*
%AMODD*
1,1,$1,0,0*
1,0,$1-0.005,0,0*
%
*
*
G04 PC Custom Aperture Macros*
*
*
*
*
*
*
G04 PC Aperture Table*
*
%ADD010C,0.001*%
%ADD015R,0.06X0.06*%
%ADD027C,0.01*%
%ADD043R,0.03X0.038*%
%ADD046R,0.038X0.03*%
%ADD107O,0.08X0.014*%
%ADD110R,0.06X0.1*%
%ADD111R,0.01575X0.07087*%
%ADD112R,0.04331X0.03937*%
%ADD113R,0.05315X0.05906*%
%ADD114R,0.05906X0.05512*%
%ADD115R,0.028X0.04*%
%ADD116R,0.06X0.032*%
%ADD117R,0.104X0.138*%
%ADD118R,0.01575X0.03543*%
*
*
*
*
G04 PC Circuitry*
G04 Layer Name Pi-Program-Iss1.pcb - circuitry*
%LPD*%
*
*
G04 PC Custom Flashes*
G04 Layer Name Pi-Program-Iss1.pcb - flashes*
%LPD*%
*
*
G04 PC Circuitry*
G04 Layer Name Pi-Program-Iss1.pcb - circuitry*
%LPD*%
*
G54D10*
G54D15*
G01X526201Y789022D03*
Y802522D03*
X569451Y781272D03*
X555951D03*
X526181Y739502D03*
Y753002D03*
X569451Y730272D03*
X555951D03*
G54D27*
X499357Y440366D02*
Y442366D01*
X501357*
Y440366*
X499357*
X503357D02*
Y442366D01*
X505357*
Y440366*
X503357*
X511357D02*
Y442366D01*
X513357*
Y440366*
X511357*
X515357D02*
Y442366D01*
X517357*
Y440366*
X515357*
X499357Y444366D02*
Y446366D01*
X501357*
Y444366*
X499357*
X503357D02*
Y446366D01*
X505357*
Y444366*
X503357*
X511357D02*
Y446366D01*
X513357*
Y444366*
X511357*
X515357D02*
Y446366D01*
X517357*
Y444366*
X515357*
X499357Y448366D02*
Y450366D01*
X501357*
Y448366*
X499357*
Y452366D02*
Y454366D01*
X501357*
Y452366*
X499357*
X503357Y448366D02*
Y450366D01*
X505357*
Y448366*
X503357*
Y452366D02*
Y454366D01*
X505357*
Y452366*
X503357*
X511357Y448366D02*
Y450366D01*
X513357*
Y448366*
X511357*
X515357D02*
Y450366D01*
X517357*
Y448366*
X515357*
X511357Y452366D02*
Y454366D01*
X513357*
Y452366*
X511357*
X515357D02*
Y454366D01*
X517357*
Y452366*
X515357*
X507357Y440366D02*
Y442366D01*
X509357*
Y440366*
X507357*
Y444366D02*
Y446366D01*
X509357*
Y444366*
X507357*
Y448366D02*
Y450366D01*
X509357*
Y448366*
X507357*
Y452366D02*
Y454366D01*
X509357*
Y452366*
X507357*
X499357Y694178D02*
Y696178D01*
X501357*
Y694178*
X499357*
Y698178D02*
Y700178D01*
X501357*
Y698178*
X499357*
Y702178D02*
Y704178D01*
X501357*
Y702178*
X499357*
Y706178D02*
Y708178D01*
X501357*
Y706178*
X499357*
X503357Y694178D02*
Y696178D01*
X505357*
Y694178*
X503357*
Y698178D02*
Y700178D01*
X505357*
Y698178*
X503357*
Y702178D02*
Y704178D01*
X505357*
Y702178*
X503357*
Y706178D02*
Y708178D01*
X505357*
Y706178*
X503357*
X507357Y694178D02*
Y696178D01*
X509357*
Y694178*
X507357*
Y698178D02*
Y700178D01*
X509357*
Y698178*
X507357*
Y702178D02*
Y704178D01*
X509357*
Y702178*
X507357*
Y706178D02*
Y708178D01*
X509357*
Y706178*
X507357*
X515357Y694178D02*
Y696178D01*
X517357*
Y694178*
X515357*
Y698178D02*
Y700178D01*
X517357*
Y698178*
X515357*
Y702178D02*
Y704178D01*
X517357*
Y702178*
X515357*
Y706178D02*
Y708178D01*
X517357*
Y706178*
X515357*
X511357Y694178D02*
Y696178D01*
X513357*
Y694178*
X511357*
Y698178D02*
Y700178D01*
X513357*
Y698178*
X511357*
Y702178D02*
Y704178D01*
X513357*
Y702178*
X511357*
Y706178D02*
Y708178D01*
X513357*
Y706178*
X511357*
X499357Y442164D02*
X501357D01*
X499357Y441264D02*
X501357D01*
X503357Y442164D02*
X505357D01*
X503357Y441264D02*
X505357D01*
X511357Y442164D02*
X513357D01*
X511357Y441264D02*
X513357D01*
X515357Y442164D02*
X517357D01*
X515357Y441264D02*
X517357D01*
X499357Y446164D02*
X501357D01*
X499357Y445264D02*
X501357D01*
X503357Y446164D02*
X505357D01*
X503357Y445264D02*
X505357D01*
X511357Y446164D02*
X513357D01*
X511357Y445264D02*
X513357D01*
X515357Y446164D02*
X517357D01*
X515357Y445264D02*
X517357D01*
X499357Y450164D02*
X501357D01*
X499357Y449264D02*
X501357D01*
X499357Y454164D02*
X501357D01*
X499357Y453264D02*
X501357D01*
X503357Y450164D02*
X505357D01*
X503357Y449264D02*
X505357D01*
X503357Y454164D02*
X505357D01*
X503357Y453264D02*
X505357D01*
X511357Y450164D02*
X513357D01*
X511357Y449264D02*
X513357D01*
X515357Y450164D02*
X517357D01*
X515357Y449264D02*
X517357D01*
X511357Y454164D02*
X513357D01*
X511357Y453264D02*
X513357D01*
X515357Y454164D02*
X517357D01*
X515357Y453264D02*
X517357D01*
X507357Y442164D02*
X509357D01*
X507357Y441264D02*
X509357D01*
X507357Y446164D02*
X509357D01*
X507357Y445264D02*
X509357D01*
X507357Y450164D02*
X509357D01*
X507357Y449264D02*
X509357D01*
X507357Y454164D02*
X509357D01*
X507357Y453264D02*
X509357D01*
X499357Y695976D02*
X501357D01*
X499357Y695076D02*
X501357D01*
X499357Y699976D02*
X501357D01*
X499357Y699076D02*
X501357D01*
X499357Y703976D02*
X501357D01*
X499357Y703076D02*
X501357D01*
X499357Y707976D02*
X501357D01*
X499357Y707076D02*
X501357D01*
X503357Y695976D02*
X505357D01*
X503357Y695076D02*
X505357D01*
X503357Y699976D02*
X505357D01*
X503357Y699076D02*
X505357D01*
X503357Y703976D02*
X505357D01*
X503357Y703076D02*
X505357D01*
X503357Y707976D02*
X505357D01*
X503357Y707076D02*
X505357D01*
X507357Y695976D02*
X509357D01*
X507357Y695076D02*
X509357D01*
X507357Y699976D02*
X509357D01*
X507357Y699076D02*
X509357D01*
X507357Y703976D02*
X509357D01*
X507357Y703076D02*
X509357D01*
X507357Y707976D02*
X509357D01*
X507357Y707076D02*
X509357D01*
X515357Y695976D02*
X517357D01*
X515357Y695076D02*
X517357D01*
X515357Y699976D02*
X517357D01*
X515357Y699076D02*
X517357D01*
X515357Y703976D02*
X517357D01*
X515357Y703076D02*
X517357D01*
X515357Y707976D02*
X517357D01*
X515357Y707076D02*
X517357D01*
X511357Y695976D02*
X513357D01*
X511357Y695076D02*
X513357D01*
X511357Y699976D02*
X513357D01*
X511357Y699076D02*
X513357D01*
X511357Y703976D02*
X513357D01*
X511357Y703076D02*
X513357D01*
X511357Y707976D02*
X513357D01*
X511357Y707076D02*
X513357D01*
X393701Y826772D02*
X614173D01*
Y393701*
X393701*
Y826772*
G54D43*
X505201Y751872D03*
Y745672D03*
X534701Y795172D03*
Y801372D03*
X508601Y801872D03*
Y795672D03*
X534921Y745750D03*
Y751950D03*
X575601Y758172D03*
Y764372D03*
X488101Y788672D03*
Y794872D03*
X499101Y732372D03*
Y726172D03*
X514601Y795672D03*
Y801872D03*
X575701Y794672D03*
Y800872D03*
Y807172D03*
Y813372D03*
X511601Y745672D03*
Y751872D03*
X575591Y745160D03*
Y751360D03*
G54D46*
X563301Y738772D03*
X557101D03*
X490483Y650780D03*
X496683D03*
X490483Y635780D03*
X496683D03*
X563301Y789272D03*
X557101D03*
X490483Y591764D03*
X496683D03*
X490483Y492787D03*
X496683D03*
X414501Y491272D03*
X420701D03*
X414501Y496772D03*
X420701D03*
X496683Y487276D03*
X490483D03*
X496683Y572787D03*
X490483D03*
Y661764D03*
X496683D03*
X490483Y667787D03*
X496683D03*
X490483Y586252D03*
X496683D03*
Y580268D03*
X490483D03*
G54D107*
X444959Y698288D03*
X477243Y697107D03*
X444959Y695926D03*
X477243Y694744D03*
X444959Y693563D03*
X477243Y692382D03*
X444959Y691201D03*
X477243Y690020D03*
X444959Y688839D03*
X477243Y687658D03*
X444959Y686477D03*
X477243Y685296D03*
X444959Y684115D03*
X477243Y682933D03*
X444959Y681752D03*
X477243Y680571D03*
X444959Y679390D03*
X477243Y678209D03*
X444959Y677028D03*
X477243Y675847D03*
X444959Y674666D03*
X477243Y673485D03*
X444959Y672303D03*
X477243Y671122D03*
X444959Y669941D03*
X477243Y668760D03*
X444959Y667579D03*
X477243Y666398D03*
X444959Y665217D03*
X477243Y664036D03*
X444959Y662855D03*
X477243Y661674D03*
X444959Y660492D03*
X477243Y659311D03*
X444959Y658130D03*
X477243Y656949D03*
X444959Y655768D03*
X477243Y654587D03*
X444959Y653406D03*
X477243Y652225D03*
X444959Y636870D03*
X477243Y635689D03*
X444959Y634508D03*
X477243Y633327D03*
X444959Y632146D03*
X477243Y630965D03*
X444959Y629784D03*
X477243Y628603D03*
X444959Y627422D03*
X477243Y626241D03*
X444959Y625059D03*
X477243Y623878D03*
X444959Y622697D03*
X477243Y621516D03*
X444959Y620335D03*
X477243Y619154D03*
X444959Y617973D03*
X477243Y616792D03*
X444959Y615611D03*
X477243Y614429D03*
X444959Y613248D03*
X477243Y612067D03*
X444959Y610886D03*
X477243Y609705D03*
X444959Y608524D03*
X477243Y607343D03*
X444959Y606162D03*
X477243Y604981D03*
X444959Y603800D03*
X477243Y602618D03*
X444959Y601437D03*
X477243Y600256D03*
X444959Y599075D03*
X477243Y597894D03*
X444959Y596713D03*
X477243Y595532D03*
X444959Y594351D03*
X477243Y593170D03*
X444959Y591989D03*
X477243Y590807D03*
X444959Y589626D03*
X477243Y588445D03*
X444959Y587264D03*
X477243Y586083D03*
X444959Y584902D03*
X477243Y583721D03*
X444959Y582540D03*
X477243Y581359D03*
X444959Y580178D03*
X477243Y578996D03*
X444959Y577815D03*
X477243Y576634D03*
X444959Y575453D03*
X477243Y574272D03*
X444959Y573091D03*
X477243Y571910D03*
X444959Y570729D03*
X477243Y569548D03*
X444959Y568366D03*
X477243Y567185D03*
X444959Y566004D03*
X477243Y564823D03*
X444959Y563642D03*
X477243Y562461D03*
X444959Y561280D03*
X477243Y560099D03*
X444959Y558918D03*
X477243Y557737D03*
X444959Y556555D03*
X477243Y555374D03*
X444959Y554193D03*
X477243Y553012D03*
X444959Y551831D03*
X477243Y550650D03*
X444959Y549469D03*
X477243Y548288D03*
X444959Y547107D03*
X477243Y545926D03*
X444959Y544744D03*
X477243Y543563D03*
X444959Y542382D03*
X477243Y541201D03*
X444959Y540020D03*
X477243Y538839D03*
X444959Y537658D03*
X477243Y536477D03*
X444959Y535296D03*
X477243Y534115D03*
X444959Y532933D03*
X477243Y531752D03*
X444959Y530571D03*
X477243Y529390D03*
X444959Y528209D03*
X477243Y527028D03*
X444959Y525847D03*
X477243Y524666D03*
X444959Y523485D03*
X477243Y522303D03*
X444959Y521122D03*
X477243Y519941D03*
X444959Y518760D03*
X477243Y517579D03*
X444959Y516398D03*
X477243Y515217D03*
X444959Y514036D03*
X477243Y512855D03*
X444959Y511674D03*
X477243Y510492D03*
X444959Y509311D03*
X477243Y508130D03*
X444959Y506949D03*
X477243Y505768D03*
X444959Y504587D03*
X477243Y503406D03*
X444959Y502225D03*
X477243Y501044D03*
X444959Y499863D03*
X477243Y498681D03*
X444959Y497500D03*
X477243Y496319D03*
X444959Y495138D03*
X477243Y493957D03*
X444959Y492776D03*
X477243Y491595D03*
X444959Y490414D03*
X477243Y489233D03*
X444959Y488052D03*
X477243Y486870D03*
X444959Y485689D03*
X477243Y484508D03*
X444959Y483327D03*
X477243Y482146D03*
X444959Y480965D03*
X477243Y479784D03*
X444959Y478603D03*
X477243Y477422D03*
X444959Y476241D03*
X477243Y475059D03*
X444959Y473878D03*
X477243Y472697D03*
X444959Y471516D03*
X477243Y470335D03*
X444959Y469154D03*
X477243Y467973D03*
X444959Y466792D03*
X477243Y465611D03*
X444959Y464429D03*
X477243Y463248D03*
X444959Y462067D03*
X477243Y460886D03*
X444959Y459705D03*
X477243Y458524D03*
X444959Y457343D03*
X477243Y456162D03*
X444959Y454981D03*
X477243Y453800D03*
X444959Y452618D03*
X477243Y451437D03*
X444959Y450256D03*
X477243Y449075D03*
G54D110*
X430351Y441272D03*
X416851D03*
X430351Y470272D03*
X416851D03*
X430351Y455272D03*
X416851D03*
G54D111*
X456219Y807319D03*
X453660D03*
X451101D03*
X448542D03*
X445983D03*
G54D112*
X457006Y823146D03*
X445195D03*
G54D113*
X467144Y818618D03*
X435057D03*
G54D114*
X463896Y807988D03*
X438306D03*
G54D115*
X488101Y811709D03*
Y803835D03*
G54D116*
X563467Y795772D03*
Y800772D03*
Y805772D03*
Y810772D03*
X543758D03*
Y805772D03*
Y800772D03*
Y795772D03*
X563567Y746272D03*
Y751272D03*
Y756272D03*
Y761272D03*
X543858D03*
Y756272D03*
Y751272D03*
Y746272D03*
G54D117*
X553601Y803272D03*
X553701Y753772D03*
G54D118*
X479069Y733421D03*
X475132D03*
X477101Y727122D03*
X484632D03*
X488569D03*
X486601Y733421D03*
X0Y0D02*
M02*
