*
*
G04 PADS 9.5 Build Number: 522968 generated Gerber (RS-274-X) file*
G04 PC Version=2.1*
*
%IN "Pi-Program-Iss1.2.pcb"*%
*
%MOIN*%
*
%FSLAX35Y35*%
*
*
*
*
G04 PC Standard Apertures*
*
*
G04 Thermal Relief Aperture macro.*
%AMTER*
1,1,$1,0,0*
1,0,$1-$2,0,0*
21,0,$3,$4,0,0,45*
21,0,$3,$4,0,0,135*
%
*
*
G04 Annular Aperture macro.*
%AMANN*
1,1,$1,0,0*
1,0,$2,0,0*
%
*
*
G04 Odd Aperture macro.*
%AMODD*
1,1,$1,0,0*
1,0,$1-0.005,0,0*
%
*
*
G04 PC Custom Aperture Macros*
*
*
*
*
*
*
G04 PC Aperture Table*
*
%ADD010C,0.001*%
%ADD027C,0.01*%
%ADD049C,0.005*%
%ADD064C,0.00787*%
*
*
*
*
G04 PC Circuitry*
G04 Layer Name Pi-Program-Iss1.2.pcb - circuitry*
%LPD*%
*
*
G04 PC Custom Flashes*
G04 Layer Name Pi-Program-Iss1.2.pcb - flashes*
%LPD*%
*
*
G04 PC Circuitry*
G04 Layer Name Pi-Program-Iss1.2.pcb - circuitry*
%LPD*%
*
G54D10*
G54D27*
G01X521337Y436870D02*
X439841D01*
Y712067*
X537676*
X521337D02*
X544172D01*
Y691004*
X485510*
Y457540*
X543778*
Y436870*
X520944*
X580077Y436949D02*
Y712146D01*
X561001Y736701D02*
X562301D01*
X427351Y434272D02*
X435401D01*
Y448272*
X427351*
X419851Y434272D02*
X411801D01*
Y448272*
X419851*
X427351Y463272D02*
X435401D01*
Y477272*
X427351*
X419851Y463272D02*
X411801D01*
Y477272*
X419851*
X427351Y448272D02*
X435401D01*
Y462272*
X427351*
X419851Y448272D02*
X411801D01*
Y462272*
X419851*
X493583Y651480D02*
Y650180D01*
Y636480D02*
Y635180D01*
X521201Y792022D02*
Y783972D01*
X531201*
Y792022*
X521201Y799522D02*
Y807572D01*
X531201*
Y799522*
X534001Y798272D02*
X535301D01*
X566451Y776272D02*
X574501D01*
Y786272*
X566451*
X558951Y776272D02*
X550901D01*
Y786272*
X558951*
X560201Y788572D02*
Y789872D01*
X509301Y798772D02*
X508001D01*
X508701Y732451D02*
Y724401D01*
X518701*
Y732451*
X508701Y739951D02*
Y748001D01*
X518701*
Y739951*
X526501Y736701D02*
X527801D01*
X570201Y732451D02*
Y724401D01*
X580201*
Y732451*
X570201Y739951D02*
Y748001D01*
X580201*
Y739951*
X466416Y824169D02*
Y826807D01*
X436219*
Y824169*
X468266Y812280D02*
Y801256D01*
X433778*
Y812043*
X490699Y814465D02*
Y801118D01*
X485542*
Y814465*
X490699*
X486447D02*
Y816173D01*
X490050*
Y814465*
X486447*
X493583Y592464D02*
Y591164D01*
X487401Y791772D02*
X488701D01*
X493583Y493487D02*
Y492187D01*
X417601Y491972D02*
Y490672D01*
Y497472D02*
Y496172D01*
X497801Y730272D02*
X496501D01*
X493583Y486576D02*
Y487876D01*
Y572087D02*
Y573387D01*
X513901Y798772D02*
X515201D01*
X575001Y797772D02*
X576301D01*
X575001Y809701D02*
X576301D01*
X493583Y662464D02*
Y661164D01*
Y668487D02*
Y667187D01*
Y586952D02*
Y585652D01*
X568168Y792681D02*
Y813941D01*
X539270*
Y792681*
X568168*
Y795791D02*
X570550Y798173D01*
Y793783*
X570382Y793616*
X568286Y795713*
X568798Y795673D02*
X570077Y796953D01*
Y794650*
X568945Y795781*
X569546Y795280D02*
Y796264D01*
X493583Y579568D02*
Y580868D01*
X515401Y813701D02*
X514101D01*
X531965Y738000D02*
Y751000D01*
X556965*
Y738000*
X531965*
X442201Y416763D02*
Y410201D01*
Y416763D02*
X444246D01*
X444928Y416451*
X445155Y416138*
X445383Y415513*
Y414576*
X445155Y413951*
X444928Y413638*
X444246Y413326*
X442201*
X447428Y416763D02*
X447655Y416451D01*
X447883Y416763*
X447655Y417076*
X447428Y416763*
X447655Y414576D02*
Y410201D01*
X449928Y413013D02*
X454019D01*
X456064Y416763D02*
Y410201D01*
Y416763D02*
X459019D01*
X456064Y413638D02*
X457883D01*
X461064Y416763D02*
Y410201D01*
X465837Y414576D02*
Y410201D01*
Y413638D02*
X465383Y414263D01*
X464928Y414576*
X464246*
X463792Y414263*
X463337Y413638*
X463110Y412701*
Y412076*
X463337Y411138*
X463792Y410513*
X464246Y410201*
X464928*
X465383Y410513*
X465837Y411138*
X470383Y413638D02*
X470155Y414263D01*
X469474Y414576*
X468792*
X468110Y414263*
X467883Y413638*
X468110Y413013*
X468564Y412701*
X469701Y412388*
X470155Y412076*
X470383Y411451*
Y411138*
X470155Y410513*
X469474Y410201*
X468792*
X468110Y410513*
X467883Y411138*
X472428Y416763D02*
Y410201D01*
Y413326D02*
X473110Y414263D01*
X473564Y414576*
X474246*
X474701Y414263*
X474928Y413326*
Y410201*
X485610Y415201D02*
X485383Y415826D01*
X484928Y416451*
X484474Y416763*
X483564*
X483110Y416451*
X482655Y415826*
X482428Y415201*
X482201Y414263*
Y412701*
X482428Y411763*
X482655Y411138*
X483110Y410513*
X483564Y410201*
X484474*
X484928Y410513*
X485383Y411138*
X485610Y411763*
X487655Y416763D02*
Y410201D01*
Y416763D02*
X489474Y410201D01*
X491292Y416763D02*
X489474Y410201D01*
X491292Y416763D02*
Y410201D01*
X493792Y416763D02*
X496292D01*
X494928Y414263*
X495610*
X496064Y413951*
X496292Y413638*
X496519Y412701*
Y412076*
X496292Y411138*
X495837Y410513*
X495155Y410201*
X494474*
X493792Y410513*
X493564Y410826*
X493337Y411451*
X502655Y418013D02*
X498564Y408013D01*
X505155Y416763D02*
X507655D01*
X506292Y414263*
X506974*
X507428Y413951*
X507655Y413638*
X507883Y412701*
Y412076*
X507655Y411138*
X507201Y410513*
X506519Y410201*
X505837*
X505155Y410513*
X504928Y410826*
X504701Y411451*
X511974Y415826D02*
Y410201D01*
X509928Y413013D02*
X514019D01*
X520155Y418013D02*
X516064Y408013D01*
X524474Y416763D02*
X522201Y412388D01*
X525610*
X524474Y416763D02*
Y410201D01*
X530837Y415826D02*
X530383Y416451D01*
X529701Y416763*
X528792*
X528110Y416451*
X527655Y415826*
Y415201*
X527883Y414576*
X528110Y414263*
X528564Y413951*
X529928Y413326*
X530383Y413013*
X530610Y412701*
X530837Y412076*
Y411138*
X530383Y410513*
X529701Y410201*
X528792*
X528110Y410513*
X527655Y411138*
X543337Y416763D02*
X543564Y416451D01*
X543792Y416763*
X543564Y417076*
X543337Y416763*
X543564Y414576D02*
Y410201D01*
X548337Y413638D02*
X548110Y414263D01*
X547428Y414576*
X546746*
X546064Y414263*
X545837Y413638*
X546064Y413013*
X546519Y412701*
X547655Y412388*
X548110Y412076*
X548337Y411451*
Y411138*
X548110Y410513*
X547428Y410201*
X546746*
X546064Y410513*
X545837Y411138*
X552883Y413638D02*
X552655Y414263D01*
X551974Y414576*
X551292*
X550610Y414263*
X550383Y413638*
X550610Y413013*
X551064Y412701*
X552201Y412388*
X552655Y412076*
X552883Y411451*
Y411138*
X552655Y410513*
X551974Y410201*
X551292*
X550610Y410513*
X550383Y411138*
X560155Y415513D02*
X560610Y415826D01*
X561292Y416763*
Y410201*
X563564Y410826D02*
X563337Y410513D01*
X563564Y410201*
X563792Y410513*
X563564Y410826*
X566064Y415201D02*
Y415513D01*
X566292Y416138*
X566519Y416451*
X566974Y416763*
X567883*
X568337Y416451*
X568564Y416138*
X568792Y415513*
Y414888*
X568564Y414263*
X568110Y413326*
X565837Y410201*
X569019*
X393701Y826772D02*
X614173D01*
Y393701*
X393701*
Y826772*
X423235Y807087D02*
G75*
G03X423235I-9849J0D01*
G01X604338Y413386D02*
G03X604338I-9850J0D01*
G01X423235D02*
G03X423235I-9849J0D01*
G01X604338Y807087D02*
G03X604338I-9850J0D01*
G54D49*
G01X444337Y434482D02*
Y431982D01*
X444224Y431513*
X444110Y431357*
X443883Y431201*
X443655*
X443428Y431357*
X443314Y431513*
X443201Y431982*
Y432295*
X445360Y433857D02*
X445587Y434013D01*
X445928Y434482*
Y431201*
X560701Y745905D02*
X560388Y745792D01*
X560076Y745564*
X559920Y745337*
Y744883*
X560076Y744655*
X560388Y744428*
X560701Y744314*
X561170Y744201*
X561951*
X562420Y744314*
X562732Y744428*
X563045Y744655*
X563201Y744883*
Y745337*
X563045Y745564*
X562732Y745792*
X562420Y745905*
X560545Y746928D02*
X560388Y747155D01*
X559920Y747496*
X563201*
X559920Y749201D02*
X560076Y748860D01*
X560545Y748633*
X561326Y748519*
X561795*
X562576Y748633*
X563045Y748860*
X563201Y749201*
Y749428*
X563045Y749769*
X562576Y749996*
X561795Y750110*
X561326*
X560545Y749996*
X560076Y749769*
X559920Y749428*
Y749201*
X408201Y439976D02*
X407888Y439863D01*
X407576Y439635*
X407420Y439408*
Y438953*
X407576Y438726*
X407888Y438499*
X408201Y438385*
X408670Y438272*
X409451*
X409920Y438385*
X410232Y438499*
X410545Y438726*
X410701Y438953*
Y439408*
X410545Y439635*
X410232Y439863*
X409920Y439976*
X408045Y440999D02*
X407888Y441226D01*
X407420Y441567*
X410701*
X407420Y442817D02*
Y444067D01*
X408670Y443385*
Y443726*
X408826Y443953*
X408982Y444067*
X409451Y444181*
X409763*
X410232Y444067*
X410545Y443840*
X410701Y443499*
Y443158*
X410545Y442817*
X410388Y442703*
X410076Y442590*
X408201Y469976D02*
X407888Y469863D01*
X407576Y469635*
X407420Y469408*
Y468953*
X407576Y468726*
X407888Y468499*
X408201Y468385*
X408670Y468272*
X409451*
X409920Y468385*
X410232Y468499*
X410545Y468726*
X410701Y468953*
Y469408*
X410545Y469635*
X410232Y469863*
X409920Y469976*
X408045Y470999D02*
X407888Y471226D01*
X407420Y471567*
X410701*
X407420Y473726D02*
X409607Y472590D01*
Y474294*
X407420Y473726D02*
X410701D01*
X408201Y453976D02*
X407888Y453863D01*
X407576Y453635*
X407420Y453408*
Y452953*
X407576Y452726*
X407888Y452499*
X408201Y452385*
X408670Y452272*
X409451*
X409920Y452385*
X410232Y452499*
X410545Y452726*
X410701Y452953*
Y453408*
X410545Y453635*
X410232Y453863*
X409920Y453976*
X408045Y454999D02*
X407888Y455226D01*
X407420Y455567*
X410701*
X407420Y458067D02*
Y456931D01*
X408826Y456817*
X408670Y456931*
X408513Y457272*
Y457613*
X408670Y457953*
X408982Y458181*
X409451Y458294*
X409763Y458181*
X410232Y458067*
X410545Y457840*
X410701Y457499*
Y457158*
X410545Y456817*
X410388Y456703*
X410076Y456590*
X503787Y651280D02*
X503674Y651592D01*
X503446Y651905*
X503219Y652061*
X502764*
X502537Y651905*
X502310Y651592*
X502196Y651280*
X502083Y650811*
Y650030*
X502196Y649561*
X502310Y649248*
X502537Y648936*
X502764Y648780*
X503219*
X503446Y648936*
X503674Y649248*
X503787Y649561*
X504810Y651436D02*
X505037Y651592D01*
X505378Y652061*
Y648780*
X507764Y651592D02*
X507651Y651905D01*
X507310Y652061*
X507083*
X506742Y651905*
X506514Y651436*
X506401Y650655*
Y649873*
X506514Y649248*
X506742Y648936*
X507083Y648780*
X507196*
X507537Y648936*
X507764Y649248*
X507878Y649717*
Y649873*
X507764Y650342*
X507537Y650655*
X507196Y650811*
X507083*
X506742Y650655*
X506514Y650342*
X506401Y649873*
X503787Y636780D02*
X503674Y637092D01*
X503446Y637405*
X503219Y637561*
X502764*
X502537Y637405*
X502310Y637092*
X502196Y636780*
X502083Y636311*
Y635530*
X502196Y635061*
X502310Y634748*
X502537Y634436*
X502764Y634280*
X503219*
X503446Y634436*
X503674Y634748*
X503787Y635061*
X504810Y636936D02*
X505037Y637092D01*
X505378Y637561*
Y634280*
X507992Y637561D02*
X506855Y634280D01*
X506401Y637561D02*
X507992D01*
X525799Y812020D02*
X525685Y812332D01*
X525458Y812645*
X525231Y812801*
X524776*
X524549Y812645*
X524322Y812332*
X524208Y812020*
X524094Y811551*
Y810770*
X524208Y810301*
X524322Y809988*
X524549Y809676*
X524776Y809520*
X525231*
X525458Y809676*
X525685Y809988*
X525799Y810301*
X526935Y812020D02*
Y812176D01*
X527049Y812488*
X527163Y812645*
X527390Y812801*
X527844*
X528072Y812645*
X528185Y812488*
X528299Y812176*
Y811863*
X528185Y811551*
X527958Y811082*
X526822Y809520*
X528413*
X534579Y807650D02*
X534465Y807962D01*
X534238Y808275*
X534010Y808431*
X533556*
X533329Y808275*
X533101Y807962*
X532988Y807650*
X532874Y807181*
Y806400*
X532988Y805931*
X533101Y805618*
X533329Y805306*
X533556Y805150*
X534010*
X534238Y805306*
X534465Y805618*
X534579Y805931*
X535829Y808431D02*
X537079D01*
X536397Y807181*
X536738*
X536965Y807025*
X537079Y806868*
X537192Y806400*
Y806087*
X537079Y805618*
X536851Y805306*
X536510Y805150*
X536169*
X535829Y805306*
X535715Y805462*
X535601Y805775*
X570327Y773791D02*
X570213Y774104D01*
X569986Y774416*
X569758Y774573*
X569304*
X569077Y774416*
X568849Y774104*
X568736Y773791*
X568622Y773323*
Y772541*
X568736Y772073*
X568849Y771760*
X569077Y771448*
X569304Y771291*
X569758*
X569986Y771448*
X570213Y771760*
X570327Y772073*
X572486Y774573D02*
X571349Y772385D01*
X573054*
X572486Y774573D02*
Y771291D01*
X568405Y790272D02*
X568292Y790584D01*
X568064Y790897*
X567837Y791053*
X567383*
X567155Y790897*
X566928Y790584*
X566814Y790272*
X566701Y789803*
Y789022*
X566814Y788553*
X566928Y788240*
X567155Y787928*
X567383Y787772*
X567837*
X568064Y787928*
X568292Y788240*
X568405Y788553*
X570905Y791053D02*
X569769D01*
X569655Y789647*
X569769Y789803*
X570110Y789959*
X570451*
X570792Y789803*
X571019Y789490*
X571133Y789022*
X571019Y788709*
X570905Y788240*
X570678Y787928*
X570337Y787772*
X569996*
X569655Y787928*
X569542Y788084*
X569428Y788397*
X507201Y785905D02*
X506888Y785792D01*
X506576Y785564*
X506420Y785337*
Y784883*
X506576Y784655*
X506888Y784428*
X507201Y784314*
X507670Y784201*
X508451*
X508920Y784314*
X509232Y784428*
X509545Y784655*
X509701Y784883*
Y785337*
X509545Y785564*
X509232Y785792*
X508920Y785905*
X506888Y788292D02*
X506576Y788178D01*
X506420Y787837*
Y787610*
X506576Y787269*
X507045Y787042*
X507826Y786928*
X508607*
X509232Y787042*
X509545Y787269*
X509701Y787610*
Y787724*
X509545Y788064*
X509232Y788292*
X508763Y788405*
X508607*
X508138Y788292*
X507826Y788064*
X507670Y787724*
Y787610*
X507826Y787269*
X508138Y787042*
X508607Y786928*
X512689Y752953D02*
X512575Y753265D01*
X512348Y753578*
X512121Y753734*
X511666*
X511439Y753578*
X511212Y753265*
X511098Y752953*
X510984Y752484*
Y751703*
X511098Y751234*
X511212Y750922*
X511439Y750609*
X511666Y750453*
X512121*
X512348Y750609*
X512575Y750922*
X512689Y751234*
X515302Y753734D02*
X514166Y750453D01*
X513712Y753734D02*
X515302D01*
X526201Y746405D02*
X525888Y746292D01*
X525576Y746064*
X525420Y745837*
Y745383*
X525576Y745155*
X525888Y744928*
X526201Y744814*
X526670Y744701*
X527451*
X527920Y744814*
X528232Y744928*
X528545Y745155*
X528701Y745383*
Y745837*
X528545Y746064*
X528232Y746292*
X527920Y746405*
X525420Y747996D02*
X525576Y747655D01*
X525888Y747542*
X526201*
X526513Y747655*
X526670Y747883*
X526826Y748337*
X526982Y748678*
X527295Y748905*
X527607Y749019*
X528076*
X528388Y748905*
X528545Y748792*
X528701Y748451*
Y747996*
X528545Y747655*
X528388Y747542*
X528076Y747428*
X527607*
X527295Y747542*
X526982Y747769*
X526826Y748110*
X526670Y748564*
X526513Y748792*
X526201Y748905*
X525888*
X525576Y748792*
X525420Y748451*
Y747996*
X574905Y752701D02*
X574792Y753013D01*
X574564Y753326*
X574337Y753482*
X573883*
X573655Y753326*
X573428Y753013*
X573314Y752701*
X573201Y752232*
Y751451*
X573314Y750982*
X573428Y750670*
X573655Y750357*
X573883Y750201*
X574337*
X574564Y750357*
X574792Y750670*
X574905Y750982*
X577405Y752388D02*
X577292Y751920D01*
X577064Y751607*
X576724Y751451*
X576610*
X576269Y751607*
X576042Y751920*
X575928Y752388*
Y752545*
X576042Y753013*
X576269Y753326*
X576610Y753482*
X576724*
X577064Y753326*
X577292Y753013*
X577405Y752388*
Y751607*
X577292Y750826*
X577064Y750357*
X576724Y750201*
X576496*
X576155Y750357*
X576042Y750670*
X480123Y804189D02*
X483404D01*
Y805553*
X480123Y806576D02*
X483404D01*
X480123D02*
Y808053D01*
X481685Y806576D02*
Y807485D01*
X483404Y806576D02*
Y808053D01*
X480123Y809076D02*
X483404D01*
X480123D02*
Y809871D01*
X480279Y810212*
X480591Y810439*
X480904Y810553*
X481373Y810667*
X482154*
X482623Y810553*
X482935Y810439*
X483248Y810212*
X483404Y809871*
Y809076*
X480748Y811689D02*
X480591Y811917D01*
X480123Y812258*
X483404*
X504683Y593045D02*
Y589764D01*
Y593045D02*
X505705D01*
X506046Y592889*
X506160Y592733*
X506274Y592420*
Y592108*
X506160Y591795*
X506046Y591639*
X505705Y591483*
X504683*
X505478D02*
X506274Y589764D01*
X507296Y592420D02*
X507524Y592576D01*
X507864Y593045*
Y589764*
X509569Y593045D02*
X509228Y592889D01*
X509001Y592420*
X508887Y591639*
Y591170*
X509001Y590389*
X509228Y589920*
X509569Y589764*
X509796*
X510137Y589920*
X510364Y590389*
X510478Y591170*
Y591639*
X510364Y592420*
X510137Y592889*
X509796Y593045*
X509569*
X480920Y789201D02*
X484201D01*
X480920D02*
Y790224D01*
X481076Y790564*
X481232Y790678*
X481545Y790792*
X481857*
X482170Y790678*
X482326Y790564*
X482482Y790224*
Y789201*
Y789996D02*
X484201Y790792D01*
X481545Y791814D02*
X481388Y792042D01*
X480920Y792383*
X484201*
X481701Y793519D02*
X481545D01*
X481232Y793633*
X481076Y793746*
X480920Y793974*
Y794428*
X481076Y794655*
X481232Y794769*
X481545Y794883*
X481857*
X482170Y794769*
X482638Y794542*
X484201Y793405*
Y794996*
X504431Y494683D02*
Y491402D01*
Y494683D02*
X505453D01*
X505794Y494527*
X505908Y494370*
X506022Y494058*
Y493745*
X505908Y493433*
X505794Y493277*
X505453Y493120*
X504431*
X505226D02*
X506022Y491402D01*
X507044Y494058D02*
X507272Y494214D01*
X507613Y494683*
Y491402*
X508863Y494683D02*
X510113D01*
X509431Y493433*
X509772*
X509999Y493277*
X510113Y493120*
X510226Y492652*
Y492339*
X510113Y491870*
X509885Y491558*
X509544Y491402*
X509203*
X508863Y491558*
X508749Y491714*
X508635Y492027*
X404601Y493053D02*
Y489772D01*
Y493053D02*
X405624D01*
X405964Y492897*
X406078Y492740*
X406192Y492428*
Y492115*
X406078Y491803*
X405964Y491647*
X405624Y491490*
X404601*
X405396D02*
X406192Y489772D01*
X407214Y492428D02*
X407442Y492584D01*
X407783Y493053*
Y489772*
X409942Y493053D02*
X408805Y490865D01*
X410510*
X409942Y493053D02*
Y489772D01*
X404601Y499553D02*
Y496272D01*
Y499553D02*
X405624D01*
X405964Y499397*
X406078Y499240*
X406192Y498928*
Y498615*
X406078Y498303*
X405964Y498147*
X405624Y497990*
X404601*
X405396D02*
X406192Y496272D01*
X407214Y498928D02*
X407442Y499084D01*
X407783Y499553*
Y496272*
X410283Y499553D02*
X409146D01*
X409033Y498147*
X409146Y498303*
X409487Y498459*
X409828*
X410169Y498303*
X410396Y497990*
X410510Y497522*
X410396Y497209*
X410283Y496740*
X410055Y496428*
X409714Y496272*
X409374*
X409033Y496428*
X408919Y496584*
X408805Y496897*
X498882Y721272D02*
X495601D01*
X498882D02*
Y720249D01*
X498726Y719908*
X498570Y719794*
X498257Y719681*
X497945*
X497632Y719794*
X497476Y719908*
X497320Y720249*
Y721272*
Y720476D02*
X495601Y719681D01*
X498257Y718658D02*
X498413Y718431D01*
X498882Y718090*
X495601*
X498413Y715703D02*
X498726Y715817D01*
X498882Y716158*
Y716385*
X498726Y716726*
X498257Y716953*
X497476Y717067*
X496695*
X496070Y716953*
X495757Y716726*
X495601Y716385*
Y716272*
X495757Y715931*
X496070Y715703*
X496538Y715590*
X496695*
X497163Y715703*
X497476Y715931*
X497632Y716272*
Y716385*
X497476Y716726*
X497163Y716953*
X496695Y717067*
X504431Y488671D02*
Y485390D01*
Y488671D02*
X505453D01*
X505794Y488515*
X505908Y488359*
X506022Y488046*
Y487734*
X505908Y487421*
X505794Y487265*
X505453Y487109*
X504431*
X505226D02*
X506022Y485390D01*
X507044Y488046D02*
X507272Y488202D01*
X507613Y488671*
Y485390*
X510226Y488671D02*
X509090Y485390D01*
X508635Y488671D02*
X510226D01*
X504183Y574069D02*
Y570787D01*
Y574069D02*
X505205D01*
X505546Y573912*
X505660Y573756*
X505774Y573444*
Y573131*
X505660Y572819*
X505546Y572662*
X505205Y572506*
X504183*
X504978D02*
X505774Y570787D01*
X506796Y573444D02*
X507024Y573600D01*
X507364Y574069*
Y570787*
X508955Y574069D02*
X508614Y573912D01*
X508501Y573600*
Y573287*
X508614Y572975*
X508842Y572819*
X509296Y572662*
X509637Y572506*
X509864Y572194*
X509978Y571881*
Y571412*
X509864Y571100*
X509751Y570944*
X509410Y570787*
X508955*
X508614Y570944*
X508501Y571100*
X508387Y571412*
Y571881*
X508501Y572194*
X508728Y572506*
X509069Y572662*
X509524Y572819*
X509751Y572975*
X509864Y573287*
Y573600*
X509751Y573912*
X509410Y574069*
X508955*
X512920Y784201D02*
X516201D01*
X512920D02*
Y785224D01*
X513076Y785564*
X513232Y785678*
X513545Y785792*
X513857*
X514170Y785678*
X514326Y785564*
X514482Y785224*
Y784201*
Y784996D02*
X516201Y785792D01*
X513701Y786928D02*
X513545D01*
X513232Y787042*
X513076Y787155*
X512920Y787383*
Y787837*
X513076Y788064*
X513232Y788178*
X513545Y788292*
X513857*
X514170Y788178*
X514638Y787951*
X516201Y786814*
Y788405*
X578766Y795661D02*
X582047D01*
X578766D02*
Y796684D01*
X578922Y797025*
X579078Y797139*
X579391Y797252*
X579703*
X580016Y797139*
X580172Y797025*
X580328Y796684*
Y795661*
Y796457D02*
X582047Y797252D01*
X578766Y798502D02*
Y799752D01*
X580016Y799071*
Y799411*
X580172Y799639*
X580328Y799752*
X580797Y799866*
X581110*
X581578Y799752*
X581891Y799525*
X582047Y799184*
Y798843*
X581891Y798502*
X581735Y798389*
X581422Y798275*
X578805Y807886D02*
X582087D01*
X578805D02*
Y808909D01*
X578962Y809249*
X579118Y809363*
X579430Y809477*
X579743*
X580055Y809363*
X580212Y809249*
X580368Y808909*
Y807886*
Y808681D02*
X582087Y809477D01*
X578805Y811636D02*
X580993Y810499D01*
Y812204*
X578805Y811636D02*
X582087D01*
X502083Y664545D02*
Y661264D01*
Y664545D02*
X503105D01*
X503446Y664389*
X503560Y664233*
X503674Y663920*
Y663608*
X503560Y663295*
X503446Y663139*
X503105Y662983*
X502083*
X502878D02*
X503674Y661264D01*
X506174Y664545D02*
X505037D01*
X504924Y663139*
X505037Y663295*
X505378Y663451*
X505719*
X506060Y663295*
X506287Y662983*
X506401Y662514*
X506287Y662201*
X506174Y661733*
X505946Y661420*
X505605Y661264*
X505264*
X504924Y661420*
X504810Y661576*
X504696Y661889*
X502083Y670069D02*
Y666787D01*
Y670069D02*
X503105D01*
X503446Y669912*
X503560Y669756*
X503674Y669444*
Y669131*
X503560Y668819*
X503446Y668662*
X503105Y668506*
X502083*
X502878D02*
X503674Y666787D01*
X506060Y669600D02*
X505946Y669912D01*
X505605Y670069*
X505378*
X505037Y669912*
X504810Y669444*
X504696Y668662*
Y667881*
X504810Y667256*
X505037Y666944*
X505378Y666787*
X505492*
X505833Y666944*
X506060Y667256*
X506174Y667725*
Y667881*
X506060Y668350*
X505833Y668662*
X505492Y668819*
X505378*
X505037Y668662*
X504810Y668350*
X504696Y667881*
X504683Y586533D02*
Y583252D01*
Y586533D02*
X505705D01*
X506046Y586377*
X506160Y586221*
X506274Y585908*
Y585596*
X506160Y585283*
X506046Y585127*
X505705Y584971*
X504683*
X505478D02*
X506274Y583252D01*
X508774Y585439D02*
X508660Y584971D01*
X508433Y584658*
X508092Y584502*
X507978*
X507637Y584658*
X507410Y584971*
X507296Y585439*
Y585596*
X507410Y586064*
X507637Y586377*
X507978Y586533*
X508092*
X508433Y586377*
X508660Y586064*
X508774Y585439*
Y584658*
X508660Y583877*
X508433Y583408*
X508092Y583252*
X507864*
X507524Y583408*
X507410Y583721*
X542201Y818982D02*
Y816638D01*
X542314Y816170*
X542542Y815857*
X542883Y815701*
X543110*
X543451Y815857*
X543678Y816170*
X543792Y816638*
Y818982*
X544814Y818357D02*
X545042Y818513D01*
X545383Y818982*
Y815701*
X476390Y723628D02*
X476163Y723471D01*
X475936Y723159*
X475822Y722846*
X475709Y722378*
Y721596*
X475822Y721128*
X475936Y720815*
X476163Y720503*
X476390Y720346*
X476845*
X477072Y720503*
X477300Y720815*
X477413Y721128*
X477527Y721596*
Y722378*
X477413Y722846*
X477300Y723159*
X477072Y723471*
X476845Y723628*
X476390*
X476731Y720971D02*
X477413Y720034D01*
X478550Y723003D02*
X478777Y723159D01*
X479118Y723628*
Y720346*
X485131Y723628D02*
X484903Y723471D01*
X484676Y723159*
X484562Y722846*
X484449Y722378*
Y721596*
X484562Y721128*
X484676Y720815*
X484903Y720503*
X485131Y720346*
X485585*
X485812Y720503*
X486040Y720815*
X486153Y721128*
X486267Y721596*
Y722378*
X486153Y722846*
X486040Y723159*
X485812Y723471*
X485585Y723628*
X485131*
X485472Y720971D02*
X486153Y720034D01*
X487403Y722846D02*
Y723003D01*
X487517Y723315*
X487631Y723471*
X487858Y723628*
X488312*
X488540Y723471*
X488653Y723315*
X488767Y723003*
Y722690*
X488653Y722378*
X488426Y721909*
X487290Y720346*
X488881*
X504683Y581049D02*
Y577768D01*
Y581049D02*
X505705D01*
X506046Y580893*
X506160Y580736*
X506274Y580424*
Y580111*
X506160Y579799*
X506046Y579643*
X505705Y579486*
X504683*
X505478D02*
X506274Y577768D01*
X507296Y580424D02*
X507524Y580580D01*
X507864Y581049*
Y577768*
X509569Y581049D02*
X509228Y580893D01*
X509001Y580424*
X508887Y579643*
Y579174*
X509001Y578393*
X509228Y577924*
X509569Y577768*
X509796*
X510137Y577924*
X510364Y578393*
X510478Y579174*
Y579643*
X510364Y580424*
X510137Y580893*
X509796Y581049*
X509569*
X512183D02*
X511842Y580893D01*
X511614Y580424*
X511501Y579643*
Y579174*
X511614Y578393*
X511842Y577924*
X512183Y577768*
X512410*
X512751Y577924*
X512978Y578393*
X513092Y579174*
Y579643*
X512978Y580424*
X512751Y580893*
X512410Y581049*
X512183*
X507920Y811701D02*
X511201D01*
X507920D02*
Y812724D01*
X508076Y813064*
X508232Y813178*
X508545Y813292*
X508857*
X509170Y813178*
X509326Y813064*
X509482Y812724*
Y811701*
Y812496D02*
X511201Y813292D01*
X508545Y814314D02*
X508388Y814542D01*
X507920Y814883*
X511201*
X527883Y755482D02*
X527655Y755326D01*
X527428Y755013*
X527314Y754701*
X527201Y754232*
Y753451*
X527314Y752982*
X527428Y752670*
X527655Y752357*
X527883Y752201*
X528337*
X528564Y752357*
X528792Y752670*
X528905Y752982*
X529019Y753451*
Y754232*
X528905Y754701*
X528792Y755013*
X528564Y755326*
X528337Y755482*
X527883*
X528224Y752826D02*
X528905Y751888D01*
X530269Y755482D02*
X531519D01*
X530837Y754232*
X531178*
X531405Y754076*
X531519Y753920*
X531633Y753451*
Y753138*
X531519Y752670*
X531292Y752357*
X530951Y752201*
X530610*
X530269Y752357*
X530155Y752513*
X530042Y752826*
G54D64*
X480841Y735193D02*
Y731650D01*
X482861Y725350D02*
Y728894D01*
G74*
X0Y0D02*
M02*
